<svg id="Layer_2" data-name="Layer 2" xmlns="http://www.w3.org/2000/svg" viewBox="0 0 95.76 95.76"><defs><style>.cls-1{fill:#fff;}</style></defs><path class="cls-1" d="M67.31,41.12V29.25H58V50.34a2.36,2.36,0,0,1-.17,1.59c-.53,1.16-1.9,2.07-4.07,2.72a3.67,3.67,0,0,0-2.57,2.76,15.48,15.48,0,0,0-.25,2.22H67.31Z"/><path class="cls-1" d="M30.56,30.41a4.65,4.65,0,0,1-1.95-2.81H23.79V44.39h5.8a4.76,4.76,0,0,1,1.14-2.15c1.45-1.62,3.95-2.48,7.43-2.56,6.55-.15,14.92,0,17.79,0V29.53C42.94,32.83,34.39,33.13,30.56,30.41Z"/><rect class="cls-1" x="25.2" y="46.39" width="2.79" height="2.21"/><path class="cls-1" d="M25.58,61.63A5.56,5.56,0,0,0,20,67.18v3.71H74.45V67.18a5.56,5.56,0,0,0-5.55-5.55Z"/><path class="cls-1" d="M47.88,0A47.88,47.88,0,1,0,95.76,47.88,47.88,47.88,0,0,0,47.88,0ZM77.72,47.41a3.23,3.23,0,0,1-6.46,0V41.12h-2V59.65a7.55,7.55,0,0,1,7.14,7.53v5.71H18V67.18a7.56,7.56,0,0,1,7.55-7.55h23.3a17.87,17.87,0,0,1,.3-2.61,5.65,5.65,0,0,1,4-4.28c2.54-.76,2.94-1.65,2.87-1.9l-.16-.25.1-.1V41.67c-2.82,0-11.2-.14-17.75,0-2.82.07-4.88.71-5.94,1.85a2.68,2.68,0,0,0-.78,1.79l.05,1-1.05,0H30V50.6H27.59v6.69h-2V50.6H23.2V46.39H21.79V25.6h3.8V23.94H24.2v-2H29v2H27.59V25.6h1.48A1.47,1.47,0,0,1,30.53,27a2.53,2.53,0,0,0,1.19,1.83c1.94,1.38,7.76,3,25-1.5l.25,0h4.72V22.94h2v4.31h5.64v4.27h2v-4.7a3.23,3.23,0,0,1,6.46,0Z"/><path class="cls-1" d="M74.49,25.59a1.23,1.23,0,0,0-1.23,1.23V47.41a1.23,1.23,0,1,0,2.46,0V26.82A1.23,1.23,0,0,0,74.49,25.59Z"/><rect class="cls-1" x="69.31" y="33.52" width="1.95" height="5.6"/></svg>