<svg id="Layer_2" data-name="Layer 2" xmlns="http://www.w3.org/2000/svg" xmlns:xlink="http://www.w3.org/1999/xlink" viewBox="0 0 28.26 38.83"><defs><style>.cls-1,.cls-2,.cls-4{fill:#fff;}.cls-1{clip-rule:evenodd;}.cls-2{fill-rule:evenodd;}.cls-3{clip-path:url(#clip-path);}.cls-5{clip-path:url(#clip-path-2);}.cls-6{fill:none;stroke:#fff;stroke-miterlimit:10;stroke-width:2px;}</style><clipPath id="clip-path"><path class="cls-1" d="M-467.81,453.89a30.21,30.21,0,0,1-7.95-20.47,30.16,30.16,0,0,1,8.9-21.48l.26-.26,2,1.94-.27.27A27.43,27.43,0,0,0-473,433.42a27.47,27.47,0,0,0,7.15,18.52l3.75-3.75a22.26,22.26,0,0,1-5.61-14.77,22.19,22.19,0,0,1,6.54-15.8l.26-.26,1.95,1.94-.27.27A19.45,19.45,0,0,0-465,433.42a19.49,19.49,0,0,0,4.81,12.82l4.65-4.65a13,13,0,0,1-2.89-8.17,12.89,12.89,0,0,1,3.81-9.2l.26-.27,1.95,1.94-.27.27a10.2,10.2,0,0,0-3,7.26,10.11,10.11,0,0,0,2.1,6.22l3.46-3.47a5.41,5.41,0,0,1-.75-2.75,5.45,5.45,0,0,1,5.45-5.45,5.41,5.41,0,0,1,2.75.75l30.11-30.11a47.7,47.7,0,0,0-32.86-13.07,47.88,47.88,0,0,0-47.88,47.88,47.76,47.76,0,0,0,13.07,32.86Z"/></clipPath><clipPath id="clip-path-2"><path class="cls-1" d="M-410.59,400.56-423,412.94a30.23,30.23,0,0,1,8,20.48,30.16,30.16,0,0,1-8.9,21.47l-.26.26-1.95-1.94.27-.27a27.45,27.45,0,0,0,8.09-19.52,27.5,27.5,0,0,0-7.15-18.53l-3.76,3.76a22.2,22.2,0,0,1,5.62,14.77,22.19,22.19,0,0,1-6.54,15.79l-.26.26-1.95-1.94.27-.27a19.46,19.46,0,0,0,5.73-13.84,19.55,19.55,0,0,0-4.81-12.83l-4.65,4.65a13,13,0,0,1,2.89,8.18,12.93,12.93,0,0,1-3.81,9.2l-.26.26-1.95-1.94.27-.27a10.2,10.2,0,0,0,3-7.25,10.06,10.06,0,0,0-2.1-6.22l-3.46,3.46a5.45,5.45,0,0,1,.75,2.76,5.47,5.47,0,0,1-4.08,5.27v31.89h-2.75V438.69a5.91,5.91,0,0,1-1.38-.57l-30.1,30.1a47.7,47.7,0,0,0,32.86,13.07,47.88,47.88,0,0,0,47.88-47.87,47.69,47.69,0,0,0-13.08-32.86"/></clipPath></defs><path class="cls-2" d="M-467.81,453.89a30.21,30.21,0,0,1-7.95-20.47,30.16,30.16,0,0,1,8.9-21.48l.26-.26,2,1.94-.27.27A27.43,27.43,0,0,0-473,433.42a27.47,27.47,0,0,0,7.15,18.52l3.75-3.75a22.26,22.26,0,0,1-5.61-14.77,22.19,22.19,0,0,1,6.54-15.8l.26-.26,1.95,1.94-.27.27A19.45,19.45,0,0,0-465,433.42a19.49,19.49,0,0,0,4.81,12.82l4.65-4.65a13,13,0,0,1-2.89-8.17,12.89,12.89,0,0,1,3.81-9.2l.26-.27,1.95,1.94-.27.27a10.2,10.2,0,0,0-3,7.26,10.11,10.11,0,0,0,2.1,6.22l3.46-3.47a5.41,5.41,0,0,1-.75-2.75,5.45,5.45,0,0,1,5.45-5.45,5.41,5.41,0,0,1,2.75.75l30.11-30.11a47.7,47.7,0,0,0-32.86-13.07,47.88,47.88,0,0,0-47.88,47.88,47.76,47.76,0,0,0,13.07,32.86Z"/><g class="cls-3"><rect class="cls-4" x="-645.27" y="-1556.46" width="1400" height="6482"/></g><path class="cls-2" d="M-410.59,400.56-423,412.94a30.23,30.23,0,0,1,8,20.48,30.16,30.16,0,0,1-8.9,21.47l-.26.26-1.95-1.94.27-.27a27.45,27.45,0,0,0,8.09-19.52,27.5,27.5,0,0,0-7.15-18.53l-3.76,3.76a22.2,22.2,0,0,1,5.62,14.77,22.19,22.19,0,0,1-6.54,15.79l-.26.26-1.95-1.94.27-.27a19.46,19.46,0,0,0,5.73-13.84,19.55,19.55,0,0,0-4.81-12.83l-4.65,4.65a13,13,0,0,1,2.89,8.18,12.93,12.93,0,0,1-3.81,9.2l-.26.26-1.95-1.94.27-.27a10.2,10.2,0,0,0,3-7.25,10.06,10.06,0,0,0-2.1-6.22l-3.46,3.46a5.45,5.45,0,0,1,.75,2.76,5.47,5.47,0,0,1-4.08,5.27v31.89h-2.75V438.69a5.91,5.91,0,0,1-1.38-.57l-30.1,30.1a47.7,47.7,0,0,0,32.86,13.07,47.88,47.88,0,0,0,47.88-47.87,47.69,47.69,0,0,0-13.08-32.86"/><g class="cls-5"><rect class="cls-4" x="-645.27" y="-1556.46" width="1400" height="6482"/></g><path class="cls-6" d="M27.26,14.13c0,7.25-13.13,23.13-13.13,23.13S1,21.38,1,14.13a13.13,13.13,0,0,1,26.26,0Z"/><circle class="cls-6" cx="14.13" cy="14.13" r="6.38"/></svg>