<svg id="Layer_2" data-name="Layer 2" xmlns="http://www.w3.org/2000/svg" xmlns:xlink="http://www.w3.org/1999/xlink" viewBox="0 0 72 72"><defs><style>.cls-1,.cls-2,.cls-4{fill:#fff;}.cls-1{clip-rule:evenodd;}.cls-2{fill-rule:evenodd;}.cls-3{clip-path:url(#clip-path);}.cls-5{clip-path:url(#clip-path-2);}.cls-6{fill:none;stroke:#000;stroke-miterlimit:10;stroke-width:2px;}</style><clipPath id="clip-path"><path class="cls-1" d="M-631.86,409.79a30.21,30.21,0,0,1-7.95-20.47,30.14,30.14,0,0,1,8.9-21.47l.26-.27,1.95,1.95-.27.26a27.47,27.47,0,0,0-8.09,19.53,27.52,27.52,0,0,0,7.15,18.53l3.76-3.76a22.2,22.2,0,0,1-5.62-14.77,22.19,22.19,0,0,1,6.54-15.79l.27-.26,1.94,1.94-.27.26A19.5,19.5,0,0,0-629,389.32a19.55,19.55,0,0,0,4.81,12.83l4.65-4.66a13,13,0,0,1-2.89-8.17,12.93,12.93,0,0,1,3.81-9.2l.26-.26,2,1.94-.27.26a10.24,10.24,0,0,0-3,7.26,10.06,10.06,0,0,0,2.1,6.22l3.46-3.46a5.45,5.45,0,0,1-.75-2.76,5.46,5.46,0,0,1,5.45-5.45,5.45,5.45,0,0,1,2.76.75l30.1-30.1a47.69,47.69,0,0,0-32.86-13.08,47.88,47.88,0,0,0-47.88,47.88,47.69,47.69,0,0,0,13.08,32.86Z"/></clipPath><clipPath id="clip-path-2"><path class="cls-1" d="M-574.63,356.46-587,368.85a30.21,30.21,0,0,1,7.95,20.47,30.14,30.14,0,0,1-8.9,21.47l-.26.27-1.95-1.95.27-.26a27.47,27.47,0,0,0,8.09-19.53A27.52,27.52,0,0,0-589,370.79l-3.75,3.76a22.24,22.24,0,0,1,5.61,14.77,22.15,22.15,0,0,1-6.54,15.79l-.26.27-2-1.95.27-.26a19.45,19.45,0,0,0,5.73-13.85,19.49,19.49,0,0,0-4.81-12.82l-4.65,4.65a13,13,0,0,1,2.89,8.17,12.89,12.89,0,0,1-3.81,9.2l-.26.27-2-2,.27-.26a10.2,10.2,0,0,0,3-7.26,10.11,10.11,0,0,0-2.1-6.22l-3.46,3.47a5.41,5.41,0,0,1,.75,2.75,5.46,5.46,0,0,1-4.07,5.28v31.89h-2.75V394.6a5.25,5.25,0,0,1-1.38-.58l-30.11,30.11a47.7,47.7,0,0,0,32.86,13.07,47.88,47.88,0,0,0,47.88-47.88,47.76,47.76,0,0,0-13.07-32.86"/></clipPath></defs><path class="cls-2" d="M-631.86,409.79a30.21,30.21,0,0,1-7.95-20.47,30.14,30.14,0,0,1,8.9-21.47l.26-.27,1.95,1.95-.27.26a27.47,27.47,0,0,0-8.09,19.53,27.52,27.52,0,0,0,7.15,18.53l3.76-3.76a22.2,22.2,0,0,1-5.62-14.77,22.19,22.19,0,0,1,6.54-15.79l.27-.26,1.94,1.94-.27.26A19.5,19.5,0,0,0-629,389.32a19.55,19.55,0,0,0,4.81,12.83l4.65-4.66a13,13,0,0,1-2.89-8.17,12.93,12.93,0,0,1,3.81-9.2l.26-.26,2,1.94-.27.26a10.24,10.24,0,0,0-3,7.26,10.06,10.06,0,0,0,2.1,6.22l3.46-3.46a5.45,5.45,0,0,1-.75-2.76,5.46,5.46,0,0,1,5.45-5.45,5.45,5.45,0,0,1,2.76.75l30.1-30.1a47.69,47.69,0,0,0-32.86-13.08,47.88,47.88,0,0,0-47.88,47.88,47.69,47.69,0,0,0,13.08,32.86Z"/><g class="cls-3"><rect class="cls-4" x="-809.32" y="-1600.56" width="1400" height="6482"/></g><path class="cls-2" d="M-574.63,356.46-587,368.85a30.21,30.21,0,0,1,7.95,20.47,30.14,30.14,0,0,1-8.9,21.47l-.26.27-1.95-1.95.27-.26a27.47,27.47,0,0,0,8.09-19.53A27.52,27.52,0,0,0-589,370.79l-3.75,3.76a22.24,22.24,0,0,1,5.61,14.77,22.15,22.15,0,0,1-6.54,15.79l-.26.27-2-1.95.27-.26a19.45,19.45,0,0,0,5.73-13.85,19.49,19.49,0,0,0-4.81-12.82l-4.65,4.65a13,13,0,0,1,2.89,8.17,12.89,12.89,0,0,1-3.81,9.2l-.26.27-2-2,.27-.26a10.2,10.2,0,0,0,3-7.26,10.11,10.11,0,0,0-2.1-6.22l-3.46,3.47a5.41,5.41,0,0,1,.75,2.75,5.46,5.46,0,0,1-4.07,5.28v31.89h-2.75V394.6a5.25,5.25,0,0,1-1.38-.58l-30.11,30.11a47.7,47.7,0,0,0,32.86,13.07,47.88,47.88,0,0,0,47.88-47.88,47.76,47.76,0,0,0-13.07-32.86"/><g class="cls-5"><rect class="cls-4" x="-809.32" y="-1600.56" width="1400" height="6482"/></g><circle class="cls-6" cx="36" cy="36" r="35"/><rect class="cls-6" x="14.16" y="19.25" width="43.68" height="32.21" rx="2.71"/><polyline class="cls-6" points="14.62 20.31 36 39.45 57.38 20.31"/><line class="cls-6" x1="32.8" y1="36.59" x2="14.62" y2="50.29"/><line class="cls-6" x1="57.38" y1="50.29" x2="39.2" y2="36.59"/></svg>