<svg id="Layer_2" data-name="Layer 2" xmlns="http://www.w3.org/2000/svg" xmlns:xlink="http://www.w3.org/1999/xlink" viewBox="0 0 72 72"><defs><style>.cls-1,.cls-3,.cls-5{fill:#fff;}.cls-1{clip-rule:evenodd;}.cls-2{fill:none;stroke:#000;stroke-miterlimit:10;stroke-width:2px;}.cls-3{fill-rule:evenodd;}.cls-4{clip-path:url(#clip-path);}.cls-6{clip-path:url(#clip-path-2);}</style><clipPath id="clip-path"><path class="cls-1" d="M-717.45,409.79a30.21,30.21,0,0,1-7.95-20.47,30.17,30.17,0,0,1,8.89-21.47l.27-.27,1.94,1.95-.26.26a27.43,27.43,0,0,0-8.09,19.53,27.47,27.47,0,0,0,7.15,18.53l3.75-3.76a22.24,22.24,0,0,1-5.61-14.77,22.19,22.19,0,0,1,6.54-15.79l.26-.26,1.95,1.94-.27.26a19.45,19.45,0,0,0-5.73,13.85,19.5,19.5,0,0,0,4.81,12.83l4.65-4.66a13,13,0,0,1-2.9-8.17,12.94,12.94,0,0,1,3.82-9.2l.26-.26,2,1.94-.27.26a10.2,10.2,0,0,0-3,7.26,10.13,10.13,0,0,0,2.1,6.22l3.47-3.46a5.45,5.45,0,0,1-.75-2.76,5.46,5.46,0,0,1,5.45-5.45,5.41,5.41,0,0,1,2.75.75l30.11-30.1A47.72,47.72,0,0,0-695,341.44a47.88,47.88,0,0,0-47.88,47.88,47.68,47.68,0,0,0,13.07,32.86Z"/></clipPath><clipPath id="clip-path-2"><path class="cls-1" d="M-660.23,356.46l-12.39,12.39a30.21,30.21,0,0,1,8,20.47,30.17,30.17,0,0,1-8.89,21.47l-.27.27-1.94-1.95.26-.26a27.43,27.43,0,0,0,8.09-19.53,27.51,27.51,0,0,0-7.14-18.53l-3.76,3.76a22.2,22.2,0,0,1,5.62,14.77,22.15,22.15,0,0,1-6.54,15.79l-.27.27-1.94-1.95.26-.26a19.46,19.46,0,0,0,5.74-13.85,19.5,19.5,0,0,0-4.82-12.82l-4.65,4.65a13,13,0,0,1,2.9,8.17,12.89,12.89,0,0,1-3.81,9.2l-.27.27-1.94-2,.26-.26a10.2,10.2,0,0,0,3-7.26,10.17,10.17,0,0,0-2.1-6.22l-3.46,3.47a5.41,5.41,0,0,1,.75,2.75,5.47,5.47,0,0,1-4.08,5.28v31.89h-2.75V394.6a5.39,5.39,0,0,1-1.38-.58l-30.1,30.11A47.68,47.68,0,0,0-695,437.2a47.88,47.88,0,0,0,47.87-47.88,47.71,47.71,0,0,0-13.07-32.86"/></clipPath></defs><circle class="cls-2" cx="36" cy="36" r="35"/><path class="cls-3" d="M-717.45,409.79a30.21,30.21,0,0,1-7.95-20.47,30.17,30.17,0,0,1,8.89-21.47l.27-.27,1.94,1.95-.26.26a27.43,27.43,0,0,0-8.09,19.53,27.47,27.47,0,0,0,7.15,18.53l3.75-3.76a22.24,22.24,0,0,1-5.61-14.77,22.19,22.19,0,0,1,6.54-15.79l.26-.26,1.95,1.94-.27.26a19.45,19.45,0,0,0-5.73,13.85,19.5,19.5,0,0,0,4.81,12.83l4.65-4.66a13,13,0,0,1-2.9-8.17,12.94,12.94,0,0,1,3.82-9.2l.26-.26,2,1.94-.27.26a10.2,10.2,0,0,0-3,7.26,10.13,10.13,0,0,0,2.1,6.22l3.47-3.46a5.45,5.45,0,0,1-.75-2.76,5.46,5.46,0,0,1,5.45-5.45,5.41,5.41,0,0,1,2.75.75l30.11-30.1A47.72,47.72,0,0,0-695,341.44a47.88,47.88,0,0,0-47.88,47.88,47.68,47.68,0,0,0,13.07,32.86Z"/><g class="cls-4"><rect class="cls-5" x="-894.91" y="-1600.56" width="1400" height="6482"/></g><path class="cls-3" d="M-660.23,356.46l-12.39,12.39a30.21,30.21,0,0,1,8,20.47,30.17,30.17,0,0,1-8.89,21.47l-.27.27-1.94-1.95.26-.26a27.43,27.43,0,0,0,8.09-19.53,27.51,27.51,0,0,0-7.14-18.53l-3.76,3.76a22.2,22.2,0,0,1,5.62,14.77,22.15,22.15,0,0,1-6.54,15.79l-.27.27-1.94-1.95.26-.26a19.46,19.46,0,0,0,5.74-13.85,19.5,19.5,0,0,0-4.82-12.82l-4.65,4.65a13,13,0,0,1,2.9,8.17,12.89,12.89,0,0,1-3.81,9.2l-.27.27-1.94-2,.26-.26a10.2,10.2,0,0,0,3-7.26,10.17,10.17,0,0,0-2.1-6.22l-3.46,3.47a5.41,5.41,0,0,1,.75,2.75,5.47,5.47,0,0,1-4.08,5.28v31.89h-2.75V394.6a5.39,5.39,0,0,1-1.38-.58l-30.1,30.11A47.68,47.68,0,0,0-695,437.2a47.88,47.88,0,0,0,47.87-47.88,47.71,47.71,0,0,0-13.07-32.86"/><g class="cls-6"><rect class="cls-5" x="-894.91" y="-1600.56" width="1400" height="6482"/></g><path class="cls-2" d="M22.92,49.22v5.52a.4.4,0,0,0,.63.33l8.66-5.85h16A5.24,5.24,0,0,0,53.48,44V25.86a5.25,5.25,0,0,0-5.24-5.24H22.92a5.24,5.24,0,0,0-5.23,5.24V44A5.23,5.23,0,0,0,22.92,49.22Z"/><line class="cls-2" x1="23.18" y1="28.45" x2="42.2" y2="28.45"/><line class="cls-2" x1="23.18" y1="37.72" x2="42.2" y2="37.72"/><line class="cls-2" x1="23.18" y1="33.09" x2="47.15" y2="33.09"/></svg>