<svg id="Layer_2" data-name="Layer 2" xmlns="http://www.w3.org/2000/svg" xmlns:xlink="http://www.w3.org/1999/xlink" viewBox="0 0 95.76 95.76"><defs><style>.cls-1{fill:none;clip-rule:evenodd;}.cls-2{fill:#fff;}.cls-3{clip-path:url(#clip-path);}.cls-4{clip-path:url(#clip-path-2);}.cls-5{fill:#c67a2a;}</style><clipPath id="clip-path"><path class="cls-1" d="M-363.07-875.55A30.21,30.21,0,0,1-371-896a30.17,30.17,0,0,1,8.89-21.47l.27-.27,1.94,2-.26.26A27.43,27.43,0,0,0-368.27-896a27.51,27.51,0,0,0,7.14,18.53l3.76-3.76A22.2,22.2,0,0,1-363-896a22.21,22.21,0,0,1,6.54-15.79l.27-.27,1.94,2-.26.26A19.46,19.46,0,0,0-360.24-896a19.48,19.48,0,0,0,4.82,12.82l4.65-4.65a13,13,0,0,1-2.9-8.17,12.91,12.91,0,0,1,3.81-9.2l.27-.27,1.94,2-.26.26a10.2,10.2,0,0,0-3,7.26,10.17,10.17,0,0,0,2.1,6.22l3.46-3.47a5.41,5.41,0,0,1-.75-2.75,5.46,5.46,0,0,1,5.45-5.45,5.45,5.45,0,0,1,2.76.75l30.1-30.11a47.72,47.72,0,0,0-32.86-13.07A47.88,47.88,0,0,0-388.53-896a47.7,47.7,0,0,0,13.07,32.86Z"/></clipPath><clipPath id="clip-path-2"><path class="cls-1" d="M-305.85-928.88l-12.39,12.39A30.21,30.21,0,0,1-310.29-896a30.17,30.17,0,0,1-8.89,21.47l-.27.27-1.94-2,.26-.26A27.43,27.43,0,0,0-313-896a27.51,27.51,0,0,0-7.14-18.53l-3.76,3.76A22.25,22.25,0,0,1-318.32-896a22.23,22.23,0,0,1-6.54,15.79l-.27.26-1.94-1.94.26-.27A19.42,19.42,0,0,0-321.07-896a19.51,19.51,0,0,0-4.82-12.83l-4.65,4.66a13,13,0,0,1,2.9,8.17,13,13,0,0,1-3.81,9.2l-.27.26-1.94-1.94.26-.27a10.16,10.16,0,0,0,3-7.25,10.13,10.13,0,0,0-2.1-6.22l-3.47,3.46a5.38,5.38,0,0,1,.75,2.76,5.46,5.46,0,0,1-4.07,5.27v31.89H-342v-31.89a5.22,5.22,0,0,1-1.38-.57l-30.11,30.1a47.72,47.72,0,0,0,32.86,13.08A47.88,47.88,0,0,0-292.78-896a47.68,47.68,0,0,0-13.07-32.86"/></clipPath></defs><circle class="cls-2" cx="47.88" cy="47.88" r="47.88"/><path class="cls-5" d="M47.74,68.22l-.46.24-.46-.24a3.77,3.77,0,0,0-3.09,0,4.71,4.71,0,0,0,3.55,2.49,4.69,4.69,0,0,0,3.57-2.49A3.76,3.76,0,0,0,47.74,68.22Z"/><path class="cls-5" d="M67,76.23a1,1,0,0,0,1.91,0,14.5,14.5,0,0,0-1-2.83A14.3,14.3,0,0,0,67,76.23Z"/><path class="cls-5" d="M73.13,64.33a1,1,0,1,0,1.9,0,14.73,14.73,0,0,0-1-2.83A14.23,14.23,0,0,0,73.13,64.33Z"/><path class="cls-5" d="M47.88,0A47.88,47.88,0,1,0,95.76,47.88,47.88,47.88,0,0,0,47.88,0ZM57,75c-.14.09-3.32,2.26-1.71,8.11l-1.93.53a11.08,11.08,0,0,1,0-6.9,26.21,26.21,0,0,1-5.89,2.13l-.23.05-.22-.05a26.62,26.62,0,0,1-5.67-2,11.15,11.15,0,0,1,0,6.78l-1.93-.53c1.6-5.85-1.57-8-1.71-8.11l.15-.22C30,69.2,27.44,60.4,26.69,56.85c-4.33-3.78-6.51-13.88-5-19,1.65-5.73,5.43-10.06,11.54-13.22.73-.38,1.48-.75,2.23-1.12,3.71-1.81,7.54-3.69,9.62-7.23l1.73,1c-2.39,4.05-6.5,6.06-10.47,8-.74.36-1.47.72-2.19,1.09-5.6,2.9-9,6.82-10.54,12-1.19,4.17.52,12.73,3.84,16.38,3-2.89,14.88-14.3,19.19-18.21l.84-.75c3.64-3.26,9.75-8.71,9.91-15,.08-3.12-1.37-6.17-4.3-9.07-3.31-3.28-9.49-2.51-13.32.07-1.58,1.07-5,4-3.1,8.67l-1.84.77c-1.75-4.15-.32-8.29,3.82-11.1,4.58-3.09,11.76-3.87,15.85.17,3.34,3.3,5,6.85,4.89,10.54a12.29,12.29,0,0,1-.3,2.35A18.71,18.71,0,0,1,69.59,33.33c3.77,9,.09,19.68-.76,21.89-.58,2.78-3.28,13.15-12,19.46ZM29.36,46.2l-1.87.71c-2.18-5.78,1.1-11.77,8.78-16C43.21,27,45,23.58,45,23.55l1.79.9c-.08.16-2.1,4-9.57,8.17C30.51,36.36,27.57,41.44,29.36,46.2ZM68,79.18a3,3,0,0,1-3-3c0-1.21,1.57-4.72,2-5.77l.91-2,.91,2c.48,1.05,2,4.56,2,5.77A3,3,0,0,1,68,79.18Zm6.1-11.89a3,3,0,0,1-3-3c0-1.2,1.56-4.72,2-5.76l.91-2,.91,2c.48,1,2,4.56,2,5.76A3,3,0,0,1,74.08,67.29Z"/><path class="cls-5" d="M45.85,40V40c-5.36,5-14.94,14.19-17.24,16.4.82,4.2,4.46,17.05,18.66,20.5,14.28-3.47,18.51-17.34,19.47-21.49C62.32,41.23,46,40.05,45.85,40Zm7.23,28.2c-.07.18-1.81,4.32-5.76,4.46l0-1,0,1c-4-.14-5.69-4.28-5.76-4.46l-.28-.69.58-.46a5.59,5.59,0,0,1,5.49-.84,5.61,5.61,0,0,1,5.5.84l.58.46Z"/><path class="cls-5" d="M67.7,52.26c1.17-3.94,2.76-11.65,0-18.17a16.78,16.78,0,0,0-9.25-8.94c-1.93,5.18-6.63,9.4-9.71,12.15L48,38l-.24.22C52,39,63,41.75,67.7,52.26Z"/></svg>