<svg id="Layer_2" data-name="Layer 2" xmlns="http://www.w3.org/2000/svg" xmlns:xlink="http://www.w3.org/1999/xlink" viewBox="0 0 95.76 95.76"><defs><style>.cls-1,.cls-2,.cls-3{fill:#fff;}.cls-1{clip-rule:evenodd;}.cls-3{fill-rule:evenodd;}.cls-4{clip-path:url(#clip-path);}.cls-5{clip-path:url(#clip-path-2);}.cls-6{clip-path:url(#clip-path-3);}</style><clipPath id="clip-path"><path class="cls-1" d="M25.46,68.35a30.34,30.34,0,0,1,.95-41.94l.26-.27,1.95,1.95-.27.26a27.6,27.6,0,0,0-.94,38.06l3.75-3.76a22.29,22.29,0,0,1,.93-30.56l.26-.27,1.95,2L34,34a19.55,19.55,0,0,0-.92,26.67l4.65-4.65a13,13,0,0,1,.92-17.37l.26-.27,2,2-.27.26a10.27,10.27,0,0,0-.9,13.48l3.46-3.47a5.44,5.44,0,0,1,7.45-7.45L80.74,13.07A47.87,47.87,0,0,0,13.07,80.74Z"/></clipPath><clipPath id="clip-path-2"><rect class="cls-2" x="-152" y="-1942" width="1400" height="6482"/></clipPath><clipPath id="clip-path-3"><path class="cls-1" d="M82.68,15,70.3,27.41a30.34,30.34,0,0,1-1,41.94l-.26.27-2-2,.27-.26a27.6,27.6,0,0,0,.94-38.06l-3.76,3.76a22.28,22.28,0,0,1-.92,30.56l-.27.27L61.46,62l.26-.27a19.52,19.52,0,0,0,.93-26.66L58,39.71a13,13,0,0,1-.91,17.37l-.27.27-1.94-2,.27-.27a10.2,10.2,0,0,0,3-7.25A10.09,10.09,0,0,0,56,41.66l-3.46,3.46a5.45,5.45,0,0,1-3.33,8V85H46.5V53.15a5.51,5.51,0,0,1-1.38-.57L15,82.68A47.86,47.86,0,0,0,82.68,15"/></clipPath></defs><path class="cls-3" d="M25.46,68.35a30.34,30.34,0,0,1,.95-41.94l.26-.27,1.95,1.95-.27.26a27.6,27.6,0,0,0-.94,38.06l3.75-3.76a22.29,22.29,0,0,1,.93-30.56l.26-.27,1.95,2L34,34a19.55,19.55,0,0,0-.92,26.67l4.65-4.65a13,13,0,0,1,.92-17.37l.26-.27,2,2-.27.26a10.27,10.27,0,0,0-.9,13.48l3.46-3.47a5.44,5.44,0,0,1,7.45-7.45L80.74,13.07A47.87,47.87,0,0,0,13.07,80.74Z"/><g class="cls-4"><rect class="cls-2" x="-152" y="-1942" width="1400" height="6482"/><g class="cls-5"><rect class="cls-2" x="-5" y="-5" width="90.74" height="90.74"/></g></g><path class="cls-3" d="M82.68,15,70.3,27.41a30.34,30.34,0,0,1-1,41.94l-.26.27-2-2,.27-.26a27.6,27.6,0,0,0,.94-38.06l-3.76,3.76a22.28,22.28,0,0,1-.92,30.56l-.27.27L61.46,62l.26-.27a19.52,19.52,0,0,0,.93-26.66L58,39.71a13,13,0,0,1-.91,17.37l-.27.27-1.94-2,.27-.27a10.2,10.2,0,0,0,3-7.25A10.09,10.09,0,0,0,56,41.66l-3.46,3.46a5.45,5.45,0,0,1-3.33,8V85H46.5V53.15a5.51,5.51,0,0,1-1.38-.57L15,82.68A47.86,47.86,0,0,0,82.68,15"/><g class="cls-6"><rect class="cls-2" x="-152" y="-1942" width="1400" height="6482"/><g class="cls-5"><rect class="cls-2" x="10.02" y="10.02" width="90.74" height="90.74"/></g></g></svg>