<svg id="Layer_1" data-name="Layer 1" xmlns="http://www.w3.org/2000/svg" viewBox="0 0 40 40"><defs><style>.cls-1{fill:#fff;}</style></defs><path class="cls-1" d="M19.38,0h1.21q7.36,0,14,6.26,4.64,5.61,5.1,10.17A24.44,24.44,0,0,1,40,19.19v1.65a20.7,20.7,0,0,1-2.72,9.24,20.66,20.66,0,0,1-11.26,9,25.2,25.2,0,0,1-5.79,1h-.47q-7.65,0-14.2-6.17A20.69,20.69,0,0,1,0,19.54v-.23a.88.88,0,0,1,.11-.47c0-.09,0-.13-.11-.13A22.2,22.2,0,0,1,3.07,9.37,20.17,20.17,0,0,1,14.42.84,18.74,18.74,0,0,1,19.38,0ZM16.67,12.8l.12,3.66c0,.12-.12.24-.35.37h-2V21h2c.12,0,.23.12.35.36V31.5l.06.72h4.2v-11c0-.17.1-.25.23-.25h3.43q.24,0,.6-3.9v-.23h-4a.21.21,0,0,1-.23-.23V13.75c0-1.22.71-1.89,2.13-2h2.37V8.19c0-.24-.83-.35-2.48-.35h-.6q-4.09,0-5.33,3.06A12.37,12.37,0,0,0,16.67,12.8Z"/></svg>