<svg id="Layer_2" data-name="Layer 2" xmlns="http://www.w3.org/2000/svg" xmlns:xlink="http://www.w3.org/1999/xlink" viewBox="0 0 95.76 95.76"><defs><style>.cls-1{fill:none;clip-rule:evenodd;}.cls-2{fill:#fff;}.cls-3{clip-path:url(#clip-path);}.cls-4{clip-path:url(#clip-path-2);}</style><clipPath id="clip-path"><path class="cls-1" d="M-323.75,79.66a30.23,30.23,0,0,1-7.95-20.47,30.2,30.2,0,0,1,8.89-21.48l.27-.26,1.94,1.94-.26.27a27.41,27.41,0,0,0-8.09,19.53,27.48,27.48,0,0,0,7.14,18.52L-318,74a22.24,22.24,0,0,1-5.62-14.77,22.23,22.23,0,0,1,6.54-15.8l.27-.26,1.94,1.94-.26.27a19.46,19.46,0,0,0-5.74,13.85A19.5,19.5,0,0,0-316.1,72l4.65-4.65a13,13,0,0,1-2.9-8.17A12.93,12.93,0,0,1-310.54,50l.27-.26,1.94,1.94-.26.27a10.19,10.19,0,0,0-3,7.26,10.12,10.12,0,0,0,2.1,6.21l3.46-3.46a5.41,5.41,0,0,1-.75-2.75,5.46,5.46,0,0,1,5.45-5.45,5.35,5.35,0,0,1,2.76.75l30.1-30.11a47.68,47.68,0,0,0-32.86-13.07,47.87,47.87,0,0,0-47.87,47.88,47.71,47.71,0,0,0,13.07,32.86Z"/></clipPath><clipPath id="clip-path-2"><path class="cls-1" d="M-266.53,26.33l-12.39,12.38A30.23,30.23,0,0,1-271,59.19a30.19,30.19,0,0,1-8.89,21.47l-.27.26L-282.07,79l.26-.27a27.4,27.4,0,0,0,8.09-19.52,27.49,27.49,0,0,0-7.14-18.53l-3.76,3.75A22.3,22.3,0,0,1-279,59.19,22.2,22.2,0,0,1-285.55,75l-.26.26-1.95-1.94.27-.27a19.44,19.44,0,0,0,5.74-13.84,19.51,19.51,0,0,0-4.82-12.83L-291.22,51a13,13,0,0,1,2.9,8.18,12.94,12.94,0,0,1-3.82,9.2l-.26.26-1.94-1.94.26-.27a10.18,10.18,0,0,0,3-7.25,10.13,10.13,0,0,0-2.1-6.22l-3.47,3.46a5.35,5.35,0,0,1,.75,2.76A5.46,5.46,0,0,1-300,64.46V96.35h-2.75V64.46a5.58,5.58,0,0,1-1.38-.57L-334.2,94a47.71,47.71,0,0,0,32.86,13.07,47.87,47.87,0,0,0,47.88-47.87,47.68,47.68,0,0,0-13.07-32.86"/></clipPath></defs><path class="cls-2" d="M47.88,0A47.88,47.88,0,1,0,95.76,47.88,47.88,47.88,0,0,0,47.88,0ZM56.7,70.85a19.42,19.42,0,0,1-19.37-18.4H24.63v-2H39.31v1A17.4,17.4,0,1,0,56.7,34.06H15.54v-2H56.7a19.4,19.4,0,1,1,0,38.79ZM18.33,43V41H40.25v2Zm43,2.41,1.41,1.41L55.7,53.87V42h2v7Z"/></svg>