<?xml version="1.0" encoding="utf-8"?>
<!-- Generator: Adobe Illustrator 25.0.0, SVG Export Plug-In . SVG Version: 6.00 Build 0)  -->
<svg version="1.1" id="Layer_1" xmlns="http://www.w3.org/2000/svg" xmlns:xlink="http://www.w3.org/1999/xlink" x="0px" y="0px"
	 viewBox="0 0 476 226" style="enable-background:new 0 0 476 226;" xml:space="preserve">
<style type="text/css">
	.st0{fill-rule:evenodd;clip-rule:evenodd; fill: #D8661F;}
</style>
<desc>Created with Sketch.</desc>
<g id="SaunaSpace-Symbol">
	<path id="Fill-1" class="st0" d="M441.7,29.6c-21-19.6-48.5-29.8-77.2-28.8c-28.8,1-55.4,13.2-75,34.2l-31.2,33.5l-33.6-31.3
		c-27.1-25.2-62.3-38.4-99.3-37.1l0,0c-37,1.3-71.2,17-96.4,44C9.3,65.2-1,92.6,0.1,121.4c1,28.8,13.2,55.4,34.2,75
		c21,19.6,48.5,29.8,77.2,28.8s55.4-13.2,75-34.2l31.2-33.5l33.6,31.3c27.1,25.2,62.3,38.4,99.3,37.1l0,0c37-1.3,71.2-17,96.4-44
		c19.6-21.1,29.9-48.5,28.8-77.3S462.7,49.2,441.7,29.6L441.7,29.6z M164.6,170.5c-14,15.1-33.1,23.8-53.7,24.5
		c-20.6,0.7-40.2-6.6-55.3-20.6c-15.1-14-23.8-33.1-24.5-53.7c-0.7-20.6,6.6-40.2,20.6-55.3C71.3,44.3,98,32.1,126.9,31.1
		c28.8-1,56.4,9.2,77.5,28.9L238,91.3l-21,22.6l-33.7-31.3c-15.1-14-34.7-21.4-55.3-20.6h0c-20.6,0.7-39.7,9.4-53.7,24.5
		c-8.4,9-12.8,20.8-12.4,33.2c0.4,12.3,5.7,23.8,14.7,32.2c9.3,8.7,21.3,12.8,33.2,12.3c11.8-0.4,23.5-5.4,32.2-14.7l10.5-11.3
		l-22.6-21l-10.5,11.3c-5.8,6.2-15.6,6.6-21.8,0.8c-3-2.8-4.8-6.6-4.9-10.7c-0.2-4.1,1.3-8,4.1-11.1c8.4-9,19.9-14.3,32.2-14.7
		c12.3-0.4,24.1,3.9,33.2,12.4l33.7,31.3l-0.3,0.3l0.2,0.2L164.6,170.5z M424.3,160.6c-19.6,21.1-46.3,33.3-75.2,34.3
		c-28.8,1-56.3-9.2-77.5-28.9L238,134.7l21-22.6l33.7,31.3c15.1,14,34.7,21.4,55.3,20.6c0,0,0,0,0,0c20.6-0.7,39.7-9.4,53.7-24.5
		c8.4-9,12.8-20.8,12.4-33.2c-0.4-12.3-5.7-23.8-14.7-32.2c-9.3-8.7-21.3-12.8-33.2-12.4c-11.8,0.4-23.5,5.4-32.2,14.7l-10.5,11.3
		l22.6,21l10.5-11.3c5.8-6.2,15.6-6.6,21.8-0.8c3,2.8,4.8,6.6,4.9,10.7c0.1,4.1-1.3,8-4.1,11.1c-8.4,9-19.9,14.3-32.2,14.7
		c-12.4,0.4-24.2-4-33.2-12.4l-33.7-31.3l0.3-0.4l-0.2-0.2l31.2-33.5c14-15.1,33.1-23.8,53.7-24.5c20.6-0.7,40.2,6.6,55.3,20.6
		c15.1,14,23.8,33.1,24.5,53.7C445.7,125.9,438.4,145.6,424.3,160.6L424.3,160.6z"/>
</g>
</svg>
