<svg xmlns="http://www.w3.org/2000/svg" width="805.65" height="492.09" viewBox="0 0 805.65 492.09"><defs><style>.a{fill:#c67a2a;}.b,.d,.e{fill:none;stroke:#231f20;stroke-miterlimit:10;stroke-width:2px;}.b,.d{stroke-linecap:round;}.c{fill:#231f20;}.d{stroke-dasharray:12;}</style></defs><path class="a" d="M236.11,421.25l-.62-252.53s-8.13-14.35,6.41,11c7.15,12.47,13,26.87,21.91,42.12,23,39.48,54.92,84.6,97.18,116.36,25.14,18.89,54.65,34.69,89.69,39.07v44.23Z" transform="translate(-9.77 -3.11)"/><rect class="b" x="92.66" y="7.06" width="687.01" height="411.08"/><path class="c" d="M109,435.32a5,5,0,0,0,1.44-3.27c0-1.48-1-2.44-2.91-2.44a6.51,6.51,0,0,0-4.23,1.78l-.94-1.27a7.77,7.77,0,0,1,5.44-2.28c2.68,0,4.66,1.42,4.66,4a6.07,6.07,0,0,1-1.8,4.28l-5,6.06h7.19v1.66h-9.76v-1.28Z" transform="translate(-9.77 -3.11)"/><path class="c" d="M116.48,442.61l.73-1.42a7.41,7.41,0,0,0,3.91,1.2c2.15,0,3.68-1.08,3.68-3.57,0-1.91-1-3.33-3-3.33a4.19,4.19,0,0,0-3.26,1.22l-.09,1.07h-1.57l.75-9.7h8.25l-.11,1.78h-6.61l-.49,5.26a4.94,4.94,0,0,1,3.49-1.14c3.08,0,4.57,1.82,4.57,4.75,0,3.57-2.27,5.35-5.42,5.35A8.41,8.41,0,0,1,116.48,442.61Z" transform="translate(-9.77 -3.11)"/><path class="c" d="M129.77,436c0-5.52,1.95-8.14,5.37-8.14s5.32,2.62,5.32,8.05c0,5.59-2,8.19-5.39,8.19S129.77,441.48,129.77,436Zm2.35,3.68,5.24-9.05a2.66,2.66,0,0,0-2.24-1.09c-2.24,0-3.4,2.05-3.4,6.44A14.38,14.38,0,0,0,132.12,439.66Zm6.39-3.72a13.75,13.75,0,0,0-.42-3.8l-5.26,9.1a2.66,2.66,0,0,0,2.29,1.15C137.36,442.39,138.51,440.4,138.51,435.94Z" transform="translate(-9.77 -3.11)"/><path class="c" d="M121.22,38V30.91h1.39v6.94c0,1.95.68,2.82,2.24,2.82S127,39.8,127,37.85V30.91h1.38V38c0,2.69-1.2,3.93-3.6,3.93S121.22,40.66,121.22,38Z" transform="translate(-9.77 -3.11)"/><path class="c" d="M131.48,30.91l2.61,9.3h.06l2.59-9.3h1.44l-3.25,10.8h-1.64L130,30.91Z" transform="translate(-9.77 -3.11)"/><path class="c" d="M165.81,30.91l2.61,9.3h.06l2.6-9.3h1.44l-3.26,10.8h-1.63l-3.27-10.8Z" transform="translate(-9.77 -3.11)"/><path class="c" d="M177.35,40.66V34.88h-2.64V33.83h3.94v6.83h2.63v1.05h-6.57V40.66Zm-.3-9.08a.86.86,0,0,1,.94-.84.84.84,0,0,1,.93.84.82.82,0,0,1-.93.84A.85.85,0,0,1,177.05,31.58Z" transform="translate(-9.77 -3.11)"/><path class="c" d="M183.71,40.69l.63-.87a4.12,4.12,0,0,0,2.71,1c1.28,0,1.95-.48,1.95-1.26s-.33-1-1.86-1.35l-.39-.09c-1.95-.39-2.67-1.14-2.67-2.22,0-1.43,1.22-2.31,3.08-2.31a4.59,4.59,0,0,1,3.15,1.12l-.66.81a3.54,3.54,0,0,0-2.4-.91c-1.22,0-1.82.45-1.82,1.12s.39,1,1.79,1.29l.39.08c2,.42,2.74,1.15,2.74,2.32,0,1.49-1.27,2.43-3.22,2.43A5.24,5.24,0,0,1,183.71,40.69Z" transform="translate(-9.77 -3.11)"/><path class="c" d="M196,40.66V34.88h-2.64V33.83h3.94v6.83h2.63v1.05h-6.57V40.66Zm-.3-9.08a.86.86,0,0,1,.94-.84.84.84,0,0,1,.93.84.82.82,0,0,1-.93.84A.85.85,0,0,1,195.65,31.58Z" transform="translate(-9.77 -3.11)"/><path class="c" d="M203.54,40.79l-.11.92h-1.09V30.91h1.32v3.85A3,3,0,0,1,206,33.64c1.92,0,3.22,1.45,3.22,4s-1.38,4.24-3.31,4.24A3.1,3.1,0,0,1,203.54,40.79Zm4.3-3.09c0-2-.85-2.94-2.05-2.94A2.59,2.59,0,0,0,203.66,36v3.68a2.6,2.6,0,0,0,2.08,1.12C206.94,40.79,207.84,39.73,207.84,37.7Z" transform="translate(-9.77 -3.11)"/><path class="c" d="M214.28,40.72V31.9h-2.49v-1h3.81v9.81h2.62v1h-6.57v-1Z" transform="translate(-9.77 -3.11)"/><path class="c" d="M220.68,37.82c0-2.49,1.56-4.18,3.78-4.18s3.39,1.32,3.39,3.84a5.18,5.18,0,0,1,0,.7h-5.72a2.4,2.4,0,0,0,2.6,2.61,4.25,4.25,0,0,0,2.49-.85l.46.88a5,5,0,0,1-3.12,1.08C222.24,41.9,220.68,40.51,220.68,37.82Zm3.75-3.13a2.42,2.42,0,0,0-2.35,2.41h4.48C226.53,35.69,225.9,34.69,224.43,34.69Z" transform="translate(-9.77 -3.11)"/><path class="c" d="M251.32,40.55V32.06H249V30.91h6v1.15h-2.3v8.49H255v1.16h-6V40.55Z" transform="translate(-9.77 -3.11)"/><path class="c" d="M259.21,33.83l.06,1.14A3.57,3.57,0,0,1,262,33.64c1.91,0,2.6,1.2,2.6,2.92v5.15h-1.32V36.8c0-1.36-.53-2-1.7-2A3.08,3.08,0,0,0,259.36,36v5.67H258V33.83Z" transform="translate(-9.77 -3.11)"/><path class="c" d="M269.68,40.72V34.87h-2.25V34l2.25-.21V33a1.92,1.92,0,0,1,2.18-2.08h2V32h-1.83A.94.94,0,0,0,271,33.05v.78h2.63v1H271v5.85h2.81v1h-6.45v-1Z" transform="translate(-9.77 -3.11)"/><path class="c" d="M278.65,40.72v-5.9h-2.17v-1h3.28l.08,1.26a2.3,2.3,0,0,1,2.07-1.45h1.45v1.24h-1.48A2.13,2.13,0,0,0,280,36.34v4.38h2.93v1h-6.42v-1Z" transform="translate(-9.77 -3.11)"/><path class="c" d="M285.72,39.74c0-1.45,1.11-2.62,3.61-2.62a13.71,13.71,0,0,1,1.8.1v-.76c0-1.25-.63-1.76-2-1.77a4.48,4.48,0,0,0-2.61,1l-.45-.89a5,5,0,0,1,3.18-1.12c2,0,3.19,1,3.19,2.77v5.3h-1.11l-.1-1.37a3.06,3.06,0,0,1-2.9,1.56C286.68,41.9,285.72,41,285.72,39.74Zm5.41-1.17v-.36a13.49,13.49,0,0,0-1.72-.1c-1.7,0-2.39.61-2.39,1.53s.6,1.32,1.64,1.32A2.38,2.38,0,0,0,291.13,38.57Z" transform="translate(-9.77 -3.11)"/><path class="c" d="M297.25,40.72v-5.9h-2.17v-1h3.28l.08,1.26a2.3,2.3,0,0,1,2.07-1.45H302v1.24h-1.48a2.13,2.13,0,0,0-1.91,1.46v4.38h2.93v1h-6.42v-1Z" transform="translate(-9.77 -3.11)"/><path class="c" d="M304.26,37.82c0-2.49,1.56-4.18,3.78-4.18s3.39,1.32,3.39,3.84a5.12,5.12,0,0,1-.05.7h-5.71a2.4,2.4,0,0,0,2.59,2.61,4.21,4.21,0,0,0,2.49-.85l.47.88a5,5,0,0,1-3.12,1.08C305.82,41.9,304.26,40.51,304.26,37.82ZM308,34.69a2.42,2.42,0,0,0-2.36,2.41h4.49C310.11,35.69,309.48,34.69,308,34.69Z" transform="translate(-9.77 -3.11)"/><path class="c" d="M313.47,37.87c0-2.6,1.33-4.23,3.33-4.23a3,3,0,0,1,2.23,1v-3.7h1.32v10.8h-1.2l0-1a3,3,0,0,1-2.39,1.23C314.61,41.9,313.47,40.27,313.47,37.87ZM319,39.53V35.87A2.6,2.6,0,0,0,317,34.75c-1.2,0-2.1,1.06-2.1,3.09s.75,2.92,2.08,2.92A2.54,2.54,0,0,0,319,39.53Z" transform="translate(-9.77 -3.11)"/><path class="c" d="M24.32,418.75l-2.59-1.93a7.29,7.29,0,0,0,1.81-4.32c0-1.07-.48-1.82-1.39-1.82-.71,0-1.16.42-1.95,2.7l-.52,1.45a4.57,4.57,0,0,1-4.34,3.43c-2.89,0-5.2-2.3-5.2-5.83a8.56,8.56,0,0,1,2.2-5.9l2.6,1.93a6.2,6.2,0,0,0-1.6,4c0,1.11.53,1.79,1.35,1.79.6,0,1.07-.33,1.71-2.12l.51-1.45c1.07-3,2.38-4,4.64-4,3,0,5.28,2.33,5.28,5.88A9.13,9.13,0,0,1,24.32,418.75Z" transform="translate(-9.77 -3.11)"/><path class="c" d="M14.74,401.31l1.46-.42a4.27,4.27,0,0,1-1.82-3.35c0-2.55,1.87-4.7,6.13-4.7,3.88,0,6.32,1.93,6.32,4.9a4.31,4.31,0,0,1-1.07,2.73h5.15v3.77H14.74Zm5.92-4.55c-2.51,0-3.26.78-3.26,1.78a2.55,2.55,0,0,0,1.18,1.93h4.28a2.12,2.12,0,0,0,1.08-1.82C23.94,397.81,23,396.76,20.66,396.76Z" transform="translate(-9.77 -3.11)"/><path class="c" d="M20.71,390.64c-3.84,0-6.33-2.26-6.33-6.15,0-3.61,2-5.54,5.93-5.54a6.05,6.05,0,0,1,1.35.15v7.63c1.49,0,2.22-.91,2.22-2.79a10,10,0,0,0-.91-3.6l2.42-1a10.12,10.12,0,0,1,1.44,5.21C26.83,388.51,24.57,390.64,20.71,390.64Zm-3.53-6.08a2.1,2.1,0,0,0,2.24,2.17v-4.21C17.91,382.56,17.18,383.18,17.18,384.56Z" transform="translate(-9.77 -3.11)"/><path class="c" d="M20.66,376.84c-3.64,0-6.28-2.22-6.28-6.06,0-3.37,1.82-5.15,4.93-5.19v3.13c-1.38.08-2,.71-2,1.88,0,1.42.95,2.29,3.28,2.29s3.35-1.05,3.35-2.8a6,6,0,0,0-1.18-3.35l2.33-1a7.86,7.86,0,0,1,1.78,5.17C26.83,374.35,24.72,376.84,20.66,376.84Z" transform="translate(-9.77 -3.11)"/><path class="c" d="M22.9,360.24H17.44v2.86H15.38L14.76,360l-3.48-.34v-3.19h3.46v-4.24h2.7v4.24h5.2c.73,0,1.08-.4,1.08-1.18v-3h2.75v4.5C26.47,359.17,25.3,360.24,22.9,360.24Z" transform="translate(-9.77 -3.11)"/><path class="c" d="M23.81,346.37H17.4v2.86H14.74v-5.81l1.57-.42a3.35,3.35,0,0,1-1.91-2.86V338H18v2.24a2.68,2.68,0,0,0,1.15,2.33h4.68v-3.73h2.66v10.36H23.81Z" transform="translate(-9.77 -3.11)"/><path class="c" d="M23.57,335.7c-2.24,0-3.75-1.85-3.75-5.71,0-.71,0-1.35.06-1.84h-1c-1.17,0-1.68.58-1.68,2.33a8.48,8.48,0,0,0,1,3.88l-2.35.85a10.79,10.79,0,0,1-1.42-5.3c0-3.64,1.64-5.53,4.46-5.53h7.63v3.06l-1.42.31a4.72,4.72,0,0,1,1.78,3.95C26.83,334.25,25.48,335.7,23.57,335.7Zm-1.16-7.55h-.62a13.94,13.94,0,0,0-.11,1.53c0,1.6.53,2.38,1.49,2.38s1.29-.65,1.29-1.73A2.09,2.09,0,0,0,22.41,328.15Z" transform="translate(-9.77 -3.11)"/><path class="c" d="M23.81,318H13.16v3.31H10.5v-7.08H23.81v-3.33h2.66v10.41H23.81Z" transform="translate(-9.77 -3.11)"/><path class="c" d="M23.15,290.58H13.83v2.78H10.5v-9.48h3.33v2.78h9.32v-2.78h3.32v9.48H23.15Z" transform="translate(-9.77 -3.11)"/><path class="c" d="M23.81,277.58H17.4v2.86H14.74v-5.81l1.57-.42a3.35,3.35,0,0,1-1.91-2.86v-2.11H18v2.24a2.68,2.68,0,0,0,1.15,2.33h4.68v-3.73h2.66v10.36H23.81Z" transform="translate(-9.77 -3.11)"/><path class="c" d="M23.81,263.82H17.4v2.86H14.74v-5.81l1.57-.42a3.34,3.34,0,0,1-1.91-2.86v-2.11H18v2.24a2.67,2.67,0,0,0,1.15,2.33h4.68v-3.73h2.66v10.36H23.81Z" transform="translate(-9.77 -3.11)"/><path class="c" d="M23.57,253.15c-2.24,0-3.75-1.84-3.75-5.7,0-.71,0-1.36.06-1.85h-1c-1.17,0-1.68.58-1.68,2.33a8.55,8.55,0,0,0,1,3.89l-2.35.84a10.76,10.76,0,0,1-1.42-5.3c0-3.64,1.64-5.53,4.46-5.53h7.63v3.07l-1.42.31a4.7,4.7,0,0,1,1.78,3.94C26.83,251.71,25.48,253.15,23.57,253.15Zm-1.16-7.55h-.62a13.94,13.94,0,0,0-.11,1.54c0,1.59.53,2.37,1.49,2.37s1.29-.64,1.29-1.73A2.09,2.09,0,0,0,22.41,245.6Z" transform="translate(-9.77 -3.11)"/><path class="c" d="M20.71,239.55c-4.09,0-6.33-2.13-6.33-4.86a4,4,0,0,1,1.09-2.78h-5v-3.77h16v3.31l-1.35.22a3.88,3.88,0,0,1,1.71,3.17C26.83,237.73,24.57,239.55,20.71,239.55Zm1.93-7.64H18.35a2.15,2.15,0,0,0-1.08,1.78c0,1.09,1.22,1.93,3.32,1.93,2.29,0,3.22-.67,3.22-1.8A2.6,2.6,0,0,0,22.64,231.91Z" transform="translate(-9.77 -3.11)"/><path class="c" d="M11.7,221.73c-1.18,0-1.8-.93-1.8-2.11s.62-2.11,1.8-2.11,1.75.87,1.75,2.11S12.9,221.73,11.7,221.73Zm11.8-.22H17.71v3.3h-3v-7.08H23.5v-3.32h3v10.4h-3Z" transform="translate(-9.77 -3.11)"/><path class="c" d="M23.57,211.88c-2.24,0-3.75-1.85-3.75-5.71,0-.71,0-1.35.06-1.84h-1c-1.17,0-1.68.58-1.68,2.33a8.48,8.48,0,0,0,1,3.88l-2.35.85a10.8,10.8,0,0,1-1.42-5.31c0-3.63,1.64-5.52,4.46-5.52h7.63v3.06l-1.42.31a4.72,4.72,0,0,1,1.78,3.95C26.83,210.43,25.48,211.88,23.57,211.88Zm-1.16-7.55h-.62a13.94,13.94,0,0,0-.11,1.53c0,1.6.53,2.38,1.49,2.38s1.29-.65,1.29-1.73A2.09,2.09,0,0,0,22.41,204.33Z" transform="translate(-9.77 -3.11)"/><path class="c" d="M14.74,194.81l1.39-.35a5.12,5.12,0,0,1-1.75-3.82c0-2.57,1.51-3.9,4.06-3.9h8v3.77H19.35c-1.33,0-2,.53-2,1.68a2.71,2.71,0,0,0,1.09,2h8v3.77H14.74Z" transform="translate(-9.77 -3.11)"/><path class="c" d="M20.66,184.23c-3.64,0-6.28-2.22-6.28-6.06,0-3.37,1.82-5.15,4.93-5.19v3.13c-1.38.08-2,.71-2,1.88,0,1.42.95,2.29,3.28,2.29s3.35-1.05,3.35-2.8a6,6,0,0,0-1.18-3.35l2.33-1a7.81,7.81,0,0,1,1.78,5.16C26.83,181.74,24.72,184.23,20.66,184.23Z" transform="translate(-9.77 -3.11)"/><path class="c" d="M20.71,170.51c-3.84,0-6.33-2.26-6.33-6.14,0-3.62,2-5.55,5.93-5.55a6,6,0,0,1,1.35.16v7.63c1.49-.05,2.22-.91,2.22-2.8a9.92,9.92,0,0,0-.91-3.59l2.42-1a10.19,10.19,0,0,1,1.44,5.22C26.83,168.38,24.57,170.51,20.71,170.51Zm-3.53-6.08a2.1,2.1,0,0,0,2.24,2.18v-4.22C17.91,162.44,17.18,163.06,17.18,164.43Z" transform="translate(-9.77 -3.11)"/><path class="c" d="M19.86,141.07a12.11,12.11,0,0,1-9.76-4.68l1.29-2.64a11.56,11.56,0,0,0,17,0l1.28,2.64A12.09,12.09,0,0,1,19.86,141.07Z" transform="translate(-9.77 -3.11)"/><path class="c" d="M10.5,126.2l10-.13V126l-6.19-1.22v-2.22l6.12-1.27v-.11L10.5,121v-3.33l16,.53V122l-7.74,1.64v.14l7.74,1.51V129l-16,.54Z" transform="translate(-9.77 -3.11)"/><path class="c" d="M10.08,105.63l18.43,5.3v3l-18.43-5.26Z" transform="translate(-9.77 -3.11)"/><path class="c" d="M14.74,99.5l1.17-.33A2.74,2.74,0,0,1,14.38,97a2.05,2.05,0,0,1,1.53-2.07,2.76,2.76,0,0,1-1.53-2.3c0-1.53,1.16-2.6,3.64-2.6h8.45v3.15H18.35c-.62,0-1,.18-1,.6s.2.58.62.87h8.45V97.4H18.35c-.62,0-1,.29-1,.71s.2.46.62.75h8.45V102H14.74Z" transform="translate(-9.77 -3.11)"/><path class="c" d="M14.33,85.22c-.75-.61-1.19-.89-1.74-.89a.86.86,0,0,0-.93,1,4.09,4.09,0,0,0,.95,2.16l-1.39.84a5.11,5.11,0,0,1-1.45-3.43c0-1.6.85-2.85,2.56-2.85a4,4,0,0,1,2.79,1.3l2.19,1.76V82h1.77V88h-1.3Z" transform="translate(-9.77 -3.11)"/><path class="c" d="M10.08,70.09,28.51,75.4v3L10.08,73.13Z" transform="translate(-9.77 -3.11)"/><path class="c" d="M14.74,63l1.39-.36a5.08,5.08,0,0,1-1.75-3.81c0-2.57,1.51-3.91,4.06-3.91h8v3.78H19.35c-1.33,0-2,.53-2,1.68a2.71,2.71,0,0,0,1.09,2h8V66.1H14.74Z" transform="translate(-9.77 -3.11)"/><path class="c" d="M14.74,50.21l1.17-.33a2.76,2.76,0,0,1-1.53-2.18,2,2,0,0,1,1.53-2.06,2.77,2.77,0,0,1-1.53-2.31c0-1.53,1.16-2.59,3.64-2.59h8.45v3.15H18.35c-.62,0-1,.17-1,.6s.2.57.62.86h8.45V48.1H18.35c-.62,0-1,.29-1,.71s.2.47.62.76h8.45v3.15H14.74Z" transform="translate(-9.77 -3.11)"/><path class="c" d="M10.1,33.88a12.08,12.08,0,0,1,9.76-4.68,12.06,12.06,0,0,1,9.76,4.68l-1.28,2.64a11.54,11.54,0,0,0-16.95,0Z" transform="translate(-9.77 -3.11)"/><path class="c" d="M332,474.79l.13,10h.11l1.22-6.19h2.22l1.26,6.12H337l.14-9.89h3.33l-.54,16h-3.75L334.54,483h-.13l-1.51,7.74h-3.73l-.53-16Z" transform="translate(-9.77 -3.11)"/><path class="c" d="M342.58,487.86c0-2.25,1.84-3.75,5.7-3.75.71,0,1.35,0,1.84.06v-1c0-1.18-.58-1.69-2.33-1.69a8.5,8.5,0,0,0-3.88,1l-.85-2.35a10.69,10.69,0,0,1,5.31-1.42c3.63,0,5.52,1.64,5.52,4.46v7.63h-3.06l-.31-1.42a4.72,4.72,0,0,1-3.95,1.78C344,491.12,342.58,489.76,342.58,487.86Zm7.54-1.16v-.62a11.85,11.85,0,0,0-1.53-.11c-1.6,0-2.38.53-2.38,1.49s.65,1.28,1.73,1.28A2.08,2.08,0,0,0,350.12,486.7Z" transform="translate(-9.77 -3.11)"/><path class="c" d="M359.53,479l2.39,8.07H362l2.38-8.07h3.72l-3.94,11.73h-4.38L355.69,479Z" transform="translate(-9.77 -3.11)"/><path class="c" d="M370.18,485c0-3.83,2.26-6.32,6.15-6.32,3.61,0,5.54,2,5.54,5.92a6.08,6.08,0,0,1-.15,1.36h-7.64c.05,1.48.91,2.22,2.8,2.22a9.92,9.92,0,0,0,3.59-.91l1,2.41a10.06,10.06,0,0,1-5.21,1.45C372.31,491.12,370.18,488.85,370.18,485Zm6.08-3.52a2.1,2.1,0,0,0-2.18,2.24h4.22C378.26,482.2,377.63,481.47,376.26,481.47Z" transform="translate(-9.77 -3.11)"/><path class="c" d="M387.75,488.1V477.45h-3.3v-2.66h7.08V488.1h3.32v2.66h-10.4V488.1Z" transform="translate(-9.77 -3.11)"/><path class="c" d="M397.7,485c0-3.83,2.26-6.32,6.14-6.32,3.62,0,5.55,2,5.55,5.92a6,6,0,0,1-.16,1.36H401.6c0,1.48.91,2.22,2.8,2.22a9.92,9.92,0,0,0,3.59-.91l1,2.41a10.1,10.1,0,0,1-5.22,1.45C399.83,491.12,397.7,488.85,397.7,485Zm6.07-3.52a2.1,2.1,0,0,0-2.17,2.24h4.22C405.77,482.2,405.15,481.47,403.77,481.47Z" transform="translate(-9.77 -3.11)"/><path class="c" d="M414.67,479l.36,1.39a5.08,5.08,0,0,1,3.81-1.75c2.58,0,3.91,1.51,3.91,4.06v8H419v-7.12c0-1.33-.53-1.95-1.68-1.95a2.69,2.69,0,0,0-2,1.08v8h-3.77V479Z" transform="translate(-9.77 -3.11)"/><path class="c" d="M430.89,492.45c1.29,0,1.86-.49,1.86-2.22v-1.09a3.76,3.76,0,0,1-3.12,1.62c-2.89,0-4.66-2.35-4.66-6s2-6.12,4.86-6.12a4.17,4.17,0,0,1,3.21,1.51l.23-1.15h3.1v10.84c0,4.24-1.84,5.33-5.75,5.33H426.9v-2.75Zm1.71-5.88v-3.93a2.15,2.15,0,0,0-1.78-1.09c-1.08,0-1.93,1.2-1.93,3.13,0,2.09.67,3.06,1.78,3.06A2.31,2.31,0,0,0,432.6,486.57Z" transform="translate(-9.77 -3.11)"/><path class="c" d="M441.85,487.19v-5.46H439v-2.06l3.09-.62.33-3.49h3.19V479h4.24v2.7H445.6v5.19c0,.74.4,1.09,1.18,1.09h3v2.75h-4.51C442.92,490.76,441.85,489.59,441.85,487.19Z" transform="translate(-9.77 -3.11)"/><path class="c" d="M456.59,474.79v5.32a5,5,0,0,1,3.55-1.44c2.5,0,3.88,1.44,3.88,4.06v8h-3.77v-7.12c0-1.29-.49-1.95-1.69-1.95a2.71,2.71,0,0,0-2,1.08v8h-3.77v-16Z" transform="translate(-9.77 -3.11)"/><path class="c" d="M482.17,484.15a12.09,12.09,0,0,1,4.68-9.76l2.64,1.28a11.56,11.56,0,0,0,0,16.95l-2.64,1.29A12.09,12.09,0,0,1,482.17,484.15Z" transform="translate(-9.77 -3.11)"/><path class="c" d="M497.22,479l.35,1.39a5.12,5.12,0,0,1,3.82-1.75c2.57,0,3.9,1.51,3.9,4.06v8h-3.77v-7.12c0-1.33-.53-1.95-1.68-1.95a2.69,2.69,0,0,0-2,1.08v8h-3.77V479Z" transform="translate(-9.77 -3.11)"/><path class="c" d="M510,479l.33,1.17a2.76,2.76,0,0,1,2.17-1.53,2,2,0,0,1,2.07,1.53,2.76,2.76,0,0,1,2.3-1.53c1.54,0,2.6,1.15,2.6,3.64v8.45H516.3v-8.12c0-.62-.18-.95-.6-.95s-.58.2-.86.62v8.45h-2.76v-8.12c0-.62-.28-.95-.71-.95s-.46.2-.75.62v8.45h-3.15V479Z" transform="translate(-9.77 -3.11)"/><path class="c" d="M526.31,474.39a12.52,12.52,0,0,1,0,19.52l-2.64-1.29a11.56,11.56,0,0,0,0-16.95Z" transform="translate(-9.77 -3.11)"/><path class="c" d="M511.49,70l1.93-2.6a7.3,7.3,0,0,0,4.33,1.82c1.07,0,1.82-.49,1.82-1.4,0-.71-.42-1.15-2.71-2l-1.44-.51c-2.24-.8-3.44-2.4-3.44-4.35,0-2.88,2.31-5.19,5.84-5.19a8.56,8.56,0,0,1,5.9,2.2l-1.93,2.59a6.22,6.22,0,0,0-3.95-1.6c-1.11,0-1.8.54-1.8,1.36,0,.6.33,1.06,2.13,1.71l1.44.51c3,1.06,4,2.37,4,4.63,0,3-2.33,5.28-5.88,5.28A9.2,9.2,0,0,1,511.49,70Z" transform="translate(-9.77 -3.11)"/><path class="c" d="M525.52,66.26c0-4,2.17-6.23,6-6.23s6,2.24,6,6.21-2.18,6.23-6,6.23S525.52,70.23,525.52,66.26Zm8.12,0c0-2.13-.76-3.33-2.09-3.33s-2.08,1.2-2.08,3.33.75,3.35,2.08,3.35S533.64,68.37,533.64,66.24Z" transform="translate(-9.77 -3.11)"/><path class="c" d="M543.42,69.46V58.81h-3.3V56.14h7.08V69.46h3.32v2.66h-10.4V69.46Z" transform="translate(-9.77 -3.11)"/><path class="c" d="M553.28,69.21c0-2.24,1.84-3.75,5.7-3.75.71,0,1.35,0,1.84.07v-1c0-1.18-.58-1.69-2.33-1.69a8.56,8.56,0,0,0-3.88,1l-.84-2.35a10.63,10.63,0,0,1,5.3-1.42c3.64,0,5.52,1.64,5.52,4.46v7.63h-3.06l-.31-1.42a4.74,4.74,0,0,1-4,1.77C554.72,72.47,553.28,71.12,553.28,69.21Zm7.54-1.15v-.62a11.85,11.85,0,0,0-1.53-.11c-1.6,0-2.37.53-2.37,1.48s.64,1.29,1.73,1.29A2.08,2.08,0,0,0,560.82,68.06Z" transform="translate(-9.77 -3.11)"/><path class="c" d="M570.12,69.46V63h-2.86V60.38h5.81l.42,1.58a3.34,3.34,0,0,1,2.86-1.91h2.11v3.57h-2.24a2.71,2.71,0,0,0-2.33,1.15v4.69h3.73v2.66H567.26V69.46Z" transform="translate(-9.77 -3.11)"/><path class="c" d="M594,70l1.93-2.6a7.3,7.3,0,0,0,4.33,1.82c1.06,0,1.82-.49,1.82-1.4,0-.71-.43-1.15-2.71-2L598,65.33c-2.24-.8-3.44-2.4-3.44-4.35,0-2.88,2.31-5.19,5.83-5.19a8.56,8.56,0,0,1,5.91,2.2l-1.93,2.59a6.22,6.22,0,0,0-4-1.6c-1.11,0-1.8.54-1.8,1.36,0,.6.33,1.06,2.13,1.71l1.44.51c3,1.06,4,2.37,4,4.63,0,3-2.33,5.28-5.88,5.28A9.2,9.2,0,0,1,594,70Z" transform="translate(-9.77 -3.11)"/><path class="c" d="M611.48,60.38l.42,1.47A4.24,4.24,0,0,1,615.25,60c2.55,0,4.71,1.86,4.71,6.12,0,3.88-1.93,6.32-4.91,6.32a4.35,4.35,0,0,1-2.73-1.06v5.15h-3.77V60.38ZM616,66.31c0-2.51-.78-3.27-1.77-3.27a2.6,2.6,0,0,0-1.94,1.18V68.5a2.12,2.12,0,0,0,1.82,1.09C615,69.59,616,68.64,616,66.31Z" transform="translate(-9.77 -3.11)"/><path class="c" d="M622.16,66.35c0-3.84,2.26-6.32,6.14-6.32,3.62,0,5.55,2,5.55,5.92a6,6,0,0,1-.16,1.35h-7.63c0,1.49.91,2.22,2.8,2.22a9.72,9.72,0,0,0,3.59-.91l1,2.42a10.09,10.09,0,0,1-5.22,1.44C624.29,72.47,622.16,70.21,622.16,66.35Zm6.07-3.53a2.1,2.1,0,0,0-2.17,2.24h4.22C630.23,63.56,629.61,62.82,628.23,62.82Z" transform="translate(-9.77 -3.11)"/><path class="c" d="M636,66.31C636,62.67,638.18,60,642,60c3.37,0,5.14,1.82,5.19,4.92h-3.13c-.09-1.37-.71-2-1.89-2-1.42,0-2.28,1-2.28,3.28s1,3.36,2.79,3.36a6.08,6.08,0,0,0,3.35-1.18l1,2.33a7.89,7.89,0,0,1-5.17,1.77C638.44,72.47,636,70.37,636,66.31Z" transform="translate(-9.77 -3.11)"/><path class="c" d="M652.56,68.55V63.09h-2.87V61l3.09-.63.33-3.48h3.2v3.46h4.23v2.71h-4.23v5.19c0,.73.39,1.09,1.17,1.09h3v2.75H656C653.62,72.12,652.56,70.94,652.56,68.55Z" transform="translate(-9.77 -3.11)"/><path class="c" d="M666.42,69.46V63h-2.86V60.38h5.81L669.8,62a3.32,3.32,0,0,1,2.86-1.91h2.11v3.57h-2.24a2.7,2.7,0,0,0-2.33,1.15v4.69h3.72v2.66H663.56V69.46Z" transform="translate(-9.77 -3.11)"/><path class="c" d="M677.45,68.5V60.38h3.78v7.3c0,1.16.51,1.78,1.48,1.78a2.43,2.43,0,0,0,1.89-1v-8h3.77V72.12h-3.13l-.35-1.4a5,5,0,0,1-3.69,1.75C678.76,72.47,677.45,70.9,677.45,68.5Z" transform="translate(-9.77 -3.11)"/><path class="c" d="M693.16,60.38l.34,1.18A2.73,2.73,0,0,1,695.67,60a2,2,0,0,1,2.06,1.53A2.77,2.77,0,0,1,700,60c1.53,0,2.6,1.15,2.6,3.64v8.45h-3.15V64c0-.62-.18-1-.6-1s-.58.2-.87.63v8.45h-2.75V64c0-.62-.29-1-.71-1s-.46.2-.75.63v8.45h-3.15V60.38Z" transform="translate(-9.77 -3.11)"/><path class="c" d="M82.49,413.42c0-5.53,2-8.15,5.37-8.15s5.33,2.62,5.33,8.06c0,5.59-2,8.19-5.39,8.19S82.49,418.92,82.49,413.42Zm2.36,3.68,5.23-9.05A2.63,2.63,0,0,0,87.84,407c-2.24,0-3.39,2-3.39,6.44A14,14,0,0,0,84.85,417.1Zm6.39-3.73a13.68,13.68,0,0,0-.43-3.79l-5.25,9.1a2.67,2.67,0,0,0,2.28,1.15C90.08,419.83,91.24,417.83,91.24,413.37Z" transform="translate(-9.77 -3.11)"/><path class="c" d="M57.74,333.74c0-5.53,1.95-8.15,5.37-8.15s5.32,2.62,5.32,8.06c0,5.59-2,8.18-5.39,8.18S57.74,339.24,57.74,333.74Zm2.35,3.68,5.23-9.05a2.61,2.61,0,0,0-2.24-1.09c-2.24,0-3.39,2-3.39,6.43A14.09,14.09,0,0,0,60.09,337.42Zm6.39-3.73a13.67,13.67,0,0,0-.42-3.79L60.8,339a2.65,2.65,0,0,0,2.28,1.16C65.32,340.15,66.48,338.15,66.48,333.69Z" transform="translate(-9.77 -3.11)"/><path class="c" d="M75.49,340.57a1.34,1.34,0,0,1,2.68,0,1.25,1.25,0,0,1-1.35,1.28A1.22,1.22,0,0,1,75.49,340.57Z" transform="translate(-9.77 -3.11)"/><path class="c" d="M85.72,340.37l.73-1.42a7.5,7.5,0,0,0,3.91,1.2c2.15,0,3.68-1.09,3.68-3.57,0-1.91-1-3.33-3-3.33a4.15,4.15,0,0,0-3.26,1.22l-.09,1.06H86.1l.75-9.69H95.1L95,327.61H88.38l-.49,5.26a4.94,4.94,0,0,1,3.49-1.13c3.08,0,4.57,1.82,4.57,4.75,0,3.57-2.27,5.34-5.42,5.34A8.4,8.4,0,0,1,85.72,340.37Z" transform="translate(-9.77 -3.11)"/><path class="c" d="M62.6,178V165.87l-4.62,2-.35-1.48,5.43-2.67H64.5V178h4.29v1.51H58.18V178Z" transform="translate(-9.77 -3.11)"/><path class="c" d="M75.49,178.48a1.34,1.34,0,0,1,2.68,0,1.25,1.25,0,0,1-1.35,1.29A1.22,1.22,0,0,1,75.49,178.48Z" transform="translate(-9.77 -3.11)"/><path class="c" d="M85.72,178.27l.73-1.42a7.41,7.41,0,0,0,3.91,1.2c2.15,0,3.68-1.08,3.68-3.57,0-1.91-1-3.33-3-3.33a4.19,4.19,0,0,0-3.26,1.22l-.09,1.07H86.1l.75-9.7H95.1L95,165.52H88.38l-.49,5.26a4.94,4.94,0,0,1,3.49-1.13c3.08,0,4.57,1.81,4.57,4.74,0,3.57-2.27,5.35-5.42,5.35A8.41,8.41,0,0,1,85.72,178.27Z" transform="translate(-9.77 -3.11)"/><path class="c" d="M64.46,10.59A5,5,0,0,0,65.9,7.33c0-1.49-1-2.45-2.9-2.45a6.51,6.51,0,0,0-4.24,1.78L57.83,5.4a7.74,7.74,0,0,1,5.43-2.29c2.69,0,4.66,1.42,4.66,4a6,6,0,0,1-1.8,4.28l-4.94,6.06h7.18v1.66H58.6V17.8Z" transform="translate(-9.77 -3.11)"/><path class="c" d="M75.49,18.09a1.34,1.34,0,0,1,2.68,0,1.25,1.25,0,0,1-1.35,1.29A1.22,1.22,0,0,1,75.49,18.09Z" transform="translate(-9.77 -3.11)"/><path class="c" d="M85.72,17.89l.73-1.42a7.48,7.48,0,0,0,3.91,1.19c2.15,0,3.68-1.08,3.68-3.57,0-1.91-1-3.33-3-3.33A4.19,4.19,0,0,0,87.76,12l-.09,1.07H86.1l.75-9.7H95.1L95,5.13H88.38l-.49,5.26a4.94,4.94,0,0,1,3.49-1.13C94.46,9.26,96,11.08,96,14c0,3.58-2.27,5.35-5.42,5.35A8.47,8.47,0,0,1,85.72,17.89Z" transform="translate(-9.77 -3.11)"/><path class="c" d="M90.22,90.46a5,5,0,0,0,1.44-3.26c0-1.49-1-2.44-2.91-2.44a6.55,6.55,0,0,0-4.23,1.77l-.94-1.26A7.76,7.76,0,0,1,89,83c2.68,0,4.66,1.42,4.66,4a6.09,6.09,0,0,1-1.8,4.29l-4.95,6.05h7.19V99H84.36V97.67Z" transform="translate(-9.77 -3.11)"/><path class="c" d="M90.35,260.74V248.65l-4.61,2-.36-1.49,5.44-2.66h1.44v14.22h4.28v1.51H85.94v-1.51Z" transform="translate(-9.77 -3.11)"/><path class="c" d="M168.25,442.61l.73-1.42a7.43,7.43,0,0,0,3.91,1.2c2.15,0,3.68-1.08,3.68-3.57,0-1.91-.95-3.33-3-3.33a4.23,4.23,0,0,0-3.27,1.22l-.08,1.07h-1.58l.75-9.7h8.26l-.11,1.78h-6.61l-.49,5.26a4.91,4.91,0,0,1,3.48-1.14c3.08,0,4.57,1.82,4.57,4.75,0,3.57-2.26,5.35-5.41,5.35A8.44,8.44,0,0,1,168.25,442.61Z" transform="translate(-9.77 -3.11)"/><path class="c" d="M181.54,436c0-5.52,2-8.14,5.37-8.14s5.33,2.62,5.33,8.05c0,5.59-2,8.19-5.39,8.19S181.54,441.48,181.54,436Zm2.36,3.68,5.23-9.05a2.63,2.63,0,0,0-2.24-1.09c-2.24,0-3.39,2.05-3.39,6.44A14,14,0,0,0,183.9,439.66Zm6.39-3.72a13.71,13.71,0,0,0-.43-3.8l-5.25,9.1a2.64,2.64,0,0,0,2.28,1.15C189.13,442.39,190.29,440.4,190.29,435.94Z" transform="translate(-9.77 -3.11)"/><path class="c" d="M195.3,436c0-5.52,1.95-8.14,5.37-8.14s5.33,2.62,5.33,8.05c0,5.59-2,8.19-5.4,8.19S195.3,441.48,195.3,436Zm2.35,3.68,5.24-9.05a2.64,2.64,0,0,0-2.24-1.09c-2.24,0-3.4,2.05-3.4,6.44A14.38,14.38,0,0,0,197.65,439.66Zm6.39-3.72a13.75,13.75,0,0,0-.42-3.8l-5.26,9.1a2.67,2.67,0,0,0,2.29,1.15C202.89,442.39,204,440.4,204,435.94Z" transform="translate(-9.77 -3.11)"/><path class="c" d="M243.76,429.86h-7.65v-1.78H246v1.31l-6.06,14.42h-2.08v-.22Z" transform="translate(-9.77 -3.11)"/><path class="c" d="M249.62,442.61l.73-1.42a7.43,7.43,0,0,0,3.91,1.2c2.15,0,3.68-1.08,3.68-3.57,0-1.91-.95-3.33-3-3.33a4.2,4.2,0,0,0-3.26,1.22l-.09,1.07H250l.75-9.7H259l-.11,1.78h-6.62l-.48,5.26a4.91,4.91,0,0,1,3.48-1.14c3.08,0,4.57,1.82,4.57,4.75,0,3.57-2.26,5.35-5.41,5.35A8.41,8.41,0,0,1,249.62,442.61Z" transform="translate(-9.77 -3.11)"/><path class="c" d="M262.91,436c0-5.52,2-8.14,5.37-8.14s5.33,2.62,5.33,8.05c0,5.59-2,8.19-5.39,8.19S262.91,441.48,262.91,436Zm2.36,3.68,5.23-9.05a2.64,2.64,0,0,0-2.24-1.09c-2.24,0-3.39,2.05-3.39,6.44A14,14,0,0,0,265.27,439.66Zm6.38-3.72a13.75,13.75,0,0,0-.42-3.8l-5.25,9.1a2.64,2.64,0,0,0,2.28,1.15C270.5,442.39,271.65,440.4,271.65,435.94Z" transform="translate(-9.77 -3.11)"/><path class="c" d="M299.23,442.3V430.21l-4.62,2-.35-1.48,5.43-2.67h1.44V442.3h4.29v1.51H294.81V442.3Z" transform="translate(-9.77 -3.11)"/><path class="c" d="M308.12,436c0-5.52,2-8.14,5.37-8.14s5.33,2.62,5.33,8.05c0,5.59-1.95,8.19-5.39,8.19S308.12,441.48,308.12,436Zm2.36,3.68,5.23-9.05a2.63,2.63,0,0,0-2.24-1.09c-2.24,0-3.39,2.05-3.39,6.44A14,14,0,0,0,310.48,439.66Zm6.39-3.72a13.71,13.71,0,0,0-.43-3.8l-5.25,9.1a2.64,2.64,0,0,0,2.28,1.15C315.71,442.39,316.87,440.4,316.87,435.94Z" transform="translate(-9.77 -3.11)"/><path class="c" d="M321.88,436c0-5.52,2-8.14,5.37-8.14s5.33,2.62,5.33,8.05c0,5.59-2,8.19-5.39,8.19S321.88,441.48,321.88,436Zm2.35,3.68,5.24-9.05a2.64,2.64,0,0,0-2.24-1.09c-2.24,0-3.39,2.05-3.39,6.44A14.44,14.44,0,0,0,324.23,439.66Zm6.39-3.72a13.75,13.75,0,0,0-.42-3.8l-5.26,9.1a2.67,2.67,0,0,0,2.29,1.15C329.47,442.39,330.62,440.4,330.62,435.94Z" transform="translate(-9.77 -3.11)"/><path class="c" d="M335.64,436c0-5.52,1.95-8.14,5.37-8.14s5.32,2.62,5.32,8.05c0,5.59-1.95,8.19-5.39,8.19S335.64,441.48,335.64,436Zm2.35,3.68,5.24-9.05a2.66,2.66,0,0,0-2.24-1.09c-2.24,0-3.4,2.05-3.4,6.44A14.38,14.38,0,0,0,338,439.66Zm6.39-3.72a13.75,13.75,0,0,0-.42-3.8l-5.26,9.1a2.66,2.66,0,0,0,2.29,1.15C343.23,442.39,344.38,440.4,344.38,435.94Z" transform="translate(-9.77 -3.11)"/><path class="c" d="M369.33,442.3V430.21l-4.61,2-.36-1.48,5.44-2.67h1.44V442.3h4.28v1.51h-10.6V442.3Z" transform="translate(-9.77 -3.11)"/><path class="c" d="M385,435.32a5,5,0,0,0,1.44-3.27c0-1.48-1-2.44-2.91-2.44a6.53,6.53,0,0,0-4.24,1.78l-.93-1.27a7.75,7.75,0,0,1,5.44-2.28c2.68,0,4.66,1.42,4.66,4a6.07,6.07,0,0,1-1.8,4.28l-4.95,6.06h7.19v1.66H379.1v-1.28Z" transform="translate(-9.77 -3.11)"/><path class="c" d="M392.46,442.61l.73-1.42a7.4,7.4,0,0,0,3.9,1.2c2.16,0,3.69-1.08,3.69-3.57,0-1.91-1-3.33-3-3.33a4.19,4.19,0,0,0-3.26,1.22l-.09,1.07h-1.58l.76-9.7h8.25l-.11,1.78h-6.61l-.49,5.26a4.93,4.93,0,0,1,3.48-1.14c3.09,0,4.57,1.82,4.57,4.75,0,3.57-2.26,5.35-5.41,5.35A8.38,8.38,0,0,1,392.46,442.61Z" transform="translate(-9.77 -3.11)"/><path class="c" d="M405.75,436c0-5.52,1.95-8.14,5.37-8.14s5.32,2.62,5.32,8.05c0,5.59-1.95,8.19-5.39,8.19S405.75,441.48,405.75,436Zm2.35,3.68,5.24-9.05a2.66,2.66,0,0,0-2.24-1.09c-2.25,0-3.4,2.05-3.4,6.44A14,14,0,0,0,408.1,439.66Zm6.39-3.72a13.75,13.75,0,0,0-.42-3.8l-5.26,9.1a2.65,2.65,0,0,0,2.29,1.15C413.34,442.39,414.49,440.4,414.49,435.94Z" transform="translate(-9.77 -3.11)"/><path class="c" d="M435.88,442.3V430.21l-4.61,2-.36-1.48,5.44-2.67h1.44V442.3h4.28v1.51h-10.6V442.3Z" transform="translate(-9.77 -3.11)"/><path class="c" d="M445.25,442.61l.73-1.42a7.41,7.41,0,0,0,3.91,1.2c2.15,0,3.68-1.08,3.68-3.57,0-1.91-1-3.33-3-3.33a4.19,4.19,0,0,0-3.26,1.22l-.09,1.07h-1.57l.75-9.7h8.25l-.11,1.78h-6.61l-.49,5.26a4.94,4.94,0,0,1,3.49-1.14c3.08,0,4.57,1.82,4.57,4.75,0,3.57-2.27,5.35-5.42,5.35A8.41,8.41,0,0,1,445.25,442.61Z" transform="translate(-9.77 -3.11)"/><path class="c" d="M458.54,436c0-5.52,1.95-8.14,5.37-8.14s5.32,2.62,5.32,8.05c0,5.59-2,8.19-5.39,8.19S458.54,441.48,458.54,436Zm2.35,3.68,5.24-9.05a2.66,2.66,0,0,0-2.24-1.09c-2.24,0-3.4,2.05-3.4,6.44A14.38,14.38,0,0,0,460.89,439.66Zm6.39-3.72a13.75,13.75,0,0,0-.42-3.8l-5.26,9.1a2.66,2.66,0,0,0,2.29,1.15C466.13,442.39,467.28,440.4,467.28,435.94Z" transform="translate(-9.77 -3.11)"/><path class="c" d="M472.3,436c0-5.52,1.95-8.14,5.37-8.14s5.32,2.62,5.32,8.05c0,5.59-1.95,8.19-5.39,8.19S472.3,441.48,472.3,436Zm2.35,3.68,5.24-9.05a2.66,2.66,0,0,0-2.24-1.09c-2.25,0-3.4,2.05-3.4,6.44A14,14,0,0,0,474.65,439.66Zm6.39-3.72a13.75,13.75,0,0,0-.42-3.8l-5.26,9.1a2.65,2.65,0,0,0,2.29,1.15C479.89,442.39,481,440.4,481,435.94Z" transform="translate(-9.77 -3.11)"/><path class="c" d="M501.81,442.3V430.21l-4.61,2-.36-1.48,5.44-2.67h1.44V442.3H508v1.51H497.4V442.3Z" transform="translate(-9.77 -3.11)"/><path class="c" d="M519.08,429.86h-7.66v-1.78h9.85v1.31l-6,14.42h-2.09v-.22Z" transform="translate(-9.77 -3.11)"/><path class="c" d="M524.94,442.61l.73-1.42a7.4,7.4,0,0,0,3.9,1.2c2.15,0,3.69-1.08,3.69-3.57,0-1.91-1-3.33-3-3.33a4.19,4.19,0,0,0-3.26,1.22l-.09,1.07h-1.58l.76-9.7h8.25l-.11,1.78H527.6l-.49,5.26a4.91,4.91,0,0,1,3.48-1.14c3.09,0,4.57,1.82,4.57,4.75,0,3.57-2.26,5.35-5.41,5.35A8.38,8.38,0,0,1,524.94,442.61Z" transform="translate(-9.77 -3.11)"/><path class="c" d="M538.23,436c0-5.52,1.95-8.14,5.37-8.14s5.32,2.62,5.32,8.05c0,5.59-1.95,8.19-5.39,8.19S538.23,441.48,538.23,436Zm2.35,3.68,5.23-9.05a2.63,2.63,0,0,0-2.24-1.09c-2.24,0-3.39,2.05-3.39,6.44A14,14,0,0,0,540.58,439.66Zm6.39-3.72a13.75,13.75,0,0,0-.42-3.8l-5.26,9.1a2.64,2.64,0,0,0,2.28,1.15C545.81,442.39,547,440.4,547,435.94Z" transform="translate(-9.77 -3.11)"/><path class="c" d="M572.23,435.32a5,5,0,0,0,1.44-3.27c0-1.48-1-2.44-2.9-2.44a6.51,6.51,0,0,0-4.24,1.78l-.93-1.27a7.73,7.73,0,0,1,5.43-2.28c2.69,0,4.66,1.42,4.66,4a6.06,6.06,0,0,1-1.79,4.28L569,442.15h7.19v1.66h-9.77v-1.28Z" transform="translate(-9.77 -3.11)"/><path class="c" d="M579.27,436c0-5.52,2-8.14,5.37-8.14s5.32,2.62,5.32,8.05c0,5.59-2,8.19-5.39,8.19S579.27,441.48,579.27,436Zm2.35,3.68,5.23-9.05a2.63,2.63,0,0,0-2.24-1.09c-2.24,0-3.39,2.05-3.39,6.44A14,14,0,0,0,581.62,439.66Zm6.39-3.72a14.15,14.15,0,0,0-.42-3.8l-5.26,9.1a2.64,2.64,0,0,0,2.28,1.15C586.85,442.39,588,440.4,588,435.94Z" transform="translate(-9.77 -3.11)"/><path class="c" d="M593,436c0-5.52,2-8.14,5.37-8.14s5.33,2.62,5.33,8.05c0,5.59-2,8.19-5.39,8.19S593,441.48,593,436Zm2.36,3.68,5.23-9.05a2.63,2.63,0,0,0-2.24-1.09c-2.24,0-3.39,2.05-3.39,6.44A14,14,0,0,0,595.38,439.66Zm6.39-3.72a13.71,13.71,0,0,0-.43-3.8l-5.25,9.1a2.64,2.64,0,0,0,2.28,1.15C600.61,442.39,601.77,440.4,601.77,435.94Z" transform="translate(-9.77 -3.11)"/><path class="c" d="M606.78,436c0-5.52,2-8.14,5.37-8.14s5.33,2.62,5.33,8.05c0,5.59-2,8.19-5.39,8.19S606.78,441.48,606.78,436Zm2.35,3.68,5.24-9.05a2.64,2.64,0,0,0-2.24-1.09c-2.24,0-3.4,2.05-3.4,6.44A14.38,14.38,0,0,0,609.13,439.66Zm6.39-3.72a13.75,13.75,0,0,0-.42-3.8l-5.26,9.1a2.67,2.67,0,0,0,2.29,1.15C614.37,442.39,615.52,440.4,615.52,435.94Z" transform="translate(-9.77 -3.11)"/><path class="c" d="M638.82,435.32a5,5,0,0,0,1.45-3.27c0-1.48-1-2.44-2.91-2.44a6.53,6.53,0,0,0-4.24,1.78l-.93-1.27a7.75,7.75,0,0,1,5.44-2.28c2.68,0,4.66,1.42,4.66,4a6.07,6.07,0,0,1-1.8,4.28l-5,6.06h7.19v1.66H633v-1.28Z" transform="translate(-9.77 -3.11)"/><path class="c" d="M652.58,435.32a5,5,0,0,0,1.44-3.27c0-1.48-1-2.44-2.9-2.44a6.53,6.53,0,0,0-4.24,1.78l-.93-1.27a7.75,7.75,0,0,1,5.43-2.28c2.69,0,4.66,1.42,4.66,4a6.06,6.06,0,0,1-1.79,4.28l-5,6.06h7.19v1.66h-9.76v-1.28Z" transform="translate(-9.77 -3.11)"/><path class="c" d="M660.08,442.61l.74-1.42a7.37,7.37,0,0,0,3.9,1.2c2.15,0,3.68-1.08,3.68-3.57,0-1.91-.95-3.33-3-3.33a4.23,4.23,0,0,0-3.27,1.22l-.08,1.07h-1.58l.76-9.7h8.25l-.11,1.78h-6.61l-.49,5.26a4.91,4.91,0,0,1,3.48-1.14c3.09,0,4.57,1.82,4.57,4.75,0,3.57-2.26,5.35-5.41,5.35A8.44,8.44,0,0,1,660.08,442.61Z" transform="translate(-9.77 -3.11)"/><path class="c" d="M673.38,436c0-5.52,2-8.14,5.36-8.14s5.33,2.62,5.33,8.05c0,5.59-2,8.19-5.39,8.19S673.38,441.48,673.38,436Zm2.35,3.68,5.23-9.05a2.63,2.63,0,0,0-2.24-1.09c-2.24,0-3.39,2.05-3.39,6.44A14,14,0,0,0,675.73,439.66Zm6.39-3.72a13.71,13.71,0,0,0-.43-3.8l-5.25,9.1a2.64,2.64,0,0,0,2.28,1.15C681,442.39,682.12,440.4,682.12,435.94Z" transform="translate(-9.77 -3.11)"/><path class="c" d="M706.53,435.32a5,5,0,0,0,1.45-3.27c0-1.48-1-2.44-2.91-2.44a6.53,6.53,0,0,0-4.24,1.78l-.93-1.27a7.75,7.75,0,0,1,5.44-2.28c2.68,0,4.66,1.42,4.66,4a6.07,6.07,0,0,1-1.8,4.28l-5,6.06h7.19v1.66h-9.76v-1.28Z" transform="translate(-9.77 -3.11)"/><path class="c" d="M714,442.61l.73-1.42a7.4,7.4,0,0,0,3.9,1.2c2.16,0,3.69-1.08,3.69-3.57,0-1.91-1-3.33-3-3.33a4.19,4.19,0,0,0-3.26,1.22l-.09,1.07h-1.58l.76-9.7h8.25l-.11,1.78H716.7l-.49,5.26a4.93,4.93,0,0,1,3.48-1.14c3.09,0,4.57,1.82,4.57,4.75,0,3.57-2.26,5.35-5.41,5.35A8.38,8.38,0,0,1,714,442.61Z" transform="translate(-9.77 -3.11)"/><path class="c" d="M727.33,436c0-5.52,1.95-8.14,5.37-8.14s5.32,2.62,5.32,8.05c0,5.59-1.95,8.19-5.39,8.19S727.33,441.48,727.33,436Zm2.35,3.68,5.24-9.05a2.66,2.66,0,0,0-2.24-1.09c-2.25,0-3.4,2.05-3.4,6.44A14,14,0,0,0,729.68,439.66Zm6.39-3.72a13.75,13.75,0,0,0-.42-3.8l-5.26,9.1a2.65,2.65,0,0,0,2.29,1.15C734.92,442.39,736.07,440.4,736.07,435.94Z" transform="translate(-9.77 -3.11)"/><path class="c" d="M741.09,436c0-5.52,1.95-8.14,5.36-8.14s5.33,2.62,5.33,8.05c0,5.59-1.95,8.19-5.39,8.19S741.09,441.48,741.09,436Zm2.35,3.68,5.23-9.05a2.63,2.63,0,0,0-2.24-1.09c-2.24,0-3.39,2.05-3.39,6.44A14,14,0,0,0,743.44,439.66Zm6.39-3.72a14.15,14.15,0,0,0-.42-3.8l-5.26,9.1a2.64,2.64,0,0,0,2.28,1.15C748.67,442.39,749.83,440.4,749.83,435.94Z" transform="translate(-9.77 -3.11)"/><path class="c" d="M763.42,440.13v-1.49l4.71-10.56H770l-4.64,10.43h5.3V431.1h1.89v7.41h2.15v1.62h-2.15v3.68h-1.89v-3.68Z" transform="translate(-9.77 -3.11)"/><path class="c" d="M777.2,436c0-5.52,2-8.14,5.37-8.14s5.33,2.62,5.33,8.05c0,5.59-2,8.19-5.39,8.19S777.2,441.48,777.2,436Zm2.36,3.68,5.23-9.05a2.64,2.64,0,0,0-2.24-1.09c-2.24,0-3.39,2.05-3.39,6.44A14,14,0,0,0,779.56,439.66Zm6.38-3.72a13.75,13.75,0,0,0-.42-3.8l-5.25,9.1a2.64,2.64,0,0,0,2.28,1.15C784.79,442.39,785.94,440.4,785.94,435.94Z" transform="translate(-9.77 -3.11)"/><path class="c" d="M791,436c0-5.52,1.95-8.14,5.37-8.14s5.32,2.62,5.32,8.05c0,5.59-1.95,8.19-5.39,8.19S791,441.48,791,436Zm2.35,3.68,5.24-9.05a2.66,2.66,0,0,0-2.24-1.09c-2.24,0-3.4,2.05-3.4,6.44A14.38,14.38,0,0,0,793.31,439.66Zm6.39-3.72a13.75,13.75,0,0,0-.42-3.8l-5.26,9.1a2.66,2.66,0,0,0,2.29,1.15C798.55,442.39,799.7,440.4,799.7,435.94Z" transform="translate(-9.77 -3.11)"/><path class="c" d="M804.72,436c0-5.52,1.95-8.14,5.37-8.14s5.32,2.62,5.32,8.05c0,5.59-1.95,8.19-5.39,8.19S804.72,441.48,804.72,436Zm2.35,3.68,5.24-9.05a2.66,2.66,0,0,0-2.24-1.09c-2.25,0-3.4,2.05-3.4,6.44A14,14,0,0,0,807.07,439.66Zm6.39-3.72a13.75,13.75,0,0,0-.42-3.8l-5.26,9.1a2.66,2.66,0,0,0,2.29,1.15C812.31,442.39,813.46,440.4,813.46,435.94Z" transform="translate(-9.77 -3.11)"/><path class="b" d="M102.42,402.1s26.51-101.63,35.11-161.81c3.46-24.14,13-69.38,25.46-90.41,43-72.7,85.6,49.39,102.14,74.6,36.13,55,77.9,113.91,140.83,140.1a172.29,172.29,0,0,0,25,8.24c109.62,27,358.52,36.78,358.52,36.78" transform="translate(-9.77 -3.11)"/><line class="d" x1="147.84" y1="7.06" x2="147.84" y2="418.14"/><line class="d" x1="226.34" y1="7.06" x2="226.34" y2="418.14"/><path class="a" d="M302.76,222.24l2.7,6.12h0v-6.12h2.58V233h-2.3l-2.7-6.1h0V233h-2.58v-10.8Z" transform="translate(-9.77 -3.11)"/><path class="a" d="M309.7,229.14a3.9,3.9,0,0,1,4.16-4.27c2.44,0,3.75,1.36,3.75,4a4.22,4.22,0,0,1-.11.92h-5.15c0,1,.61,1.5,1.88,1.5a6.54,6.54,0,0,0,2.43-.62l.66,1.64a6.84,6.84,0,0,1-3.52,1C311.15,233.28,309.7,231.75,309.7,229.14Zm4.11-2.38a1.41,1.41,0,0,0-1.46,1.51h2.84C315.16,227.25,314.74,226.76,313.81,226.76Z" transform="translate(-9.77 -3.11)"/><path class="a" d="M318.94,231.08c0-1.52,1.25-2.54,3.86-2.54.48,0,.91,0,1.24.05v-.71c0-.79-.39-1.14-1.57-1.14a5.81,5.81,0,0,0-2.63.68l-.57-1.59a7.28,7.28,0,0,1,3.59-1c2.46,0,3.73,1.11,3.73,3V233h-2.07l-.21-1a3.19,3.19,0,0,1-2.66,1.2C319.92,233.28,318.94,232.37,318.94,231.08Zm5.1-.78v-.42a7.49,7.49,0,0,0-1-.08c-1.08,0-1.61.36-1.61,1s.44.87,1.17.87A1.4,1.4,0,0,0,324,230.3Z" transform="translate(-9.77 -3.11)"/><path class="a" d="M330.33,231.24v-4.33H328.4v-1.8h3.92l.29,1.06a2.26,2.26,0,0,1,1.93-1.29H336v2.42h-1.52a1.8,1.8,0,0,0-1.57.78v3.16h2.52V233h-7v-1.8Z" transform="translate(-9.77 -3.11)"/><path class="a" d="M349.63,231v-3.91H347.4v-2h4.78V231h2.25v2h-7v-2Zm-.15-8c0-.79.63-1.21,1.43-1.21s1.42.42,1.42,1.21-.58,1.19-1.42,1.19S349.48,223.86,349.48,223.05Z" transform="translate(-9.77 -3.11)"/><path class="a" d="M358.38,225.11l.24.94a3.44,3.44,0,0,1,2.58-1.18,2.43,2.43,0,0,1,2.64,2.74V233h-2.55v-4.81c0-.9-.36-1.32-1.14-1.32a1.82,1.82,0,0,0-1.34.73V233h-2.54v-7.93Z" transform="translate(-9.77 -3.11)"/><path class="a" d="M367.78,231.24v-4.3H366v-1.49l1.78-.31v-.33a2.31,2.31,0,0,1,2.52-2.57h2.64v1.86H371.1c-.48,0-.77.33-.77.9v.11h2.37v1.83h-2.37v4.3h2.55V233h-7v-1.8Z" transform="translate(-9.77 -3.11)"/><path class="a" d="M376.83,231.24v-4.33h-1.94v-1.8h3.93l.29,1.06a2.26,2.26,0,0,1,1.93-1.29h1.43v2.42H381a1.8,1.8,0,0,0-1.57.78v3.16h2.52V233h-7v-1.8Z" transform="translate(-9.77 -3.11)"/><path class="a" d="M384,231.08c0-1.52,1.25-2.54,3.86-2.54.48,0,.91,0,1.24.05v-.71c0-.79-.39-1.14-1.57-1.14a5.81,5.81,0,0,0-2.63.68l-.57-1.59a7.25,7.25,0,0,1,3.59-1c2.46,0,3.73,1.11,3.73,3V233h-2.07l-.21-1a3.2,3.2,0,0,1-2.67,1.2C385,233.28,384,232.37,384,231.08Zm5.1-.78v-.42a7.49,7.49,0,0,0-1-.08c-1.08,0-1.61.36-1.61,1s.44.87,1.17.87A1.4,1.4,0,0,0,389.14,230.3Z" transform="translate(-9.77 -3.11)"/><path class="a" d="M395.43,231.24v-4.33h-1.94v-1.8h3.93l.29,1.06a2.26,2.26,0,0,1,1.93-1.29h1.43v2.42h-1.52a1.8,1.8,0,0,0-1.57.78v3.16h2.52V233h-7v-1.8Z" transform="translate(-9.77 -3.11)"/><path class="a" d="M402.7,229.14a3.9,3.9,0,0,1,4.16-4.27c2.44,0,3.75,1.36,3.75,4a4.22,4.22,0,0,1-.11.92h-5.16c0,1,.62,1.5,1.89,1.5a6.54,6.54,0,0,0,2.43-.62l.66,1.64a6.87,6.87,0,0,1-3.52,1C404.14,233.28,402.7,231.75,402.7,229.14Zm4.11-2.38a1.42,1.42,0,0,0-1.47,1.51h2.85C408.16,227.25,407.74,226.76,406.81,226.76Z" transform="translate(-9.77 -3.11)"/><path class="a" d="M411.84,229.14c0-2.76,1.44-4.27,3.28-4.27a2.73,2.73,0,0,1,1.88.73v-3.36h2.55V233h-2.24l-.15-.91a2.62,2.62,0,0,1-2.14,1.15C413.07,233.28,411.84,231.75,411.84,229.14Zm5.16,1.31v-2.9a1.46,1.46,0,0,0-1.2-.73c-.74,0-1.31.82-1.31,2.25s.45,2.17,1.22,2.17A1.77,1.77,0,0,0,417,230.45Z" transform="translate(-9.77 -3.11)"/><path class="a" d="M338.91,245.12a8.19,8.19,0,0,1,3.16-6.6l1.79.88a7.78,7.78,0,0,0,0,11.45l-1.79.87A8.16,8.16,0,0,1,338.91,245.12Z" transform="translate(-9.77 -3.11)"/><path class="a" d="M349.26,238.79l2.7,6.12h0v-6.12h2.58v10.8h-2.3l-2.7-6.1h0v6.1H347v-10.8Z" transform="translate(-9.77 -3.11)"/><path class="a" d="M358.74,247.34V241h-1.88v-2.25h6.41V241H361.4v6.3h1.87v2.25h-6.41v-2.25Z" transform="translate(-9.77 -3.11)"/><path class="a" d="M369.21,238.79c2.71,0,4.08,1.4,4.08,3.51a3.15,3.15,0,0,1-1.59,3l2.13,4.3h-2.94L369.24,246H368.1v3.63h-2.66v-10.8Zm1.35,3.77c0-.93-.44-1.43-1.49-1.43h-1V244h.9C370.08,244,370.56,243.49,370.56,242.56Z" transform="translate(-9.77 -3.11)"/><path class="a" d="M378,238.52a8.46,8.46,0,0,1,0,13.2l-1.78-.87a7.81,7.81,0,0,0,0-11.45Z" transform="translate(-9.77 -3.11)"/><path class="c" d="M555,265.45l2,7h.06l2-7h1.51l.26,10.8h-1.25l-.13-8.47h-.06l-1.88,6.36h-1l-1.89-6.36h0l-.14,8.47h-1.23l.24-10.8Z" transform="translate(-9.77 -3.11)"/><path class="c" d="M565.87,275.2v-5.77h-2.64v-1.05h3.94v6.82h2.63v1.05h-6.57V275.2Zm-.3-9.07a.85.85,0,0,1,.94-.84.84.84,0,1,1,0,1.68A.86.86,0,0,1,565.57,266.13Z" transform="translate(-9.77 -3.11)"/><path class="c" d="M571.91,272.41c0-2.59,1.34-4.23,3.33-4.23a3,3,0,0,1,2.24,1v-3.71h1.32v10.8h-1.2l-.05-1a3,3,0,0,1-2.38,1.23C573.05,276.45,571.91,274.81,571.91,272.41Zm5.57,1.67v-3.66a2.6,2.6,0,0,0-2.09-1.13c-1.2,0-2.1,1.07-2.1,3.09s.75,2.93,2.09,2.93A2.59,2.59,0,0,0,577.48,274.08Z" transform="translate(-9.77 -3.11)"/><path class="c" d="M593.77,275.2v-5.77h-2.64v-1.05h3.94v6.82h2.62v1.05h-6.56V275.2Zm-.3-9.07a.85.85,0,0,1,.94-.84.84.84,0,1,1,0,1.68A.86.86,0,0,1,593.47,266.13Z" transform="translate(-9.77 -3.11)"/><path class="c" d="M601.35,268.38l.07,1.14a3.57,3.57,0,0,1,2.73-1.34c1.9,0,2.59,1.2,2.59,2.93v5.14h-1.32v-4.9c0-1.37-.52-2-1.69-2a3.11,3.11,0,0,0-2.22,1.27v5.67h-1.32v-7.87Z" transform="translate(-9.77 -3.11)"/><path class="c" d="M611.83,275.26v-5.85h-2.25v-.82l2.25-.21v-.84a1.92,1.92,0,0,1,2.17-2.09h2v1.08h-1.83a.94.94,0,0,0-1.06,1.07v.78h2.62v1h-2.62v5.85H616v1H609.5v-1Z" transform="translate(-9.77 -3.11)"/><path class="c" d="M620.8,275.26v-5.89h-2.18v-1h3.29l.07,1.26a2.29,2.29,0,0,1,2.07-1.46h1.46v1.25H624a2.13,2.13,0,0,0-1.9,1.45v4.38H625v1h-6.42v-1Z" transform="translate(-9.77 -3.11)"/><path class="c" d="M627.86,274.29c0-1.46,1.11-2.63,3.62-2.63a12,12,0,0,1,1.79.11V271c0-1.24-.62-1.75-2-1.77a4.57,4.57,0,0,0-2.61,1l-.45-.88a5,5,0,0,1,3.18-1.13c2,0,3.2,1,3.2,2.78v5.29h-1.11l-.11-1.36a3.07,3.07,0,0,1-2.89,1.56C628.82,276.45,627.86,275.52,627.86,274.29Zm5.41-1.17v-.36a11.75,11.75,0,0,0-1.72-.11c-1.7,0-2.38.62-2.38,1.53s.6,1.32,1.63,1.32A2.38,2.38,0,0,0,633.27,273.12Z" transform="translate(-9.77 -3.11)"/><path class="c" d="M639.4,275.26v-5.89h-2.18v-1h3.29l.07,1.26a2.29,2.29,0,0,1,2.07-1.46h1.45v1.25h-1.48a2.11,2.11,0,0,0-1.9,1.45v4.38h2.92v1h-6.42v-1Z" transform="translate(-9.77 -3.11)"/><path class="c" d="M646.4,272.37c0-2.49,1.56-4.19,3.78-4.19s3.39,1.32,3.39,3.84a5.27,5.27,0,0,1-.05.71h-5.71a2.4,2.4,0,0,0,2.59,2.61,4.2,4.2,0,0,0,2.5-.86l.46.89a5,5,0,0,1-3.12,1.08C648,276.45,646.4,275.05,646.4,272.37Zm3.75-3.14a2.43,2.43,0,0,0-2.36,2.42h4.49C652.25,270.24,651.62,269.23,650.15,269.23Z" transform="translate(-9.77 -3.11)"/><path class="c" d="M655.61,272.41c0-2.59,1.33-4.23,3.33-4.23a3,3,0,0,1,2.24,1v-3.71h1.32v10.8h-1.2l0-1a3,3,0,0,1-2.39,1.23C656.75,276.45,655.61,274.81,655.61,272.41Zm5.57,1.67v-3.66a2.6,2.6,0,0,0-2.09-1.13c-1.2,0-2.1,1.07-2.1,3.09s.75,2.93,2.09,2.93A2.59,2.59,0,0,0,661.18,274.08Z" transform="translate(-9.77 -3.11)"/><path class="c" d="M670,352v1.2h-5v3.62h4.38V358h-4.38v4.83h-1.38V352Z" transform="translate(-9.77 -3.11)"/><path class="c" d="M672.36,360.86c0-1.46,1.11-2.63,3.62-2.63a12.24,12.24,0,0,1,1.8.11v-.77c0-1.24-.63-1.75-2-1.77a4.57,4.57,0,0,0-2.61,1l-.45-.88a5.05,5.05,0,0,1,3.18-1.13c2,0,3.2,1,3.2,2.78v5.29H678l-.11-1.36A3.07,3.07,0,0,1,675,363C673.32,363,672.36,362.08,672.36,360.86Zm5.42-1.17v-.36a12,12,0,0,0-1.73-.11c-1.69,0-2.38.61-2.38,1.53s.6,1.32,1.63,1.32A2.38,2.38,0,0,0,677.78,359.69Z" transform="translate(-9.77 -3.11)"/><path class="c" d="M683.9,361.83v-5.89h-2.18v-1H685l.07,1.26a2.29,2.29,0,0,1,2.07-1.46h1.46V356h-1.49a2.13,2.13,0,0,0-1.9,1.45v4.38h2.92v1h-6.42v-1Z" transform="translate(-9.77 -3.11)"/><path class="c" d="M703.37,361.77V356h-2.64V355h3.94v6.82h2.63v1.05h-6.57v-1.05Zm-.3-9.07a.85.85,0,0,1,.94-.84.84.84,0,1,1,0,1.68A.86.86,0,0,1,703.07,352.7Z" transform="translate(-9.77 -3.11)"/><path class="c" d="M711,355l.06,1.14a3.57,3.57,0,0,1,2.73-1.34c1.9,0,2.59,1.2,2.59,2.93v5.14H715v-4.9c0-1.37-.52-2-1.69-2a3.11,3.11,0,0,0-2.22,1.27v5.67h-1.32V355Z" transform="translate(-9.77 -3.11)"/><path class="c" d="M721.43,361.83V356h-2.25v-.82l2.25-.21v-.84A1.92,1.92,0,0,1,723.6,352h2v1.08h-1.83a.94.94,0,0,0-1.06,1.07V355h2.62v1h-2.62v5.85h2.8v1H719.1v-1Z" transform="translate(-9.77 -3.11)"/><path class="c" d="M730.4,361.83v-5.89h-2.18v-1h3.29l.07,1.26a2.29,2.29,0,0,1,2.07-1.46h1.46V356h-1.49a2.13,2.13,0,0,0-1.9,1.45v4.38h2.92v1h-6.42v-1Z" transform="translate(-9.77 -3.11)"/><path class="c" d="M737.46,360.86c0-1.46,1.11-2.63,3.62-2.63a12.24,12.24,0,0,1,1.8.11v-.77c0-1.24-.63-1.75-2-1.77a4.57,4.57,0,0,0-2.61,1l-.45-.88a5.05,5.05,0,0,1,3.18-1.13c2,0,3.2,1,3.2,2.78v5.29h-1.11l-.11-1.36a3.07,3.07,0,0,1-2.89,1.56C738.42,363,737.46,362.08,737.46,360.86Zm5.42-1.17v-.36a12,12,0,0,0-1.73-.11c-1.69,0-2.38.61-2.38,1.53s.6,1.32,1.63,1.32A2.38,2.38,0,0,0,742.88,359.69Z" transform="translate(-9.77 -3.11)"/><path class="c" d="M749,361.83v-5.89h-2.18v-1h3.29l.07,1.26a2.29,2.29,0,0,1,2.07-1.46h1.46V356h-1.49a2.13,2.13,0,0,0-1.9,1.45v4.38h2.92v1h-6.42v-1Z" transform="translate(-9.77 -3.11)"/><path class="c" d="M756,358.94c0-2.49,1.56-4.19,3.78-4.19s3.39,1.32,3.39,3.84a5.33,5.33,0,0,1,0,.71h-5.72a2.4,2.4,0,0,0,2.6,2.61,4.2,4.2,0,0,0,2.49-.86l.46.89a5,5,0,0,1-3.12,1.08C757.56,363,756,361.62,756,358.94Zm3.75-3.14a2.42,2.42,0,0,0-2.35,2.42h4.48C761.85,356.81,761.22,355.8,759.75,355.8Z" transform="translate(-9.77 -3.11)"/><path class="c" d="M765.21,359c0-2.59,1.34-4.23,3.33-4.23a3,3,0,0,1,2.24,1V352h1.32v10.8h-1.2l0-1a3,3,0,0,1-2.38,1.23C766.35,363,765.21,361.38,765.21,359Zm5.57,1.67V357a2.6,2.6,0,0,0-2.09-1.13c-1.2,0-2.1,1.07-2.1,3.09s.75,2.93,2.09,2.93A2.59,2.59,0,0,0,770.78,360.65Z" transform="translate(-9.77 -3.11)"/><path class="c" d="M697.19,374.83a8.21,8.21,0,0,1,3.09-6.45l.93.49a7.85,7.85,0,0,0,0,11.9l-.93.51A8.27,8.27,0,0,1,697.19,374.83Z" transform="translate(-9.77 -3.11)"/><path class="c" d="M711.89,368.57v1.2h-5v3.62h4.38v1.15h-4.38v4.83h-1.38v-10.8Z" transform="translate(-9.77 -3.11)"/><path class="c" d="M717,378.22v-8.49h-2.28v-1.16h6v1.16H718.4v8.49h2.29v1.15h-6v-1.15Z" transform="translate(-9.77 -3.11)"/><path class="c" d="M726.92,368.57c2.56,0,3.73,1.28,3.73,3.21a3,3,0,0,1-1.77,3l2.37,4.63h-1.51l-2.18-4.3a5.54,5.54,0,0,1-1,.07h-1.59v4.23h-1.38v-10.8Zm2.32,3.3c0-1.36-.7-2.07-2.37-2.07h-2v4.26h1.85C728.46,374.06,729.24,373.28,729.24,371.87Z" transform="translate(-9.77 -3.11)"/><path class="c" d="M735.14,368.38a8.28,8.28,0,0,1,0,12.9l-.93-.51a7.85,7.85,0,0,0,0-11.9Z" transform="translate(-9.77 -3.11)"/><line class="b" x1="226.52" y1="259.14" x2="439.92" y2="259.14"/><rect class="c" x="225.52" y="252.64" width="2" height="13"/><rect class="c" x="438.92" y="252.64" width="2" height="13"/><line class="b" x1="442.13" y1="289.99" x2="739.53" y2="289.99"/><rect class="c" x="441.13" y="283.49" width="2" height="13"/><rect class="c" x="738.53" y="283.49" width="2" height="13"/><line class="b" x1="740.77" y1="329.17" x2="777.49" y2="329.17"/><rect class="c" x="739.77" y="322.67" width="2" height="13"/><polygon class="c" points="770.87 337.35 769.5 335.88 776.73 329.17 769.5 322.45 770.87 320.99 779.66 329.17 770.87 337.35"/><circle class="e" cx="725.75" cy="62.35" r="12.64"/><path class="e" d="M752.21,67.93l4.29-2.47L752.21,63a2.79,2.79,0,0,1-1.27-1.66,2.75,2.75,0,0,1,.27-2.08L753.69,55h-5A2.73,2.73,0,0,1,746,52.24v-5l-4.29,2.48a2.72,2.72,0,0,1-2.07.27A2.7,2.7,0,0,1,738,48.77l-2.47-4.29L733,48.77A2.7,2.7,0,0,1,731.38,50a2.72,2.72,0,0,1-2.07-.27L725,47.29v5A2.73,2.73,0,0,1,722.29,55h-4.94l2.47,4.29a2.67,2.67,0,0,1,.27,2.07A2.75,2.75,0,0,1,718.82,63l-4.28,2.47,4.28,2.47a2.75,2.75,0,0,1,1.27,1.66,2.7,2.7,0,0,1-.27,2.08L717.35,76h4.94A2.73,2.73,0,0,1,725,78.68v4.95l4.28-2.47a2.65,2.65,0,0,1,1.36-.37,2.82,2.82,0,0,1,.71.09A2.68,2.68,0,0,1,733,82.16l2.48,4.28L738,82.16a2.71,2.71,0,0,1,3.73-1L746,83.63V78.68A2.73,2.73,0,0,1,748.74,76h5l-2.48-4.28a2.75,2.75,0,0,1-.27-2.08A2.79,2.79,0,0,1,752.21,67.93Z" transform="translate(-9.77 -3.11)"/></svg>