<svg xmlns="http://www.w3.org/2000/svg" xmlns:xlink="http://www.w3.org/1999/xlink" width="1000.61" height="486.03" viewBox="0 0 1000.61 486.03"><defs><style>.a,.d,.g,.k{fill:none;}.b{fill:#6d1a10;}.c{fill:#c67a2a;}.d,.g,.k{stroke:#231f20;stroke-miterlimit:10;stroke-width:2px;}.d,.g{stroke-linecap:round;}.e{fill:#231f20;}.f{fill:#fff;}.g{stroke-dasharray:12;}.h{clip-path:url(#a);}.i{clip-path:url(#b);}.j{clip-path:url(#c);}.l{clip-path:url(#e);}</style><clipPath id="a" transform="translate(-9.77)"><rect class="a" x="953.3" y="69.97" width="5.83" height="1.08"/></clipPath><clipPath id="b" transform="translate(-9.77)"><rect class="a" x="328.73" y="-1043.03" width="1400" height="3248"/></clipPath><clipPath id="c" transform="translate(-9.77)"><rect class="a" x="953.3" y="72.12" width="5.83" height="1.08"/></clipPath><clipPath id="e" transform="translate(-9.77)"><polygon class="a" points="956.61 74.28 954.63 74.28 955.33 75.36 956.61 75.36 957.09 75.36 957.78 74.28 956.61 74.28"/></clipPath></defs><path class="b" d="M225,390.79h25.9l-1-128.41s-6.68,25.66-7.79,31.53-9.74,61.24-10.34,64.47c-.5,2.68-2.49,13.87-6.57,20.44Z" transform="translate(-9.77)"/><path class="c" d="M250.86,391.68l-1-129.3s26.62-113.71,66.2-107.67c0,0,13.94-2.67,37,4.68,21.09,6.73,49.82,22.19,82.42,48.84V391.68Z" transform="translate(-9.77)"/><rect class="d" x="73.1" y="1" width="926.51" height="389.79"/><path class="e" d="M468.62,465.62l.13,10h.11l1.22-6.19h2.22l1.27,6.12h.11l.13-9.89h3.33l-.54,16h-3.74l-1.65-7.74h-.13l-1.51,7.74h-3.73l-.53-16Z" transform="translate(-9.77)"/><path class="e" d="M479.25,478.68c0-2.24,1.84-3.75,5.7-3.75.71,0,1.35,0,1.84.07v-1c0-1.18-.58-1.69-2.33-1.69a8.56,8.56,0,0,0-3.88,1l-.84-2.35a10.63,10.63,0,0,1,5.3-1.42c3.64,0,5.52,1.64,5.52,4.46v7.63H487.5l-.31-1.42a4.75,4.75,0,0,1-3.95,1.78C480.69,482,479.25,480.59,479.25,478.68Zm7.54-1.15v-.62a11.85,11.85,0,0,0-1.53-.11c-1.6,0-2.37.53-2.37,1.48s.64,1.29,1.73,1.29A2.08,2.08,0,0,0,486.79,477.53Z" transform="translate(-9.77)"/><path class="e" d="M496.2,469.85l2.4,8.08h.08l2.38-8.08h3.73l-4,11.74h-4.37l-4.11-11.74Z" transform="translate(-9.77)"/><path class="e" d="M506.85,475.82c0-3.84,2.26-6.32,6.15-6.32,3.61,0,5.54,2,5.54,5.92a6.22,6.22,0,0,1-.15,1.36h-7.63c0,1.48.91,2.21,2.79,2.21a9.81,9.81,0,0,0,3.6-.91l1,2.42a10,10,0,0,1-5.21,1.45C509,482,506.85,479.68,506.85,475.82Zm6.08-3.53a2.1,2.1,0,0,0-2.17,2.24H515C514.93,473,514.31,472.29,512.93,472.29Z" transform="translate(-9.77)"/><path class="e" d="M524.43,478.93V468.28h-3.31v-2.66h7.08v13.31h3.32v2.66h-10.4v-2.66Z" transform="translate(-9.77)"/><path class="e" d="M534.37,475.82c0-3.84,2.26-6.32,6.14-6.32,3.62,0,5.55,2,5.55,5.92a6.19,6.19,0,0,1-.16,1.36h-7.63c.05,1.48.91,2.21,2.8,2.21a9.72,9.72,0,0,0,3.59-.91l1,2.42a10.1,10.1,0,0,1-5.22,1.45C536.5,482,534.37,479.68,534.37,475.82Zm6.08-3.53a2.1,2.1,0,0,0-2.18,2.24h4.22C542.44,473,541.82,472.29,540.45,472.29Z" transform="translate(-9.77)"/><path class="e" d="M551.34,469.85l.36,1.4a5.08,5.08,0,0,1,3.81-1.75c2.58,0,3.91,1.51,3.91,4.06v8h-3.77v-7.12c0-1.33-.54-2-1.69-2a2.66,2.66,0,0,0-2,1.08v8h-3.78V469.85Z" transform="translate(-9.77)"/><path class="e" d="M567.56,483.28c1.29,0,1.87-.49,1.87-2.22V480a3.79,3.79,0,0,1-3.13,1.62c-2.89,0-4.66-2.35-4.66-6s2-6.12,4.86-6.12a4.17,4.17,0,0,1,3.21,1.51l.23-1.16H573V480.7c0,4.24-1.84,5.33-5.74,5.33h-3.73v-2.75Zm1.71-5.88v-3.93a2.15,2.15,0,0,0-1.77-1.09c-1.09,0-1.93,1.2-1.93,3.13,0,2.09.66,3.06,1.77,3.06A2.31,2.31,0,0,0,569.27,477.4Z" transform="translate(-9.77)"/><path class="e" d="M578.53,478v-5.46h-2.87V470.5l3.09-.62.33-3.49h3.19v3.46h4.24v2.71h-4.24v5.19c0,.73.4,1.09,1.18,1.09h3v2.75H582C579.59,481.59,578.53,480.41,578.53,478Z" transform="translate(-9.77)"/><path class="e" d="M593.26,465.62v5.32a5,5,0,0,1,3.55-1.44c2.51,0,3.88,1.44,3.88,4.06v8h-3.77v-7.12c0-1.29-.49-2-1.69-2a2.71,2.71,0,0,0-2,1.08v8h-3.77v-16Z" transform="translate(-9.77)"/><path class="e" d="M618.84,475a12.07,12.07,0,0,1,4.69-9.76l2.64,1.28a11.54,11.54,0,0,0,0,16.95l-2.64,1.29A12.07,12.07,0,0,1,618.84,475Z" transform="translate(-9.77)"/><path class="e" d="M633.89,469.85l.35,1.4a5.12,5.12,0,0,1,3.82-1.75c2.57,0,3.91,1.51,3.91,4.06v8h-3.78v-7.12c0-1.33-.53-2-1.68-2a2.69,2.69,0,0,0-2,1.08v8h-3.77V469.85Z" transform="translate(-9.77)"/><path class="e" d="M646.65,469.85,647,471a2.76,2.76,0,0,1,2.18-1.53,2,2,0,0,1,2.06,1.53,2.77,2.77,0,0,1,2.31-1.53c1.53,0,2.59,1.15,2.59,3.64v8.45H653v-8.12c0-.62-.18-1-.6-1s-.57.2-.86.62v8.45h-2.75v-8.12c0-.62-.29-1-.71-1s-.47.2-.76.62v8.45h-3.15V469.85Z" transform="translate(-9.77)"/><path class="e" d="M663,465.22a12.52,12.52,0,0,1,0,19.52l-2.64-1.29a11.54,11.54,0,0,0,0-16.95Z" transform="translate(-9.77)"/><path class="c" d="M285.39,101.2l2.7,6.12h0V101.2h2.58V112h-2.3l-2.7-6.1h0V112h-2.58V101.2Z" transform="translate(-9.77)"/><path class="c" d="M292.33,108.1a3.9,3.9,0,0,1,4.16-4.27c2.44,0,3.75,1.36,3.75,4a4.22,4.22,0,0,1-.11.92H295c0,1,.62,1.5,1.89,1.5a6.54,6.54,0,0,0,2.43-.62l.66,1.64a6.87,6.87,0,0,1-3.52,1C293.77,112.24,292.33,110.71,292.33,108.1Zm4.11-2.38a1.42,1.42,0,0,0-1.47,1.51h2.85C297.79,106.21,297.37,105.72,296.44,105.72Z" transform="translate(-9.77)"/><path class="c" d="M301.57,110c0-1.52,1.25-2.54,3.86-2.54.48,0,.91,0,1.24,0v-.71c0-.79-.39-1.14-1.57-1.14a5.81,5.81,0,0,0-2.63.68l-.57-1.59a7.25,7.25,0,0,1,3.59-1c2.46,0,3.73,1.11,3.73,3V112h-2.07l-.21-1a3.2,3.2,0,0,1-2.67,1.2C302.55,112.24,301.57,111.33,301.57,110Zm5.1-.78v-.42a7.49,7.49,0,0,0-1-.08c-1.08,0-1.61.36-1.61,1s.44.87,1.17.87A1.4,1.4,0,0,0,306.67,109.26Z" transform="translate(-9.77)"/><path class="c" d="M313,110.2v-4.33H311v-1.8H315l.29,1.06a2.26,2.26,0,0,1,1.93-1.29h1.43v2.42h-1.52a1.8,1.8,0,0,0-1.57.78v3.16H318V112h-7v-1.8Z" transform="translate(-9.77)"/><path class="c" d="M332.26,110v-3.91H330v-2h4.78V110h2.25v2h-7v-2Zm-.15-8c0-.79.63-1.21,1.43-1.21s1.42.42,1.42,1.21-.58,1.19-1.42,1.19S332.11,102.82,332.11,102Z" transform="translate(-9.77)"/><path class="c" d="M341,104.07l.24.94a3.44,3.44,0,0,1,2.58-1.18,2.43,2.43,0,0,1,2.64,2.74V112h-2.55v-4.81c0-.9-.36-1.32-1.14-1.32a1.82,1.82,0,0,0-1.34.73V112h-2.55v-7.93Z" transform="translate(-9.77)"/><path class="c" d="M350.41,110.2v-4.3h-1.78v-1.49l1.78-.31v-.33a2.31,2.31,0,0,1,2.52-2.57h2.64v1.86h-1.84c-.48,0-.77.33-.77.9v.11h2.37v1.83H353v4.3h2.55V112h-7v-1.8Z" transform="translate(-9.77)"/><path class="c" d="M359.46,110.2v-4.33h-1.94v-1.8h3.93l.29,1.06a2.26,2.26,0,0,1,1.93-1.29h1.43v2.42h-1.52A1.8,1.8,0,0,0,362,107v3.16h2.52V112h-7v-1.8Z" transform="translate(-9.77)"/><path class="c" d="M366.67,110c0-1.52,1.25-2.54,3.86-2.54.48,0,.91,0,1.24,0v-.71c0-.79-.39-1.14-1.57-1.14a5.81,5.81,0,0,0-2.63.68l-.57-1.59a7.25,7.25,0,0,1,3.59-1c2.46,0,3.73,1.11,3.73,3V112h-2.07l-.21-1a3.2,3.2,0,0,1-2.67,1.2C367.65,112.24,366.67,111.33,366.67,110Zm5.1-.78v-.42a7.49,7.49,0,0,0-1-.08c-1.08,0-1.61.36-1.61,1s.44.87,1.17.87A1.4,1.4,0,0,0,371.77,109.26Z" transform="translate(-9.77)"/><path class="c" d="M378.06,110.2v-4.33h-1.94v-1.8h3.93l.29,1.06a2.26,2.26,0,0,1,1.93-1.29h1.43v2.42h-1.52a1.8,1.8,0,0,0-1.57.78v3.16h2.52V112h-7v-1.8Z" transform="translate(-9.77)"/><path class="c" d="M385.33,108.1a3.9,3.9,0,0,1,4.16-4.27c2.44,0,3.75,1.36,3.75,4a4.22,4.22,0,0,1-.11.92H388c0,1,.62,1.5,1.89,1.5a6.54,6.54,0,0,0,2.43-.62l.66,1.64a6.87,6.87,0,0,1-3.52,1C386.77,112.24,385.33,110.71,385.33,108.1Zm4.11-2.38a1.42,1.42,0,0,0-1.47,1.51h2.85C390.79,106.21,390.37,105.72,389.44,105.72Z" transform="translate(-9.77)"/><path class="c" d="M394.47,108.1c0-2.76,1.44-4.27,3.28-4.27a2.73,2.73,0,0,1,1.88.73V101.2h2.55V112h-2.24l-.15-.91a2.62,2.62,0,0,1-2.14,1.15C395.7,112.24,394.47,110.71,394.47,108.1Zm5.16,1.31v-2.9a1.46,1.46,0,0,0-1.2-.73c-.74,0-1.31.82-1.31,2.25s.45,2.17,1.22,2.17A1.77,1.77,0,0,0,399.63,109.41Z" transform="translate(-9.77)"/><path class="c" d="M321.54,124.09a8.16,8.16,0,0,1,3.16-6.6l1.79.87a7.8,7.8,0,0,0,0,11.46l-1.79.87A8.19,8.19,0,0,1,321.54,124.09Z" transform="translate(-9.77)"/><path class="c" d="M331.89,117.76l2.7,6.12h0v-6.12h2.58v10.8h-2.3l-2.7-6.11h0v6.11h-2.58v-10.8Z" transform="translate(-9.77)"/><path class="c" d="M341.37,126.31V120h-1.88v-2.25h6.41V120H344v6.3h1.88v2.25h-6.41v-2.25Z" transform="translate(-9.77)"/><path class="c" d="M351.84,117.76c2.71,0,4.08,1.39,4.08,3.51a3.14,3.14,0,0,1-1.59,3l2.13,4.31h-2.94l-1.65-3.65c-.21,0-.42,0-.66,0h-.48v3.63h-2.66v-10.8Zm1.35,3.76c0-.93-.44-1.42-1.49-1.42h-1V123h.9C352.71,123,353.19,122.45,353.19,121.52Z" transform="translate(-9.77)"/><path class="c" d="M360.67,117.49a8.46,8.46,0,0,1,0,13.2l-1.78-.87a7.82,7.82,0,0,0,0-11.46Z" transform="translate(-9.77)"/><path class="e" d="M559.43,217.43l2,7h.06l2-7h1.51l.26,10.8h-1.25l-.13-8.48h-.06L562,226.11h-1l-1.89-6.36h0l-.14,8.48h-1.23l.24-10.8Z" transform="translate(-9.77)"/><path class="e" d="M570.34,227.18V221.4H567.7v-1.05h3.94v6.83h2.63v1H567.7v-1Zm-.3-9.08a.86.86,0,0,1,.94-.84.84.84,0,0,1,.93.84.82.82,0,0,1-.93.84A.85.85,0,0,1,570,218.1Z" transform="translate(-9.77)"/><path class="e" d="M576.38,224.39c0-2.6,1.34-4.23,3.33-4.23a3.05,3.05,0,0,1,2.24,1v-3.7h1.32v10.8h-1.2l-.05-1a3,3,0,0,1-2.38,1.23C577.52,228.42,576.38,226.79,576.38,224.39Zm5.57,1.66v-3.66a2.62,2.62,0,0,0-2.09-1.12c-1.2,0-2.1,1.06-2.1,3.09s.75,2.92,2.09,2.92A2.56,2.56,0,0,0,582,226.05Z" transform="translate(-9.77)"/><path class="e" d="M598.24,227.18V221.4H595.6v-1.05h3.94v6.83h2.63v1H595.6v-1Zm-.3-9.08a.86.86,0,0,1,.94-.84.84.84,0,0,1,.93.84.82.82,0,0,1-.93.84A.85.85,0,0,1,597.94,218.1Z" transform="translate(-9.77)"/><path class="e" d="M605.83,220.35l.06,1.14a3.56,3.56,0,0,1,2.73-1.33c1.9,0,2.59,1.2,2.59,2.92v5.15h-1.32v-4.91c0-1.36-.52-2-1.69-2a3.08,3.08,0,0,0-2.22,1.28v5.67h-1.32v-7.88Z" transform="translate(-9.77)"/><path class="e" d="M616.3,227.24v-5.85h-2.25v-.83l2.25-.21v-.84a1.91,1.91,0,0,1,2.17-2.08h2v1.08h-1.83a.93.93,0,0,0-1.06,1.06v.78h2.62v1h-2.62v5.85h2.8v1H614v-1Z" transform="translate(-9.77)"/><path class="e" d="M625.27,227.24v-5.9h-2.18v-1h3.29l.07,1.26a2.3,2.3,0,0,1,2.07-1.45H630v1.24h-1.49a2.13,2.13,0,0,0-1.9,1.46v4.38h2.92v1h-6.42v-1Z" transform="translate(-9.77)"/><path class="e" d="M632.33,226.26c0-1.45,1.11-2.62,3.62-2.62a13.92,13.92,0,0,1,1.8.1V223c0-1.25-.63-1.76-2-1.77a4.5,4.5,0,0,0-2.61,1l-.45-.89a5,5,0,0,1,3.18-1.12c2,0,3.2,1,3.2,2.77v5.3H638l-.11-1.37a3.05,3.05,0,0,1-2.89,1.56C633.29,228.42,632.33,227.49,632.33,226.26Zm5.42-1.17v-.36a13.65,13.65,0,0,0-1.73-.1c-1.69,0-2.38.61-2.38,1.53s.6,1.32,1.63,1.32A2.39,2.39,0,0,0,637.75,225.09Z" transform="translate(-9.77)"/><path class="e" d="M643.87,227.24v-5.9h-2.18v-1H645l.07,1.26a2.3,2.3,0,0,1,2.07-1.45h1.46v1.24h-1.49a2.13,2.13,0,0,0-1.9,1.46v4.38h2.92v1h-6.42v-1Z" transform="translate(-9.77)"/><path class="e" d="M650.87,224.34c0-2.49,1.56-4.18,3.78-4.18S658,221.48,658,224a5.18,5.18,0,0,1,0,.7h-5.72a2.4,2.4,0,0,0,2.6,2.61,4.25,4.25,0,0,0,2.49-.85l.46.88a5,5,0,0,1-3.12,1.08C652.43,228.42,650.87,227,650.87,224.34Zm3.75-3.13a2.42,2.42,0,0,0-2.35,2.41h4.48C656.72,222.21,656.09,221.21,654.62,221.21Z" transform="translate(-9.77)"/><path class="e" d="M660.08,224.39c0-2.6,1.34-4.23,3.33-4.23a3.05,3.05,0,0,1,2.24,1v-3.7H667v10.8h-1.2l0-1a3,3,0,0,1-2.38,1.23C661.22,228.42,660.08,226.79,660.08,224.39Zm5.57,1.66v-3.66a2.62,2.62,0,0,0-2.09-1.12c-1.2,0-2.1,1.06-2.1,3.09s.75,2.92,2.09,2.92A2.56,2.56,0,0,0,665.65,226.05Z" transform="translate(-9.77)"/><path class="e" d="M843.7,274.62v1.2h-5v3.62h4.38v1.15h-4.38v4.83h-1.38v-10.8Z" transform="translate(-9.77)"/><path class="e" d="M846,283.46c0-1.46,1.11-2.63,3.62-2.63a12.24,12.24,0,0,1,1.8.11v-.77c0-1.24-.63-1.75-2-1.77a4.57,4.57,0,0,0-2.61,1l-.45-.88a5.05,5.05,0,0,1,3.18-1.13c2,0,3.2,1,3.2,2.78v5.29h-1.11l-.11-1.36a3.07,3.07,0,0,1-2.89,1.56C847,285.62,846,284.69,846,283.46Zm5.42-1.17v-.36a12,12,0,0,0-1.73-.11c-1.69,0-2.38.62-2.38,1.53s.6,1.32,1.63,1.32A2.38,2.38,0,0,0,851.44,282.29Z" transform="translate(-9.77)"/><path class="e" d="M857.56,284.43v-5.89h-2.18v-1h3.29l.07,1.26a2.29,2.29,0,0,1,2.07-1.46h1.46v1.25h-1.49a2.13,2.13,0,0,0-1.9,1.45v4.38h2.92v1h-6.42v-1Z" transform="translate(-9.77)"/><path class="e" d="M877,284.37V278.6h-2.64v-1.05h3.94v6.82H881v1.05h-6.57v-1.05Zm-.3-9.07a.85.85,0,0,1,.94-.84.84.84,0,1,1,0,1.68A.86.86,0,0,1,876.73,275.3Z" transform="translate(-9.77)"/><path class="e" d="M884.62,277.55l.06,1.14a3.57,3.57,0,0,1,2.73-1.34c1.9,0,2.59,1.2,2.59,2.93v5.14h-1.32v-4.9c0-1.37-.52-2-1.69-2a3.11,3.11,0,0,0-2.22,1.27v5.67h-1.32v-7.87Z" transform="translate(-9.77)"/><path class="e" d="M895.09,284.43v-5.85h-2.25v-.82l2.25-.21v-.84a1.92,1.92,0,0,1,2.17-2.09h2v1.08h-1.83a.94.94,0,0,0-1.06,1.07v.78H899v1h-2.62v5.85h2.8v1h-6.45v-1Z" transform="translate(-9.77)"/><path class="e" d="M904.06,284.43v-5.89h-2.18v-1h3.29l.07,1.26a2.29,2.29,0,0,1,2.07-1.46h1.46v1.25h-1.49a2.13,2.13,0,0,0-1.9,1.45v4.38h2.92v1h-6.42v-1Z" transform="translate(-9.77)"/><path class="e" d="M911.12,283.46c0-1.46,1.11-2.63,3.62-2.63a12.24,12.24,0,0,1,1.8.11v-.77c0-1.24-.63-1.75-2-1.77a4.57,4.57,0,0,0-2.61,1l-.45-.88a5.05,5.05,0,0,1,3.18-1.13c2,0,3.2,1,3.2,2.78v5.29h-1.11l-.11-1.36a3.07,3.07,0,0,1-2.89,1.56C912.08,285.62,911.12,284.69,911.12,283.46Zm5.42-1.17v-.36a12,12,0,0,0-1.73-.11c-1.69,0-2.38.62-2.38,1.53s.6,1.32,1.63,1.32A2.38,2.38,0,0,0,916.54,282.29Z" transform="translate(-9.77)"/><path class="e" d="M922.66,284.43v-5.89h-2.18v-1h3.29l.07,1.26a2.29,2.29,0,0,1,2.07-1.46h1.46v1.25h-1.49a2.13,2.13,0,0,0-1.9,1.45v4.38h2.92v1h-6.42v-1Z" transform="translate(-9.77)"/><path class="e" d="M929.66,281.54c0-2.49,1.56-4.19,3.78-4.19s3.39,1.32,3.39,3.84a5.33,5.33,0,0,1,0,.71h-5.72a2.4,2.4,0,0,0,2.6,2.61,4.2,4.2,0,0,0,2.49-.86l.46.89a5,5,0,0,1-3.12,1.08C931.22,285.62,929.66,284.22,929.66,281.54Zm3.75-3.14a2.42,2.42,0,0,0-2.35,2.42h4.48C935.51,279.41,934.88,278.4,933.41,278.4Z" transform="translate(-9.77)"/><path class="e" d="M938.87,281.58c0-2.59,1.34-4.23,3.33-4.23a3,3,0,0,1,2.24,1v-3.71h1.32v10.8h-1.2l0-1a3,3,0,0,1-2.38,1.23C940,285.62,938.87,284,938.87,281.58Zm5.57,1.67v-3.66a2.6,2.6,0,0,0-2.09-1.13c-1.2,0-2.1,1.07-2.1,3.09s.75,2.93,2.09,2.93A2.59,2.59,0,0,0,944.44,283.25Z" transform="translate(-9.77)"/><path class="e" d="M870.85,297.43a8.23,8.23,0,0,1,3.09-6.45l.93.5a7.84,7.84,0,0,0,0,11.89l-.93.51A8.26,8.26,0,0,1,870.85,297.43Z" transform="translate(-9.77)"/><path class="e" d="M885.55,291.18v1.2h-5V296H885v1.16h-4.38V302h-1.38v-10.8Z" transform="translate(-9.77)"/><path class="e" d="M890.68,300.82v-8.49H888.4v-1.15h6v1.15h-2.29v8.49h2.29V302h-6v-1.16Z" transform="translate(-9.77)"/><path class="e" d="M900.58,291.18c2.56,0,3.73,1.27,3.73,3.21a3,3,0,0,1-1.77,2.95l2.37,4.64H903.4l-2.18-4.31a5.47,5.47,0,0,1-1.05.08h-1.59V302H897.2v-10.8Zm2.32,3.3c0-1.37-.7-2.07-2.37-2.07h-1.95v4.26h1.85C902.12,296.67,902.9,295.89,902.9,294.48Z" transform="translate(-9.77)"/><path class="e" d="M908.8,291a8.28,8.28,0,0,1,0,12.9l-.93-.51a7.84,7.84,0,0,0,0-11.89Z" transform="translate(-9.77)"/><path class="e" d="M122.68,43.2V36.13h1.4v6.95c0,2,.67,2.82,2.23,2.82s2.18-.87,2.18-2.82V36.13h1.38V43.2c0,2.68-1.2,3.93-3.6,3.93S122.68,45.88,122.68,43.2Z" transform="translate(-9.77)"/><path class="e" d="M132.94,36.13l2.61,9.3h.06l2.6-9.3h1.44l-3.26,10.8h-1.63l-3.27-10.8Z" transform="translate(-9.77)"/><path class="e" d="M185.38,36.13l2.61,9.3h0l2.6-9.3h1.44l-3.25,10.8h-1.64l-3.27-10.8Z" transform="translate(-9.77)"/><path class="e" d="M196.91,45.88V40.11h-2.64v-1h3.94v6.82h2.63v1h-6.57v-1Zm-.3-9.07a.85.85,0,0,1,.94-.84.85.85,0,1,1,0,1.68A.86.86,0,0,1,196.61,36.81Z" transform="translate(-9.77)"/><path class="e" d="M203.27,45.91l.63-.87a4.13,4.13,0,0,0,2.72,1.05c1.27,0,1.95-.48,1.95-1.26s-.33-1-1.86-1.35l-.39-.09c-1.95-.39-2.67-1.14-2.67-2.22,0-1.42,1.21-2.31,3.07-2.31A4.59,4.59,0,0,1,209.87,40l-.66.81a3.51,3.51,0,0,0-2.4-.92c-1.21,0-1.81.45-1.81,1.13s.39,1,1.78,1.29l.39.07c2,.42,2.75,1.16,2.75,2.33,0,1.48-1.28,2.43-3.23,2.43A5.19,5.19,0,0,1,203.27,45.91Z" transform="translate(-9.77)"/><path class="e" d="M215.51,45.88V40.11h-2.64v-1h3.95v6.82h2.62v1h-6.57v-1Zm-.3-9.07a.86.86,0,0,1,.95-.84.84.84,0,1,1,0,1.68A.86.86,0,0,1,215.21,36.81Z" transform="translate(-9.77)"/><path class="e" d="M223.1,46l-.1.91h-1.1V36.13h1.32V40a3,3,0,0,1,2.34-1.13c1.92,0,3.23,1.46,3.23,4s-1.39,4.25-3.32,4.25A3.1,3.1,0,0,1,223.1,46Zm4.3-3.09c0-2-.85-2.94-2.05-2.94a2.58,2.58,0,0,0-2.13,1.23v3.67A2.62,2.62,0,0,0,225.3,46C226.5,46,227.4,45,227.4,42.93Z" transform="translate(-9.77)"/><path class="e" d="M233.84,45.94V37.12h-2.49v-1h3.81v9.81h2.62v1h-6.57v-1Z" transform="translate(-9.77)"/><path class="e" d="M240.24,43.05c0-2.49,1.56-4.19,3.78-4.19s3.39,1.32,3.39,3.84a5.33,5.33,0,0,1,0,.71h-5.72a2.4,2.4,0,0,0,2.6,2.61,4.2,4.2,0,0,0,2.49-.86l.46.89a5,5,0,0,1-3.12,1.08C241.8,47.13,240.24,45.73,240.24,43.05ZM244,39.91a2.42,2.42,0,0,0-2.35,2.42h4.48C246.09,40.92,245.46,39.91,244,39.91Z" transform="translate(-9.77)"/><path class="f" d="M230.92,379c2,0,3,1,3,2.57a2.31,2.31,0,0,1-1.16,2.19l1.56,3.16h-2.16l-1.21-2.68a3.62,3.62,0,0,1-.48,0h-.35v2.66h-2V379Zm1,2.76c0-.68-.32-1.05-1.09-1.05h-.71v2.13h.66C231.56,382.83,231.91,382.43,231.91,381.75Z" transform="translate(-9.77)"/><path class="f" d="M240.6,379v1.7h-3.42v1.5h3.1v1.51h-3.1v1.54h3.47v1.67h-5.42V379Z" transform="translate(-9.77)"/><path class="f" d="M244.66,379c2,0,3.05,1.45,3.05,4s-1.13,3.94-3.28,3.94H241.8V379Zm1,4c0-1.46-.31-2.31-1-2.31h-.87v4.58h.87C245.35,385.24,245.66,384.41,245.66,383Z" transform="translate(-9.77)"/><path class="e" d="M24.32,409.58l-2.59-1.93a7.32,7.32,0,0,0,1.81-4.33c0-1.06-.48-1.82-1.39-1.82-.71,0-1.16.43-1.95,2.71l-.52,1.44c-.79,2.24-2.39,3.44-4.34,3.44-2.89,0-5.2-2.31-5.2-5.83a8.52,8.52,0,0,1,2.2-5.9l2.6,1.93a6.18,6.18,0,0,0-1.6,3.95c0,1.1.53,1.79,1.35,1.79.6,0,1.07-.33,1.71-2.13l.51-1.44c1.07-3,2.38-4,4.64-4,3,0,5.28,2.32,5.28,5.87A9.16,9.16,0,0,1,24.32,409.58Z" transform="translate(-9.77)"/><path class="e" d="M14.74,392.14l1.46-.42a4.27,4.27,0,0,1-1.82-3.35c0-2.55,1.87-4.71,6.13-4.71,3.88,0,6.32,1.94,6.32,4.91a4.31,4.31,0,0,1-1.07,2.73h5.15v3.77H14.74Zm5.92-4.55c-2.51,0-3.26.78-3.26,1.78a2.55,2.55,0,0,0,1.18,1.93h4.28a2.13,2.13,0,0,0,1.08-1.82C23.94,388.63,23,387.59,20.66,387.59Z" transform="translate(-9.77)"/><path class="e" d="M20.71,381.47c-3.84,0-6.33-2.27-6.33-6.15,0-3.62,2-5.55,5.93-5.55a6,6,0,0,1,1.35.16v7.63c1.49,0,2.22-.91,2.22-2.79a9.91,9.91,0,0,0-.91-3.6l2.42-1a10.12,10.12,0,0,1,1.44,5.21C26.83,379.34,24.57,381.47,20.71,381.47Zm-3.53-6.08a2.1,2.1,0,0,0,2.24,2.17v-4.21C17.91,373.39,17.18,374,17.18,375.39Z" transform="translate(-9.77)"/><path class="e" d="M20.66,367.66c-3.64,0-6.28-2.21-6.28-6.05,0-3.38,1.82-5.15,4.93-5.19v3.12c-1.38.09-2,.71-2,1.89,0,1.42.95,2.28,3.28,2.28s3.35-1,3.35-2.79a6,6,0,0,0-1.18-3.35l2.33-1a7.86,7.86,0,0,1,1.78,5.17C26.83,365.18,24.72,367.66,20.66,367.66Z" transform="translate(-9.77)"/><path class="e" d="M22.9,351.07H17.44v2.86H15.38l-.62-3.09-3.48-.33v-3.19h3.46v-4.24h2.7v4.24h5.2c.73,0,1.08-.4,1.08-1.18v-3h2.75v4.51C26.47,350,25.3,351.07,22.9,351.07Z" transform="translate(-9.77)"/><path class="e" d="M23.81,337.2H17.4v2.86H14.74v-5.81l1.57-.42A3.37,3.37,0,0,1,14.4,331v-2.1H18v2.24a2.7,2.7,0,0,0,1.15,2.33h4.68V329.7h2.66v10.36H23.81Z" transform="translate(-9.77)"/><path class="e" d="M23.57,326.52c-2.24,0-3.75-1.84-3.75-5.7,0-.71,0-1.35.06-1.84h-1c-1.17,0-1.68.58-1.68,2.33a8.51,8.51,0,0,0,1,3.88L15.8,326a10.8,10.8,0,0,1-1.42-5.31c0-3.64,1.64-5.52,4.46-5.52h7.63v3.06l-1.42.31a4.72,4.72,0,0,1,1.78,3.95C26.83,325.08,25.48,326.52,23.57,326.52ZM22.41,319h-.62a13.94,13.94,0,0,0-.11,1.53c0,1.6.53,2.38,1.49,2.38s1.29-.65,1.29-1.74A2.09,2.09,0,0,0,22.41,319Z" transform="translate(-9.77)"/><path class="e" d="M23.81,308.86H13.16v3.31H10.5v-7.08H23.81v-3.33h2.66v10.41H23.81Z" transform="translate(-9.77)"/><path class="e" d="M23.15,281.41H13.83v2.77H10.5v-9.47h3.33v2.77h9.32v-2.77h3.32v9.47H23.15Z" transform="translate(-9.77)"/><path class="e" d="M23.81,268.41H17.4v2.86H14.74v-5.81l1.57-.42a3.37,3.37,0,0,1-1.91-2.87v-2.1H18v2.24a2.7,2.7,0,0,0,1.15,2.33h4.68v-3.73h2.66v10.36H23.81Z" transform="translate(-9.77)"/><path class="e" d="M23.81,254.65H17.4v2.86H14.74V251.7l1.57-.42a3.35,3.35,0,0,1-1.91-2.86v-2.11H18v2.24a2.68,2.68,0,0,0,1.15,2.33h4.68v-3.73h2.66v10.36H23.81Z" transform="translate(-9.77)"/><path class="e" d="M23.57,244c-2.24,0-3.75-1.85-3.75-5.71,0-.71,0-1.35.06-1.84h-1c-1.17,0-1.68.58-1.68,2.33a8.48,8.48,0,0,0,1,3.88l-2.35.85a10.76,10.76,0,0,1-1.42-5.3c0-3.64,1.64-5.53,4.46-5.53h7.63v3.06l-1.42.31A4.72,4.72,0,0,1,26.83,240C26.83,242.53,25.48,244,23.57,244Zm-1.16-7.55h-.62a13.94,13.94,0,0,0-.11,1.53c0,1.6.53,2.38,1.49,2.38s1.29-.65,1.29-1.73A2.09,2.09,0,0,0,22.41,236.43Z" transform="translate(-9.77)"/><path class="e" d="M20.71,230.37c-4.09,0-6.33-2.13-6.33-4.86a4,4,0,0,1,1.09-2.77h-5V219h16v3.31l-1.35.22a3.88,3.88,0,0,1,1.71,3.17C26.83,228.55,24.57,230.37,20.71,230.37Zm1.93-7.63H18.35a2.15,2.15,0,0,0-1.08,1.78c0,1.08,1.22,1.93,3.32,1.93,2.29,0,3.22-.67,3.22-1.8A2.6,2.6,0,0,0,22.64,222.74Z" transform="translate(-9.77)"/><path class="e" d="M11.7,212.56c-1.18,0-1.8-.94-1.8-2.11s.62-2.11,1.8-2.11,1.75.87,1.75,2.11S12.9,212.56,11.7,212.56Zm11.8-.23H17.71v3.31h-3v-7.08H23.5v-3.33h3v10.41h-3Z" transform="translate(-9.77)"/><path class="e" d="M23.57,202.7c-2.24,0-3.75-1.84-3.75-5.7,0-.71,0-1.35.06-1.84h-1c-1.17,0-1.68.58-1.68,2.33a8.54,8.54,0,0,0,1,3.88l-2.35.84a10.74,10.74,0,0,1-1.42-5.3c0-3.64,1.64-5.52,4.46-5.52h7.63v3.06l-1.42.31a4.72,4.72,0,0,1,1.78,4C26.83,201.26,25.48,202.7,23.57,202.7Zm-1.16-7.54h-.62a13.94,13.94,0,0,0-.11,1.53c0,1.6.53,2.37,1.49,2.37s1.29-.64,1.29-1.73A2.09,2.09,0,0,0,22.41,195.16Z" transform="translate(-9.77)"/><path class="e" d="M14.74,185.64l1.39-.36a5.08,5.08,0,0,1-1.75-3.81c0-2.58,1.51-3.91,4.06-3.91h8v3.77H19.35c-1.33,0-2,.54-2,1.69a2.71,2.71,0,0,0,1.09,2h8v3.77H14.74Z" transform="translate(-9.77)"/><path class="e" d="M20.66,175.05c-3.64,0-6.28-2.21-6.28-6.05,0-3.38,1.82-5.15,4.93-5.19v3.12c-1.38.09-2,.71-2,1.89,0,1.42.95,2.28,3.28,2.28s3.35-1,3.35-2.79A6,6,0,0,0,22.72,165l2.33-1a7.86,7.86,0,0,1,1.78,5.17C26.83,172.57,24.72,175.05,20.66,175.05Z" transform="translate(-9.77)"/><path class="e" d="M20.71,161.34c-3.84,0-6.33-2.26-6.33-6.14,0-3.62,2-5.55,5.93-5.55a6.71,6.71,0,0,1,1.35.15v7.64c1.49-.05,2.22-.91,2.22-2.8a9.92,9.92,0,0,0-.91-3.59l2.42-1a10.15,10.15,0,0,1,1.44,5.21C26.83,159.21,24.57,161.34,20.71,161.34Zm-3.53-6.08a2.1,2.1,0,0,0,2.24,2.18v-4.22C17.91,153.26,17.18,153.89,17.18,155.26Z" transform="translate(-9.77)"/><path class="e" d="M19.86,131.89a12.08,12.08,0,0,1-9.76-4.68l1.29-2.64a11.54,11.54,0,0,0,17,0l1.28,2.64A12.06,12.06,0,0,1,19.86,131.89Z" transform="translate(-9.77)"/><path class="e" d="M10.5,117l10-.14v-.11l-6.19-1.22v-2.22l6.12-1.26V112l-9.89-.13v-3.33l16,.53v3.75l-7.74,1.64v.13l7.74,1.51v3.73l-16,.53Z" transform="translate(-9.77)"/><path class="e" d="M10.08,96.46l18.43,5.3v3L10.08,99.5Z" transform="translate(-9.77)"/><path class="e" d="M14.74,90.33,15.91,90a2.76,2.76,0,0,1-1.53-2.17,2,2,0,0,1,1.53-2.07,2.76,2.76,0,0,1-1.53-2.31c0-1.53,1.16-2.59,3.64-2.59h8.45V84H18.35c-.62,0-1,.18-1,.6s.2.58.62.86h8.45v2.76H18.35c-.62,0-1,.28-1,.71s.2.46.62.75h8.45v3.15H14.74Z" transform="translate(-9.77)"/><path class="e" d="M14.33,76.05c-.75-.61-1.19-.89-1.74-.89a.86.86,0,0,0-.93,1,4.09,4.09,0,0,0,.95,2.16l-1.39.84A5.11,5.11,0,0,1,9.77,75.7c0-1.6.85-2.85,2.56-2.85a4,4,0,0,1,2.79,1.3l2.19,1.76V72.78h1.77v6.06h-1.3Z" transform="translate(-9.77)"/><path class="e" d="M10.08,60.92l18.43,5.3v3L10.08,64Z" transform="translate(-9.77)"/><path class="e" d="M14.74,53.8l1.39-.36a5.08,5.08,0,0,1-1.75-3.81c0-2.58,1.51-3.91,4.06-3.91h8v3.77H19.35c-1.33,0-2,.54-2,1.69a2.67,2.67,0,0,0,1.09,2h8v3.78H14.74Z" transform="translate(-9.77)"/><path class="e" d="M14.74,41l1.17-.33a2.76,2.76,0,0,1-1.53-2.18,2,2,0,0,1,1.53-2.06,2.77,2.77,0,0,1-1.53-2.31c0-1.53,1.16-2.6,3.64-2.6h8.45v3.16H18.35c-.62,0-1,.17-1,.59s.2.58.62.87h8.45v2.75H18.35c-.62,0-1,.29-1,.71s.2.47.62.75h8.45v3.16H14.74Z" transform="translate(-9.77)"/><path class="e" d="M10.1,24.71A12.08,12.08,0,0,1,19.86,20a12.06,12.06,0,0,1,9.76,4.68l-1.28,2.64a11.54,11.54,0,0,0-16.95,0Z" transform="translate(-9.77)"/><path class="e" d="M118,406.72a5,5,0,0,0,1.44-3.26c0-1.49-1-2.44-2.91-2.44a6.55,6.55,0,0,0-4.23,1.77l-.93-1.26a7.74,7.74,0,0,1,5.43-2.29c2.69,0,4.66,1.42,4.66,4a6,6,0,0,1-1.8,4.29l-4.94,6.05h7.18v1.67h-9.76v-1.29Z" transform="translate(-9.77)"/><path class="e" d="M125,407.38c0-5.52,2-8.14,5.37-8.14s5.33,2.62,5.33,8.06-1.95,8.18-5.39,8.18S125,412.89,125,407.38Zm2.36,3.69,5.23-9.06a2.62,2.62,0,0,0-2.24-1.08c-2.24,0-3.39,2-3.39,6.43A14.09,14.09,0,0,0,127.36,411.07Zm6.39-3.73a13.63,13.63,0,0,0-.43-3.79l-5.25,9.09a2.65,2.65,0,0,0,2.28,1.16C132.59,413.8,133.75,411.8,133.75,407.34Z" transform="translate(-9.77)"/><path class="e" d="M138.76,407.38c0-5.52,2-8.14,5.37-8.14s5.33,2.62,5.33,8.06-2,8.18-5.39,8.18S138.76,412.89,138.76,407.38Zm2.35,3.69,5.24-9.06a2.64,2.64,0,0,0-2.24-1.08c-2.24,0-3.4,2-3.4,6.43A14.52,14.52,0,0,0,141.11,411.07Zm6.39-3.73a13.67,13.67,0,0,0-.42-3.79l-5.26,9.09a2.68,2.68,0,0,0,2.29,1.16C146.35,413.8,147.5,411.8,147.5,407.34Z" transform="translate(-9.77)"/><path class="e" d="M51.72,392.05c0-5.52,2-8.14,5.37-8.14s5.32,2.62,5.32,8c0,5.6-1.95,8.19-5.39,8.19S51.72,397.56,51.72,392.05Zm2.35,3.69,5.24-9.06a2.65,2.65,0,0,0-2.24-1.08c-2.25,0-3.4,2-3.4,6.43A14.09,14.09,0,0,0,54.07,395.74ZM60.46,392a13.8,13.8,0,0,0-.42-3.8l-5.26,9.1a2.65,2.65,0,0,0,2.29,1.15C59.31,398.46,60.46,396.47,60.46,392Z" transform="translate(-9.77)"/><path class="e" d="M49.83,341.69a1.35,1.35,0,0,1,2.69,0A1.26,1.26,0,0,1,51.16,343,1.22,1.22,0,0,1,49.83,341.69Z" transform="translate(-9.77)"/><path class="e" d="M66.32,334.19a5,5,0,0,0,1.44-3.26c0-1.49-1-2.45-2.9-2.45a6.51,6.51,0,0,0-4.24,1.78L59.69,329a7.74,7.74,0,0,1,5.43-2.29c2.69,0,4.66,1.42,4.66,4A6,6,0,0,1,68,335L63,341h7.18v1.66H60.46V341.4Z" transform="translate(-9.77)"/><path class="e" d="M49.83,282.93a1.35,1.35,0,0,1,2.69,0,1.26,1.26,0,0,1-1.36,1.29A1.22,1.22,0,0,1,49.83,282.93Z" transform="translate(-9.77)"/><path class="e" d="M59.58,280.24v-1.48l4.7-10.57h1.84l-4.64,10.43h5.31v-7.41h1.88v7.41h2.15v1.62H68.67v3.68H66.79v-3.68Z" transform="translate(-9.77)"/><path class="e" d="M49.83,222.87a1.23,1.23,0,0,1,1.33-1.31,1.29,1.29,0,1,1,0,2.58A1.22,1.22,0,0,1,49.83,222.87Z" transform="translate(-9.77)"/><path class="e" d="M59.8,217.08c0-6.17,2.19-9.18,6-9.18a6.19,6.19,0,0,1,3.79,1.28l-.73,1.29a4.85,4.85,0,0,0-2.93-.93c-3.22,0-4.06,3-4.26,6.23a5.8,5.8,0,0,1,4.06-1.68c3,0,4.41,2,4.41,4.83,0,3.46-2,5.22-5,5.22C61.42,224.14,59.8,221.58,59.8,217.08ZM68.25,219c0-2.37-1.33-3.37-3-3.37a5.35,5.35,0,0,0-3.53,1.67c0,3.66,1.25,5.12,3.44,5.12C66.92,222.45,68.25,221.47,68.25,219Z" transform="translate(-9.77)"/><path class="e" d="M49.83,164.15a1.23,1.23,0,0,1,1.33-1.31,1.29,1.29,0,1,1,0,2.58A1.22,1.22,0,0,1,49.83,164.15Z" transform="translate(-9.77)"/><path class="e" d="M59.71,161.24a4.84,4.84,0,0,1,3.28-4.5,3.85,3.85,0,0,1-2.7-3.68c0-2.38,1.86-3.89,4.7-3.89s4.59,1.36,4.59,3.6a4.46,4.46,0,0,1-2.68,3.84c2.15,1,3.28,2.24,3.28,4.26,0,2.84-2.09,4.55-5.39,4.55S59.71,163.86,59.71,161.24Zm8.45-.33c0-1.84-1.8-2.79-3.64-3.37-1.64.66-3,1.71-3,3.62,0,1.57,1.15,2.66,3.33,2.66S68.16,162.66,68.16,160.91Zm-.42-8c0-1.4-1-2.2-2.73-2.2s-2.75.84-2.75,2.35,1.26,2.29,2.91,2.84C66.43,155.32,67.74,154.28,67.74,152.86Z" transform="translate(-9.77)"/><path class="e" d="M64.58,104.52V92.43l-4.62,2L59.61,93,65,90.3h1.45v14.22h4.28V106H60.16v-1.51Z" transform="translate(-9.77)"/><path class="e" d="M203.23,408.43c0-6.17,2.2-9.19,6-9.19a6.17,6.17,0,0,1,3.8,1.29l-.74,1.29a4.86,4.86,0,0,0-2.92-.94c-3.22,0-4.06,3-4.26,6.24a5.81,5.81,0,0,1,4.06-1.69c3,0,4.41,2,4.41,4.84,0,3.46-2,5.21-5.06,5.21C204.85,415.48,203.23,412.93,203.23,408.43Zm8.46,1.95c0-2.37-1.33-3.37-3-3.37a5.34,5.34,0,0,0-3.53,1.66c0,3.66,1.24,5.13,3.44,5.13C210.36,413.8,211.69,412.82,211.69,410.38Z" transform="translate(-9.77)"/><path class="e" d="M216.79,407.38c0-5.52,2-8.14,5.37-8.14s5.33,2.62,5.33,8.06-2,8.18-5.39,8.18S216.79,412.89,216.79,407.38Zm2.36,3.69,5.23-9.06a2.64,2.64,0,0,0-2.24-1.08c-2.24,0-3.39,2-3.39,6.43A14.09,14.09,0,0,0,219.15,411.07Zm6.38-3.73a13.67,13.67,0,0,0-.42-3.79l-5.26,9.09a2.68,2.68,0,0,0,2.29,1.16C224.38,413.8,225.53,411.8,225.53,407.34Z" transform="translate(-9.77)"/><path class="e" d="M230.55,407.38c0-5.52,1.95-8.14,5.37-8.14s5.32,2.62,5.32,8.06-2,8.18-5.39,8.18S230.55,412.89,230.55,407.38Zm2.35,3.69,5.24-9.06a2.65,2.65,0,0,0-2.24-1.08c-2.24,0-3.4,2-3.4,6.43A14.52,14.52,0,0,0,232.9,411.07Zm6.39-3.73a13.67,13.67,0,0,0-.42-3.79l-5.26,9.09a2.67,2.67,0,0,0,2.29,1.16C238.14,413.8,239.29,411.8,239.29,407.34Z" transform="translate(-9.77)"/><path class="e" d="M294.59,413.71V401.62l-4.61,2-.36-1.49,5.44-2.66h1.44v14.22h4.28v1.51h-10.6v-1.51Z" transform="translate(-9.77)"/><path class="e" d="M303.49,407.38c0-5.52,1.95-8.14,5.37-8.14s5.32,2.62,5.32,8.06-1.95,8.18-5.39,8.18S303.49,412.89,303.49,407.38Zm2.35,3.69,5.24-9.06a2.65,2.65,0,0,0-2.24-1.08c-2.24,0-3.4,2-3.4,6.43A14.52,14.52,0,0,0,305.84,411.07Zm6.39-3.73a13.67,13.67,0,0,0-.42-3.79l-5.26,9.09a2.67,2.67,0,0,0,2.29,1.16C311.08,413.8,312.23,411.8,312.23,407.34Z" transform="translate(-9.77)"/><path class="e" d="M317.25,407.38c0-5.52,1.95-8.14,5.37-8.14s5.32,2.62,5.32,8.06-1.95,8.18-5.39,8.18S317.25,412.89,317.25,407.38Zm2.35,3.69,5.24-9.06a2.65,2.65,0,0,0-2.25-1.08c-2.24,0-3.39,2-3.39,6.43A14.09,14.09,0,0,0,319.6,411.07Zm6.39-3.73a13.67,13.67,0,0,0-.42-3.79l-5.26,9.09a2.65,2.65,0,0,0,2.28,1.16C324.84,413.8,326,411.8,326,407.34Z" transform="translate(-9.77)"/><path class="e" d="M331,407.38c0-5.52,1.95-8.14,5.37-8.14s5.32,2.62,5.32,8.06-1.95,8.18-5.39,8.18S331,412.89,331,407.38Zm2.35,3.69,5.23-9.06a2.62,2.62,0,0,0-2.24-1.08c-2.24,0-3.39,2-3.39,6.43A14.09,14.09,0,0,0,333.36,411.07Zm6.39-3.73a14.07,14.07,0,0,0-.42-3.79l-5.26,9.09a2.65,2.65,0,0,0,2.28,1.16C338.59,413.8,339.75,411.8,339.75,407.34Z" transform="translate(-9.77)"/><path class="e" d="M388.38,413.71V401.62l-4.62,2-.35-1.49,5.44-2.66h1.44v14.22h4.28v1.51H384v-1.51Z" transform="translate(-9.77)"/><path class="e" d="M397.26,411.53v-1.48l4.7-10.56h1.84l-4.64,10.42h5.31V402.5h1.88v7.41h2.15v1.62h-2.15v3.69h-1.88v-3.69Z" transform="translate(-9.77)"/><path class="e" d="M411,407.38c0-5.52,1.95-8.14,5.37-8.14s5.32,2.62,5.32,8.06-2,8.18-5.39,8.18S411,412.89,411,407.38Zm2.35,3.69,5.23-9.06a2.62,2.62,0,0,0-2.24-1.08c-2.24,0-3.39,2-3.39,6.43A14.09,14.09,0,0,0,413.39,411.07Zm6.39-3.73a14.07,14.07,0,0,0-.42-3.79l-5.26,9.09a2.65,2.65,0,0,0,2.28,1.16C418.62,413.8,419.78,411.8,419.78,407.34Z" transform="translate(-9.77)"/><path class="e" d="M424.79,407.38c0-5.52,2-8.14,5.37-8.14s5.33,2.62,5.33,8.06-1.95,8.18-5.39,8.18S424.79,412.89,424.79,407.38Zm2.36,3.69,5.23-9.06a2.64,2.64,0,0,0-2.24-1.08c-2.24,0-3.39,2-3.39,6.43A14.09,14.09,0,0,0,427.15,411.07Zm6.39-3.73a13.63,13.63,0,0,0-.43-3.79l-5.25,9.09a2.65,2.65,0,0,0,2.28,1.16C432.38,413.8,433.54,411.8,433.54,407.34Z" transform="translate(-9.77)"/><path class="e" d="M479.91,413.71V401.62l-4.61,2-.36-1.49,5.44-2.66h1.44v14.22h4.28v1.51H475.5v-1.51Z" transform="translate(-9.77)"/><path class="e" d="M488.92,411.31a4.84,4.84,0,0,1,3.29-4.5,3.87,3.87,0,0,1-2.71-3.69c0-2.37,1.87-3.88,4.71-3.88s4.59,1.36,4.59,3.6a4.46,4.46,0,0,1-2.69,3.83c2.16,1,3.29,2.25,3.29,4.26,0,2.84-2.09,4.55-5.39,4.55S488.92,413.93,488.92,411.31Zm8.46-.33c0-1.84-1.8-2.8-3.64-3.37-1.64.66-3,1.7-3,3.61,0,1.58,1.16,2.67,3.33,2.67S497.38,412.73,497.38,411Zm-.42-8.05c0-1.4-1-2.2-2.73-2.2s-2.75.84-2.75,2.35,1.26,2.29,2.9,2.84C495.65,405.39,497,404.35,497,402.93Z" transform="translate(-9.77)"/><path class="e" d="M502.57,407.38c0-5.52,1.95-8.14,5.37-8.14s5.33,2.62,5.33,8.06-2,8.18-5.4,8.18S502.57,412.89,502.57,407.38Zm2.35,3.69,5.24-9.06a2.65,2.65,0,0,0-2.24-1.08c-2.24,0-3.4,2-3.4,6.43A14.52,14.52,0,0,0,504.92,411.07Zm6.39-3.73a13.67,13.67,0,0,0-.42-3.79l-5.26,9.09a2.67,2.67,0,0,0,2.29,1.16C510.16,413.8,511.31,411.8,511.31,407.34Z" transform="translate(-9.77)"/><path class="e" d="M516.33,407.38c0-5.52,1.95-8.14,5.37-8.14s5.32,2.62,5.32,8.06-1.95,8.18-5.39,8.18S516.33,412.89,516.33,407.38Zm2.35,3.69,5.24-9.06a2.65,2.65,0,0,0-2.24-1.08c-2.24,0-3.4,2-3.4,6.43A14.09,14.09,0,0,0,518.68,411.07Zm6.39-3.73a13.67,13.67,0,0,0-.42-3.79l-5.26,9.09a2.67,2.67,0,0,0,2.29,1.16C523.92,413.8,525.07,411.8,525.07,407.34Z" transform="translate(-9.77)"/><path class="e" d="M574.22,406.72a5,5,0,0,0,1.44-3.26c0-1.49-1-2.44-2.9-2.44a6.55,6.55,0,0,0-4.24,1.77l-.93-1.26a7.74,7.74,0,0,1,5.43-2.29c2.69,0,4.66,1.42,4.66,4a6,6,0,0,1-1.8,4.29l-4.94,6.05h7.18v1.67h-9.76v-1.29Z" transform="translate(-9.77)"/><path class="e" d="M588,406.72a5,5,0,0,0,1.44-3.26c0-1.49-1-2.44-2.91-2.44a6.55,6.55,0,0,0-4.23,1.77l-.94-1.26a7.76,7.76,0,0,1,5.44-2.29c2.68,0,4.66,1.42,4.66,4a6.09,6.09,0,0,1-1.8,4.29l-4.95,6.05h7.19v1.67h-9.76v-1.29Z" transform="translate(-9.77)"/><path class="e" d="M595,407.38c0-5.52,2-8.14,5.37-8.14s5.33,2.62,5.33,8.06-2,8.18-5.39,8.18S595,412.89,595,407.38Zm2.35,3.69L602.6,402a2.64,2.64,0,0,0-2.24-1.08c-2.24,0-3.39,2-3.39,6.43A14.58,14.58,0,0,0,597.36,411.07Zm6.39-3.73a13.67,13.67,0,0,0-.42-3.79l-5.26,9.09a2.68,2.68,0,0,0,2.29,1.16C602.6,413.8,603.75,411.8,603.75,407.34Z" transform="translate(-9.77)"/><path class="e" d="M608.77,407.38c0-5.52,2-8.14,5.37-8.14s5.32,2.62,5.32,8.06-2,8.18-5.39,8.18S608.77,412.89,608.77,407.38Zm2.35,3.69,5.24-9.06a2.65,2.65,0,0,0-2.24-1.08c-2.24,0-3.4,2-3.4,6.43A14.52,14.52,0,0,0,611.12,411.07Zm6.39-3.73a13.67,13.67,0,0,0-.42-3.79l-5.26,9.09a2.67,2.67,0,0,0,2.29,1.16C616.36,413.8,617.51,411.8,617.51,407.34Z" transform="translate(-9.77)"/><path class="e" d="M666.76,406.72a5,5,0,0,0,1.45-3.26c0-1.49-1.05-2.44-2.91-2.44a6.57,6.57,0,0,0-4.24,1.77l-.93-1.26a7.75,7.75,0,0,1,5.43-2.29c2.69,0,4.66,1.42,4.66,4a6.08,6.08,0,0,1-1.79,4.29l-4.95,6.05h7.19v1.67h-9.76v-1.29Z" transform="translate(-9.77)"/><path class="e" d="M674,408.43c0-6.17,2.19-9.19,6-9.19a6.14,6.14,0,0,1,3.79,1.29l-.73,1.29a4.86,4.86,0,0,0-2.93-.94c-3.22,0-4.06,3-4.26,6.24a5.81,5.81,0,0,1,4.06-1.69c3,0,4.41,2,4.41,4.84,0,3.46-1.95,5.21-5,5.21C675.62,415.48,674,412.93,674,408.43Zm8.45,1.95c0-2.37-1.33-3.37-3-3.37a5.34,5.34,0,0,0-3.53,1.66c0,3.66,1.25,5.13,3.44,5.13C681.12,413.8,682.45,412.82,682.45,410.38Z" transform="translate(-9.77)"/><path class="e" d="M687.56,407.38c0-5.52,2-8.14,5.36-8.14s5.33,2.62,5.33,8.06-2,8.18-5.39,8.18S687.56,412.89,687.56,407.38Zm2.35,3.69,5.23-9.06a2.62,2.62,0,0,0-2.24-1.08c-2.24,0-3.39,2-3.39,6.43A14.09,14.09,0,0,0,689.91,411.07Zm6.39-3.73a14.07,14.07,0,0,0-.42-3.79l-5.26,9.09a2.65,2.65,0,0,0,2.28,1.16C695.14,413.8,696.3,411.8,696.3,407.34Z" transform="translate(-9.77)"/><path class="e" d="M701.31,407.38c0-5.52,2-8.14,5.37-8.14s5.33,2.62,5.33,8.06-2,8.18-5.39,8.18S701.31,412.89,701.31,407.38Zm2.36,3.69L708.9,402a2.64,2.64,0,0,0-2.24-1.08c-2.24,0-3.39,2-3.39,6.43A14.09,14.09,0,0,0,703.67,411.07Zm6.39-3.73a13.63,13.63,0,0,0-.43-3.79l-5.25,9.09a2.65,2.65,0,0,0,2.28,1.16C708.9,413.8,710.06,411.8,710.06,407.34Z" transform="translate(-9.77)"/><path class="e" d="M752.42,413.35l.91-1.31a6.72,6.72,0,0,0,4.37,1.73c2.06,0,3.48-1.15,3.48-2.92s-1.26-2.89-3.72-2.89c-.31,0-1.2.05-1.33.07l-.07-1.67c2.13-.06,4.3-1.24,4.3-3.06,0-1.6-1.44-2.37-2.84-2.37a6.76,6.76,0,0,0-3.7,1.13l-.78-1.29a8.25,8.25,0,0,1,4.75-1.53c2.73,0,4.5,1.38,4.5,3.77a4,4,0,0,1-3.35,3.89c2.82.2,4.17,1.75,4.17,4,0,3-2.3,4.59-5.3,4.59A7.55,7.55,0,0,1,752.42,413.35Z" transform="translate(-9.77)"/><path class="e" d="M765.71,407.38c0-5.52,2-8.14,5.37-8.14s5.33,2.62,5.33,8.06-2,8.18-5.39,8.18S765.71,412.89,765.71,407.38Zm2.35,3.69L773.3,402a2.64,2.64,0,0,0-2.24-1.08c-2.24,0-3.39,2-3.39,6.43A14.58,14.58,0,0,0,768.06,411.07Zm6.39-3.73a13.67,13.67,0,0,0-.42-3.79l-5.26,9.09a2.68,2.68,0,0,0,2.29,1.16C773.3,413.8,774.45,411.8,774.45,407.34Z" transform="translate(-9.77)"/><path class="e" d="M779.47,407.38c0-5.52,1.95-8.14,5.37-8.14s5.32,2.62,5.32,8.06-1.95,8.18-5.39,8.18S779.47,412.89,779.47,407.38Zm2.35,3.69,5.24-9.06a2.65,2.65,0,0,0-2.24-1.08c-2.24,0-3.4,2-3.4,6.43A14.52,14.52,0,0,0,781.82,411.07Zm6.39-3.73a13.67,13.67,0,0,0-.42-3.79l-5.26,9.09a2.67,2.67,0,0,0,2.29,1.16C787.06,413.8,788.21,411.8,788.21,407.34Z" transform="translate(-9.77)"/><path class="e" d="M793.23,407.38c0-5.52,1.95-8.14,5.37-8.14s5.32,2.62,5.32,8.06-1.95,8.18-5.39,8.18S793.23,412.89,793.23,407.38Zm2.35,3.69,5.24-9.06a2.65,2.65,0,0,0-2.24-1.08c-2.25,0-3.4,2-3.4,6.43A14.09,14.09,0,0,0,795.58,411.07Zm6.39-3.73a13.67,13.67,0,0,0-.42-3.79l-5.26,9.09a2.66,2.66,0,0,0,2.29,1.16C800.82,413.8,802,411.8,802,407.34Z" transform="translate(-9.77)"/><path class="e" d="M845.08,413.35,846,412a6.74,6.74,0,0,0,4.37,1.73c2.07,0,3.49-1.15,3.49-2.92s-1.27-2.89-3.73-2.89c-.31,0-1.2.05-1.33.07l-.07-1.67c2.13-.06,4.31-1.24,4.31-3.06,0-1.6-1.44-2.37-2.84-2.37a6.79,6.79,0,0,0-3.71,1.13l-.77-1.29a8.2,8.2,0,0,1,4.74-1.53c2.73,0,4.51,1.38,4.51,3.77a4,4,0,0,1-3.35,3.89c2.82.2,4.17,1.75,4.17,4,0,3-2.31,4.59-5.3,4.59A7.57,7.57,0,0,1,845.08,413.35Z" transform="translate(-9.77)"/><path class="e" d="M858.35,411.53v-1.48l4.71-10.56h1.84l-4.64,10.42h5.3V402.5h1.89v7.41h2.15v1.62h-2.15v3.69h-1.89v-3.69Z" transform="translate(-9.77)"/><path class="e" d="M872.13,407.38c0-5.52,2-8.14,5.37-8.14s5.33,2.62,5.33,8.06-2,8.18-5.39,8.18S872.13,412.89,872.13,407.38Zm2.36,3.69,5.23-9.06a2.62,2.62,0,0,0-2.24-1.08c-2.24,0-3.39,2-3.39,6.43A14.09,14.09,0,0,0,874.49,411.07Zm6.39-3.73a13.63,13.63,0,0,0-.43-3.79l-5.25,9.09a2.65,2.65,0,0,0,2.28,1.16C879.72,413.8,880.88,411.8,880.88,407.34Z" transform="translate(-9.77)"/><path class="e" d="M885.89,407.38c0-5.52,2-8.14,5.37-8.14s5.33,2.62,5.33,8.06-2,8.18-5.39,8.18S885.89,412.89,885.89,407.38Zm2.35,3.69,5.24-9.06a2.64,2.64,0,0,0-2.24-1.08c-2.24,0-3.4,2-3.4,6.43A14.52,14.52,0,0,0,888.24,411.07Zm6.39-3.73a13.67,13.67,0,0,0-.42-3.79L889,412.64a2.68,2.68,0,0,0,2.29,1.16C893.48,413.8,894.63,411.8,894.63,407.34Z" transform="translate(-9.77)"/><path class="e" d="M939.61,413.35l.9-1.31a6.76,6.76,0,0,0,4.38,1.73c2.06,0,3.48-1.15,3.48-2.92S947.1,408,944.64,408c-.31,0-1.2.05-1.33.07l-.07-1.67c2.13-.06,4.31-1.24,4.31-3.06,0-1.6-1.44-2.37-2.84-2.37a6.79,6.79,0,0,0-3.71,1.13l-.77-1.29a8.22,8.22,0,0,1,4.74-1.53c2.73,0,4.51,1.38,4.51,3.77a4,4,0,0,1-3.35,3.89c2.82.2,4.17,1.75,4.17,4,0,3-2.31,4.59-5.3,4.59A7.53,7.53,0,0,1,939.61,413.35Z" transform="translate(-9.77)"/><path class="e" d="M952.56,411.31a4.84,4.84,0,0,1,3.29-4.5,3.87,3.87,0,0,1-2.71-3.69c0-2.37,1.86-3.88,4.7-3.88s4.6,1.36,4.6,3.6a4.46,4.46,0,0,1-2.69,3.83c2.16,1,3.29,2.25,3.29,4.26,0,2.84-2.09,4.55-5.39,4.55S952.56,413.93,952.56,411.31ZM961,411c0-1.84-1.8-2.8-3.64-3.37-1.64.66-3,1.7-3,3.61,0,1.58,1.16,2.67,3.33,2.67S961,412.73,961,411Zm-.42-8.05c0-1.4-1-2.2-2.73-2.2s-2.75.84-2.75,2.35,1.26,2.29,2.9,2.84C959.29,405.39,960.6,404.35,960.6,402.93Z" transform="translate(-9.77)"/><path class="e" d="M965.77,407.38c0-5.52,2-8.14,5.37-8.14s5.32,2.62,5.32,8.06-2,8.18-5.39,8.18S965.77,412.89,965.77,407.38Zm2.35,3.69,5.24-9.06a2.65,2.65,0,0,0-2.25-1.08c-2.24,0-3.39,2-3.39,6.43A14.09,14.09,0,0,0,968.12,411.07Zm6.39-3.73a13.67,13.67,0,0,0-.42-3.79l-5.26,9.09a2.65,2.65,0,0,0,2.28,1.16C973.36,413.8,974.51,411.8,974.51,407.34Z" transform="translate(-9.77)"/><path class="e" d="M979.08,407.38c0-5.52,1.95-8.14,5.37-8.14s5.33,2.62,5.33,8.06-2,8.18-5.4,8.18S979.08,412.89,979.08,407.38Zm2.35,3.69,5.24-9.06a2.65,2.65,0,0,0-2.24-1.08c-2.24,0-3.4,2-3.4,6.43A14.52,14.52,0,0,0,981.43,411.07Zm6.39-3.73a13.67,13.67,0,0,0-.42-3.79l-5.26,9.09a2.67,2.67,0,0,0,2.29,1.16C986.67,413.8,987.82,411.8,987.82,407.34Z" transform="translate(-9.77)"/><line class="g" x1="167.89" y1="89.78" x2="167.89" y2="390.68"/><line class="g" x1="215.19" y1="89.78" x2="215.19" y2="390.68"/><polyline class="g" points="241.09 89.78 241.09 207.89 241.09 272.65 241.09 390.68"/><line class="g" x1="425.72" y1="89.78" x2="425.72" y2="390.68"/><line class="g" x1="770.42" y1="89.78" x2="770.42" y2="390.68"/><path class="d" d="M177.65,390.68s10.41.25,22.15,0c15.26-.32,28.56-4.35,32.68-37.21,2.2-17.58,6-39.76,7.28-46.85,7.35-41.84,27.93-141,71.92-151.33,0,0,38.29-8.94,96.85,33.82,0,0,98.32,70.16,157.68,99.08,57.31,27.93,150.9,61.94,233.68,74.33s189.47,15.18,209.49,14.8" transform="translate(-9.77)"/><line class="d" x1="959.72" y1="285.42" x2="987.45" y2="285.42"/><polygon class="e" points="980.82 293.6 979.45 292.14 986.68 285.43 979.45 278.71 980.82 277.25 989.61 285.43 980.82 293.6"/><path class="e" d="M318.16,308.4c0-3.6,1.4-5.47,4.08-5.47s3.9,1.87,3.9,5.47c0,3.77-1.36,5.72-4,5.72S318.16,312.17,318.16,308.4Zm6.53,0c0-2.77-.87-4.21-2.51-4.21s-2.55,1.44-2.55,4.21c0,2.93.89,4.44,2.58,4.44S324.69,311.33,324.69,308.4Z" transform="translate(-9.77)"/><path class="e" d="M329.31,306.05l.07,1.05a2.94,2.94,0,0,1,2.48-1.25c1.89,0,3.18,1.49,3.18,4s-1.31,4.25-3.33,4.25a3.1,3.1,0,0,1-2.24-1v3.78h-1.32V306.05Zm4.35,3.88c0-2-.81-2.95-2-2.95a2.6,2.6,0,0,0-2.15,1.23v3.67a2.62,2.62,0,0,0,2.12,1.13C332.68,313,333.66,312,333.66,309.93Z" transform="translate(-9.77)"/><path class="e" d="M339.28,311.93v-4.85h-2.2v-.79l2.26-.24.18-2.16h1.07v2.16h3.24v1h-3.24v4.77a.9.9,0,0,0,1,1h2.1v1.08h-2.4A1.76,1.76,0,0,1,339.28,311.93Z" transform="translate(-9.77)"/><path class="e" d="M349.66,312.87V307.1H347v-1.05h4v6.82h2.62v1.05H347v-1.05Zm-.3-9.07a.86.86,0,0,1,.95-.84.84.84,0,1,1,0,1.68A.86.86,0,0,1,349.36,303.8Z" transform="translate(-9.77)"/><path class="e" d="M356.55,306.05l.06.79a1.92,1.92,0,0,1,1.62-1,1.54,1.54,0,0,1,1.5,1.07,2.05,2.05,0,0,1,1.71-1.07c1.09,0,1.78.86,1.78,2.25v5.82H362v-5.65c0-.83-.33-1.29-.86-1.29a1.47,1.47,0,0,0-1.23.93v6h-1.11V308.3c0-.9-.37-1.32-.9-1.32s-.85.28-1.21.94v6h-1.22v-7.87Z" transform="translate(-9.77)"/><path class="e" d="M365.16,312c0-1.46,1.11-2.63,3.61-2.63a12.06,12.06,0,0,1,1.8.11v-.77c0-1.24-.63-1.75-2-1.77a4.55,4.55,0,0,0-2.61,1l-.45-.88a5,5,0,0,1,3.18-1.13c2,0,3.19,1,3.19,2.78v5.29h-1.11l-.1-1.36a3.08,3.08,0,0,1-2.9,1.56C366.12,314.12,365.16,313.19,365.16,312Zm5.41-1.17v-.36a11.84,11.84,0,0,0-1.72-.11c-1.7,0-2.39.62-2.39,1.53s.6,1.32,1.64,1.32A2.38,2.38,0,0,0,370.57,310.79Z" transform="translate(-9.77)"/><path class="e" d="M377.29,312.93v-8.82H374.8v-1h3.81v9.81h2.63v1h-6.57v-1Z" transform="translate(-9.77)"/><path class="e" d="M390.36,303.12v4.58H395v-4.58h1.38v10.8H395v-5h-4.59v5H389v-10.8Z" transform="translate(-9.77)"/><path class="e" d="M398.4,310c0-2.49,1.56-4.19,3.78-4.19s3.39,1.32,3.39,3.84a5.27,5.27,0,0,1-.05.71h-5.71A2.4,2.4,0,0,0,402.4,313a4.15,4.15,0,0,0,2.49-.86l.47.89a5.06,5.06,0,0,1-3.12,1.08C400,314.12,398.4,312.72,398.4,310Zm3.75-3.14a2.42,2.42,0,0,0-2.36,2.42h4.49C404.25,307.91,403.62,306.9,402.15,306.9Z" transform="translate(-9.77)"/><path class="e" d="M407.76,312c0-1.46,1.11-2.63,3.61-2.63a12.06,12.06,0,0,1,1.8.11v-.77c0-1.24-.63-1.75-2-1.77a4.55,4.55,0,0,0-2.61,1l-.45-.88a5,5,0,0,1,3.18-1.13c2,0,3.19,1,3.19,2.78v5.29h-1.11l-.1-1.36a3.08,3.08,0,0,1-2.9,1.56C408.72,314.12,407.76,313.19,407.76,312Zm5.41-1.17v-.36a11.84,11.84,0,0,0-1.72-.11c-1.7,0-2.39.62-2.39,1.53s.6,1.32,1.64,1.32A2.38,2.38,0,0,0,413.17,310.79Z" transform="translate(-9.77)"/><path class="e" d="M419.08,311.93v-4.85h-2.2v-.79l2.26-.24.18-2.16h1.07v2.16h3.24v1h-3.24v4.77a.9.9,0,0,0,1,1h2.1v1.08h-2.4A1.76,1.76,0,0,1,419.08,311.93Z" transform="translate(-9.77)"/><path class="e" d="M339.64,320.89v-1.21h7.62v1.21h-3.1v9.59h-1.4v-9.59Z" transform="translate(-9.77)"/><path class="e" d="M350.88,319.68v4a3.52,3.52,0,0,1,2.68-1.24c1.77,0,2.55,1.09,2.55,2.91v5.16h-1.32V325.6c0-1.06-.28-2.07-1.65-2.07a3,3,0,0,0-2.26,1.28v5.67h-1.32v-10.8Z" transform="translate(-9.77)"/><path class="e" d="M358.5,326.59c0-2.49,1.56-4.18,3.78-4.18s3.39,1.32,3.39,3.84a5.12,5.12,0,0,1-.05.7h-5.71a2.4,2.4,0,0,0,2.59,2.61,4.21,4.21,0,0,0,2.49-.85l.47.88a5,5,0,0,1-3.12,1.08C360.06,330.67,358.5,329.28,358.5,326.59Zm3.75-3.13a2.42,2.42,0,0,0-2.36,2.41h4.49C364.35,324.46,363.72,323.46,362.25,323.46Z" transform="translate(-9.77)"/><path class="e" d="M370.09,329.49v-5.9h-2.17v-1h3.28l.08,1.26a2.3,2.3,0,0,1,2.07-1.45h1.45v1.24h-1.48a2.13,2.13,0,0,0-1.91,1.46v4.38h2.93v1h-6.42v-1Z" transform="translate(-9.77)"/><path class="e" d="M377.16,328.51c0-1.45,1.11-2.62,3.61-2.62a13.71,13.71,0,0,1,1.8.1v-.76c0-1.25-.63-1.76-2-1.77a4.48,4.48,0,0,0-2.61,1l-.45-.89a5,5,0,0,1,3.18-1.12c2,0,3.19,1,3.19,2.77v5.3h-1.11l-.1-1.37a3.06,3.06,0,0,1-2.9,1.56C378.12,330.67,377.16,329.74,377.16,328.51Zm5.41-1.17V327a13.49,13.49,0,0,0-1.72-.1c-1.7,0-2.39.61-2.39,1.53s.6,1.32,1.64,1.32A2.38,2.38,0,0,0,382.57,327.34Z" transform="translate(-9.77)"/><path class="e" d="M387.81,322.6l.07,1a3,3,0,0,1,2.48-1.24c1.89,0,3.18,1.48,3.18,4s-1.31,4.24-3.33,4.24a3.13,3.13,0,0,1-2.24-1v3.78h-1.32V322.6Zm4.35,3.89c0-2-.81-3-2-3a2.63,2.63,0,0,0-2.15,1.23v3.68a2.64,2.64,0,0,0,2.12,1.12C391.18,329.56,392.16,328.57,392.16,326.49Z" transform="translate(-9.77)"/><path class="e" d="M397,332.4a1.31,1.31,0,0,0,1.47-1l.3-.93-2.83-7.85h1.41l2.07,6.3h0l2-6.3h1.36l-3.19,9.08a2.23,2.23,0,0,1-2.45,1.8h-.94V332.4Z" transform="translate(-9.77)"/><line class="d" x1="296.09" y1="342.82" x2="424.72" y2="342.82"/><rect class="e" x="295.09" y="336.32" width="2" height="13"/><rect class="e" x="423.72" y="336.32" width="2" height="13"/><line class="d" x1="215.54" y1="262.38" x2="307.39" y2="262.38"/><rect class="e" x="214.54" y="255.88" width="2" height="13"/><rect class="e" x="306.39" y="255.88" width="2" height="13"/><path class="e" d="M275.53,220.52v9.59h5.05v1.21h-6.43v-10.8Z" transform="translate(-9.77)"/><path class="e" d="M285.8,230.27V224.5h-2.64v-1.05h3.95v6.82h2.62v1h-6.57v-1Zm-.3-9.07a.86.86,0,0,1,.95-.84.84.84,0,1,1,0,1.68A.86.86,0,0,1,285.5,221.2Z" transform="translate(-9.77)"/><path class="e" d="M295.58,233.24a1.76,1.76,0,0,0,1.88-2v-1a2.93,2.93,0,0,1-2.37,1.22c-2.07,0-3.24-1.61-3.24-4s1.26-4.22,3.34-4.22a3.16,3.16,0,0,1,2.31,1.05l.05-.85h1.18v7.71c0,2.17-1.12,3.16-3.24,3.16h-2.61v-1.08Zm1.83-4.15v-3.6a2.6,2.6,0,0,0-2.08-1.13c-1.2,0-2.1,1-2.1,3.08,0,1.84.76,2.88,2.08,2.88A2.53,2.53,0,0,0,297.41,229.09Z" transform="translate(-9.77)"/><path class="e" d="M302.92,220.52v4a3.49,3.49,0,0,1,2.68-1.25c1.77,0,2.55,1.1,2.55,2.91v5.16h-1.32v-4.87c0-1.07-.28-2.07-1.65-2.07a3,3,0,0,0-2.26,1.27v5.67H301.6v-10.8Z" transform="translate(-9.77)"/><path class="e" d="M312.62,229.33v-4.85h-2.2v-.79l2.26-.24.18-2.16h1.07v2.16h3.24v1h-3.24v4.77a.9.9,0,0,0,1,1H317v1.08h-2.4A1.76,1.76,0,0,1,312.62,229.33Z" transform="translate(-9.77)"/><path class="e" d="M263.78,238.29v-1.21h7.62v1.21h-3.1v9.59h-1.4v-9.59Z" transform="translate(-9.77)"/><path class="e" d="M275,237.08v4a3.52,3.52,0,0,1,2.68-1.24c1.77,0,2.55,1.09,2.55,2.91v5.16h-1.32V243c0-1.06-.28-2.07-1.65-2.07a3,3,0,0,0-2.26,1.28v5.67H273.7v-10.8Z" transform="translate(-9.77)"/><path class="e" d="M282.64,244c0-2.49,1.56-4.18,3.78-4.18s3.39,1.32,3.39,3.84a5.12,5.12,0,0,1-.05.7h-5.71a2.4,2.4,0,0,0,2.59,2.61,4.21,4.21,0,0,0,2.49-.85l.47.88a5,5,0,0,1-3.12,1.08C284.2,248.07,282.64,246.68,282.64,244Zm3.75-3.13a2.42,2.42,0,0,0-2.36,2.41h4.49C288.49,241.86,287.86,240.86,286.39,240.86Z" transform="translate(-9.77)"/><path class="e" d="M294.23,246.89V241h-2.17v-1h3.28l.08,1.26a2.3,2.3,0,0,1,2.07-1.45h1.45v1.24h-1.48a2.13,2.13,0,0,0-1.91,1.46v4.38h2.93v1h-6.42v-1Z" transform="translate(-9.77)"/><path class="e" d="M301.3,245.91c0-1.45,1.11-2.62,3.61-2.62a13.71,13.71,0,0,1,1.8.1v-.76c0-1.25-.63-1.76-2-1.77a4.48,4.48,0,0,0-2.61,1l-.45-.89a5,5,0,0,1,3.18-1.12c2,0,3.19,1,3.19,2.77v5.3h-1.11l-.1-1.37a3.06,3.06,0,0,1-2.9,1.56C302.26,248.07,301.3,247.14,301.3,245.91Zm5.41-1.17v-.36a13.49,13.49,0,0,0-1.72-.1c-1.7,0-2.39.61-2.39,1.53s.6,1.32,1.64,1.32A2.38,2.38,0,0,0,306.71,244.74Z" transform="translate(-9.77)"/><path class="e" d="M312,240l.07,1.05a3,3,0,0,1,2.48-1.24c1.89,0,3.18,1.48,3.18,4s-1.31,4.24-3.33,4.24a3.13,3.13,0,0,1-2.24-1v3.78h-1.32V240Zm4.35,3.89c0-2-.81-3-2-3a2.63,2.63,0,0,0-2.15,1.23v3.68a2.64,2.64,0,0,0,2.12,1.12C315.32,247,316.3,246,316.3,243.89Z" transform="translate(-9.77)"/><path class="e" d="M321.14,249.8a1.31,1.31,0,0,0,1.47-1l.3-.93L320.08,240h1.41l2.07,6.3h0l2-6.3H327l-3.19,9.08a2.23,2.23,0,0,1-2.45,1.8h-.94V249.8Z" transform="translate(-9.77)"/><path class="e" d="M651.32,47V43.59h11.8V47h-3.94V59.57h-3.93V47Z" transform="translate(-9.77)"/><path class="e" d="M669.14,43.59v5.33a5,5,0,0,1,3.55-1.45c2.51,0,3.88,1.45,3.88,4.06v8H672.8V52.44c0-1.28-.49-1.95-1.69-1.95a2.69,2.69,0,0,0-2,1.09v8h-3.77v-16Z" transform="translate(-9.77)"/><path class="e" d="M679,53.8c0-3.84,2.26-6.33,6.14-6.33,3.62,0,5.55,2,5.55,5.93a6,6,0,0,1-.16,1.35h-7.63c0,1.49.91,2.22,2.8,2.22a9.72,9.72,0,0,0,3.59-.91l1,2.42a10.19,10.19,0,0,1-5.22,1.44C681.17,59.92,679,57.66,679,53.8Zm6.08-3.53a2.1,2.1,0,0,0-2.18,2.24h4.22C687.11,51,686.49,50.27,685.12,50.27Z" transform="translate(-9.77)"/><path class="e" d="M695.79,56.9V50.49h-2.86V47.83h5.81l.42,1.58A3.34,3.34,0,0,1,702,47.5h2.11v3.57h-2.24a2.71,2.71,0,0,0-2.33,1.15V56.9h3.73v2.67H692.93V56.9Z" transform="translate(-9.77)"/><path class="e" d="M708.77,47.83,709.1,49a2.77,2.77,0,0,1,2.18-1.54A2,2,0,0,1,713.34,49a2.77,2.77,0,0,1,2.31-1.54c1.53,0,2.6,1.16,2.6,3.64v8.46h-3.16V51.45c0-.62-.17-1-.59-1s-.58.2-.87.62v8.46h-2.75V51.45c0-.62-.29-1-.71-1s-.47.2-.75.62v8.46h-3.16V47.83Z" transform="translate(-9.77)"/><path class="e" d="M720.22,56.66c0-2.24,1.84-3.75,5.7-3.75.71,0,1.36,0,1.85.07v-1c0-1.17-.58-1.68-2.33-1.68a8.57,8.57,0,0,0-3.89,1l-.84-2.36a10.76,10.76,0,0,1,5.3-1.42c3.64,0,5.53,1.65,5.53,4.46v7.64h-3.06l-.32-1.42a4.72,4.72,0,0,1-3.94,1.77C721.66,59.92,720.22,58.57,720.22,56.66Zm7.55-1.15v-.63a13.94,13.94,0,0,0-1.54-.11c-1.59,0-2.37.54-2.37,1.49s.64,1.29,1.73,1.29A2.08,2.08,0,0,0,727.77,55.51Z" transform="translate(-9.77)"/><path class="e" d="M738.73,43.59v12.6h6.65v3.38H734.8v-16Z" transform="translate(-9.77)"/><path class="e" d="M751.86,56.59V50.8h-3.3v-3h7.08v8.76H759v3h-10.4v-3Zm-.22-11.8c0-1.18.93-1.8,2.11-1.8s2.11.62,2.11,1.8-.87,1.75-2.11,1.75S751.64,46,751.64,44.79Z" transform="translate(-9.77)"/><path class="e" d="M767.26,61.25c1.29,0,1.87-.49,1.87-2.22V58A3.79,3.79,0,0,1,766,59.57c-2.89,0-4.66-2.36-4.66-6s2-6.13,4.86-6.13A4.22,4.22,0,0,1,769.42,49l.22-1.15h3.1V58.68c0,4.24-1.84,5.32-5.74,5.32h-3.73V61.25ZM769,55.37V51.45a2.15,2.15,0,0,0-1.77-1.09c-1.09,0-1.93,1.2-1.93,3.13s.66,3.06,1.77,3.06A2.3,2.3,0,0,0,769,55.37Z" transform="translate(-9.77)"/><path class="e" d="M779.2,43.59v5.33a5,5,0,0,1,3.55-1.45c2.51,0,3.89,1.45,3.89,4.06v8h-3.78V52.44c0-1.28-.48-1.95-1.68-1.95a2.69,2.69,0,0,0-2,1.09v8h-3.77v-16Z" transform="translate(-9.77)"/><path class="e" d="M792,56V50.54h-2.86V48.47l3.09-.62.33-3.48h3.19v3.46H800v2.71h-4.24v5.19c0,.73.4,1.09,1.18,1.09h3v2.75h-4.51C793.05,59.57,792,58.39,792,56Z" transform="translate(-9.77)"/><path class="e" d="M816,57.41,818,54.82a7.31,7.31,0,0,0,4.32,1.82c1.07,0,1.82-.49,1.82-1.4,0-.71-.42-1.15-2.7-2l-1.45-.51c-2.24-.8-3.44-2.4-3.44-4.35,0-2.89,2.31-5.19,5.84-5.19a8.55,8.55,0,0,1,5.9,2.19L826.31,48a6.2,6.2,0,0,0-3.95-1.6c-1.11,0-1.8.53-1.8,1.35,0,.6.34,1.07,2.13,1.71l1.45.51c3,1.07,4,2.38,4,4.64,0,3-2.33,5.28-5.88,5.28A9.13,9.13,0,0,1,816,57.41Z" transform="translate(-9.77)"/><path class="e" d="M833.46,47.83l.42,1.46a4.27,4.27,0,0,1,3.35-1.82c2.55,0,4.7,1.87,4.7,6.13,0,3.88-1.93,6.32-4.9,6.32a4.35,4.35,0,0,1-2.73-1.06V64h-3.77V47.83ZM838,53.75c0-2.5-.78-3.26-1.78-3.26a2.58,2.58,0,0,0-1.93,1.18V56A2.13,2.13,0,0,0,836.12,57C837,57,838,56.08,838,53.75Z" transform="translate(-9.77)"/><path class="e" d="M844.13,53.8c0-3.84,2.26-6.33,6.15-6.33,3.61,0,5.54,2,5.54,5.93a6.05,6.05,0,0,1-.15,1.35H848c0,1.49.91,2.22,2.79,2.22a9.81,9.81,0,0,0,3.6-.91l1,2.42a10.12,10.12,0,0,1-5.21,1.44C846.26,59.92,844.13,57.66,844.13,53.8Zm6.08-3.53A2.1,2.1,0,0,0,848,52.51h4.21C852.21,51,851.59,50.27,850.21,50.27Z" transform="translate(-9.77)"/><path class="e" d="M857.93,53.75c0-3.63,2.22-6.28,6.06-6.28,3.37,0,5.15,1.82,5.19,4.93h-3.13c-.09-1.38-.71-2-1.88-2-1.42,0-2.29,1-2.29,3.28s1,3.35,2.8,3.35A6.08,6.08,0,0,0,868,55.82l1,2.33a7.87,7.87,0,0,1-5.17,1.77C860.42,59.92,857.93,57.81,857.93,53.75Z" transform="translate(-9.77)"/><path class="e" d="M874.53,56V50.54h-2.86V48.47l3.08-.62.34-3.48h3.19v3.46h4.24v2.71h-4.24v5.19c0,.73.4,1.09,1.18,1.09h3v2.75H878C875.6,59.57,874.53,58.39,874.53,56Z" transform="translate(-9.77)"/><path class="e" d="M888.4,56.9V50.49h-2.86V47.83h5.81l.42,1.58a3.34,3.34,0,0,1,2.86-1.91h2.11v3.57H894.5a2.71,2.71,0,0,0-2.33,1.15V56.9h3.73v2.67H885.54V56.9Z" transform="translate(-9.77)"/><path class="e" d="M899.43,56V47.83h3.77v7.3c0,1.15.51,1.77,1.49,1.77a2.4,2.4,0,0,0,1.88-1v-8h3.77V59.57h-3.12l-.36-1.4a5,5,0,0,1-3.68,1.75C900.74,59.92,899.43,58.35,899.43,56Z" transform="translate(-9.77)"/><path class="e" d="M915.14,47.83l.33,1.18a2.77,2.77,0,0,1,2.18-1.54A2,2,0,0,1,919.71,49,2.77,2.77,0,0,1,922,47.47c1.53,0,2.59,1.16,2.59,3.64v8.46h-3.15V51.45c0-.62-.17-1-.6-1s-.57.2-.86.62v8.46h-2.75V51.45c0-.62-.29-1-.71-1s-.47.2-.76.62v8.46h-3.15V47.83Z" transform="translate(-9.77)"/><g class="h"><g class="i"><rect x="938.53" y="64.97" width="15.83" height="11.08"/></g></g><g class="j"><g class="i"><rect x="938.53" y="67.12" width="15.83" height="11.08"/></g></g><path class="k" d="M971.69,39.08A7.1,7.1,0,0,0,964.58,32H947.84a7.11,7.11,0,0,0-5.61,11.48L951.64,56V66.23l1.66,1.66h5.82l1.66-1.66V56l9.41-12.57a7,7,0,0,0,1.5-4.37" transform="translate(-9.77)"/><g class="l"><g class="i"><rect x="939.87" y="69.28" width="13.15" height="11.08"/></g></g></svg>