<svg id="Layer_1" data-name="Layer 1" xmlns="http://www.w3.org/2000/svg" width="1114.13" height="273.84" viewBox="0 0 1114.13 273.84"><line x1="11.75" y1="63.6" x2="1089.15" y2="63.6" fill="none" stroke="#231f20" stroke-miterlimit="10" stroke-width="4"/><polygon points="25.01 79.96 27.73 77.03 13.29 63.6 27.73 50.17 25.01 47.24 7.42 63.6 25.01 79.96" fill="#231f20"/><polygon points="1075.9 79.96 1073.17 77.03 1087.62 63.6 1073.17 50.17 1075.9 47.24 1093.49 63.6 1075.9 79.96" fill="#231f20"/><path d="M0,180.48c5.38,0,5.38,94.45,10.75,94.45s5.38-94.45,10.75-94.45,5.38,94.45,10.76,94.45S37.63,180.48,43,180.48s5.37,94.45,10.75,94.45,5.37-94.45,10.75-94.45,5.38,94.45,10.75,94.45S80.64,180.48,86,180.48s5.38,94.45,10.76,94.45,5.37-94.45,10.75-94.45,5.37,94.45,10.75,94.45,5.37-94.45,10.75-94.45" transform="translate(0 -3.09)" fill="none" stroke="#231f20" stroke-miterlimit="10" stroke-width="4"/><path d="M129,180.48c8.24,0,8.24,94.45,16.48,94.45s8.24-94.45,16.49-94.45,8.24,94.45,16.48,94.45,8.24-94.45,16.48-94.45,8.24,94.45,16.48,94.45,8.24-94.45,16.48-94.45,8.24,94.45,16.48,94.45,8.24-94.45,16.49-94.45,8.24,94.45,16.48,94.45,8.24-94.45,16.48-94.45,8.24,94.45,16.48,94.45,8.24-94.45,16.48-94.45,8.24,94.45,16.49,94.45,8.24-94.45,16.48-94.45,8.24,94.45,16.48,94.45,8.24-94.45,16.48-94.45,8.24,94.45,16.48,94.45,8.25-94.45,16.49-94.45,8.24,94.45,16.48,94.45,8.24-94.45,16.48-94.45,8.24,94.45,16.48,94.45,8.24-94.45,16.49-94.45,16.91,94.45,25.15,94.45,15.47-94.45,23.71-94.45c15,0,21.13,94.45,42.26,94.45s21.12-94.45,42.24-94.45,21.13,94.45,42.25,94.45,21.12-94.45,42.24-94.45,21.12,94.45,42.25,94.45,21.12-94.45,42.24-94.45,21.13,94.45,42.25,94.45,31-94.45,52.14-94.45,19.23,94.45,56.57,94.45h0c48.72,0,33.88-95,82.59-95s37.88,95,86.61,95" transform="translate(0 -3.09)" fill="none" stroke="#231f20" stroke-miterlimit="10" stroke-width="4"/><path d="M18.44,12.32c0-6.37,2.78-9.23,6.63-9.23s5.47,2.47,5.59,5.42H28.42a3.23,3.23,0,0,0-3.37-3.37c-2.39,0-4.22,2.15-4.22,7.13s1.61,7.07,4.37,7.07a4.75,4.75,0,0,0,3.49-1.27V13.76h-3.2V12h5.25v7.15a8.25,8.25,0,0,1-5.64,2.14C21.07,21.29,18.44,18.37,18.44,12.32Z" transform="translate(0 -3.09)" fill="#231f20"/><path d="M34.27,17.78c0-2.36,1.81-4.27,5.88-4.27a21.42,21.42,0,0,1,2.93.17V12.44c0-2-1-2.86-3.25-2.88a7.33,7.33,0,0,0-4.24,1.56l-.73-1.44A8.15,8.15,0,0,1,40,7.85c3.27,0,5.2,1.64,5.2,4.52V21H43.42l-.17-2.22a5,5,0,0,1-4.71,2.53C35.83,21.29,34.27,19.78,34.27,17.78Zm8.81-1.9v-.59a21.11,21.11,0,0,0-2.81-.17c-2.76,0-3.88,1-3.88,2.49,0,1.27,1,2.15,2.66,2.15A3.88,3.88,0,0,0,43.08,15.88Z" transform="translate(0 -3.09)" fill="#231f20"/><path d="M50.52,8.17l.09,1.29a3.16,3.16,0,0,1,2.64-1.61,2.52,2.52,0,0,1,2.44,1.73,3.37,3.37,0,0,1,2.78-1.73c1.78,0,2.9,1.39,2.9,3.66V21h-2v-9.2c0-1.34-.54-2.1-1.39-2.1a2.37,2.37,0,0,0-2,1.51V21H54.2V11.83c0-1.47-.61-2.15-1.46-2.15s-1.39.46-2,1.54V21h-2V8.17Z" transform="translate(0 -3.09)" fill="#231f20"/><path d="M65.64,8.17l.1,1.29a3.15,3.15,0,0,1,2.63-1.61,2.52,2.52,0,0,1,2.44,1.73,3.38,3.38,0,0,1,2.78-1.73c1.78,0,2.91,1.39,2.91,3.66V21h-2v-9.2c0-1.34-.54-2.1-1.39-2.1a2.37,2.37,0,0,0-2,1.51V21H69.32V11.83c0-1.47-.61-2.15-1.46-2.15s-1.39.46-2,1.54V21h-2V8.17Z" transform="translate(0 -3.09)" fill="#231f20"/><path d="M79.64,17.78c0-2.36,1.81-4.27,5.88-4.27a21.42,21.42,0,0,1,2.93.17V12.44c0-2-1-2.86-3.25-2.88A7.33,7.33,0,0,0,81,11.12l-.73-1.44A8.15,8.15,0,0,1,85.4,7.85c3.27,0,5.2,1.64,5.2,4.52V21H88.79l-.17-2.22a5,5,0,0,1-4.71,2.53C81.2,21.29,79.64,19.78,79.64,17.78Zm8.81-1.9v-.59a21.11,21.11,0,0,0-2.81-.17c-2.75,0-3.88,1-3.88,2.49,0,1.27,1,2.15,2.66,2.15A3.88,3.88,0,0,0,88.45,15.88Z" transform="translate(0 -3.09)" fill="#231f20"/><path d="M115.43,3.41c4.17,0,6.07,2.07,6.07,5.22a4.89,4.89,0,0,1-2.88,4.81L122.48,21H120l-3.53-7a8.88,8.88,0,0,1-1.71.13h-2.59V21h-2.24V3.41Zm3.78,5.37c0-2.22-1.15-3.37-3.86-3.37h-3.17v6.93h3C117.94,12.34,119.21,11.07,119.21,8.78Z" transform="translate(0 -3.09)" fill="#231f20"/><path d="M125,17.78c0-2.36,1.81-4.27,5.88-4.27a21.42,21.42,0,0,1,2.93.17V12.44c0-2-1-2.86-3.25-2.88a7.33,7.33,0,0,0-4.24,1.56l-.73-1.44a8.15,8.15,0,0,1,5.17-1.83c3.27,0,5.2,1.64,5.2,4.52V21h-1.81L134,18.76a5,5,0,0,1-4.71,2.53C126.57,21.29,125,19.78,125,17.78Zm8.81-1.9v-.59a21.11,21.11,0,0,0-2.81-.17c-2.75,0-3.88,1-3.88,2.49,0,1.27,1,2.15,2.66,2.15A3.88,3.88,0,0,0,133.82,15.88Z" transform="translate(0 -3.09)" fill="#231f20"/><path d="M142.16,24.1a2.13,2.13,0,0,0,2.39-1.66l.49-1.51L140.43,8.17h2.29l3.37,10.25h.07l3.25-10.25h2.22l-5.2,14.76c-.76,2.17-1.78,2.93-4,2.93h-1.53V24.1Z" transform="translate(0 -3.09)" fill="#231f20"/><path d="M243.25,115.06h2.44l4,7.18h.08l3.85-7.18h2.56l-5,8.76,5,8.81h-2.59l-3.91-7.15h-.07l-3.88,7.15H243.1l5.08-8.95Z" transform="translate(0 -3.09)" fill="#231f20"/><path d="M268.54,125v1.76h-7.49V125Z" transform="translate(0 -3.09)" fill="#231f20"/><path d="M279.76,115.06c4.18,0,6.08,2.08,6.08,5.23a4.87,4.87,0,0,1-2.88,4.8l3.86,7.54h-2.47l-3.54-7a8.82,8.82,0,0,1-1.7.12h-2.59v6.88h-2.25V115.06Zm3.79,5.37c0-2.22-1.15-3.36-3.86-3.36h-3.17V124h3C282.28,124,283.55,122.73,283.55,120.43Z" transform="translate(0 -3.09)" fill="#231f20"/><path d="M289.35,129.44c0-2.37,1.8-4.27,5.88-4.27a19.94,19.94,0,0,1,2.93.17v-1.25c0-2-1-2.85-3.25-2.88a7.33,7.33,0,0,0-4.24,1.56l-.73-1.44a8.21,8.21,0,0,1,5.17-1.83c3.27,0,5.19,1.64,5.19,4.52v8.61h-1.8l-.17-2.22a5,5,0,0,1-4.71,2.54C290.91,133,289.35,131.44,289.35,129.44Zm8.81-1.91V127a21.11,21.11,0,0,0-2.81-.17c-2.76,0-3.88,1-3.88,2.48,0,1.27,1,2.15,2.66,2.15A3.88,3.88,0,0,0,298.16,127.53Z" transform="translate(0 -3.09)" fill="#231f20"/><path d="M306.5,135.75a2.12,2.12,0,0,0,2.39-1.65l.49-1.52-4.61-12.76h2.29l3.37,10.25h.07l3.24-10.25H316l-5.19,14.76c-.76,2.17-1.78,2.93-4,2.93h-1.54v-1.76Z" transform="translate(0 -3.09)" fill="#231f20"/><path d="M370.46,14.9V3.41h2.27v11.3c0,3.17,1.1,4.58,3.64,4.58,2.39,0,3.53-1.41,3.53-4.58V3.41h2.25V14.9c0,4.37-1.95,6.39-5.86,6.39S370.46,19.27,370.46,14.9Z" transform="translate(0 -3.09)" fill="#231f20"/><path d="M390.34,19.37V5h-4V3.41h6.2v16h4.27V21H386.07V19.37Z" transform="translate(0 -3.09)" fill="#231f20"/><path d="M404.15,17.73V9.85h-3.59V8.56l3.69-.39.29-3.52h1.73V8.17h5.27V9.85h-5.27v7.76a1.47,1.47,0,0,0,1.64,1.61h3.41V21h-3.9C405.25,21,404.15,19.93,404.15,17.73Z" transform="translate(0 -3.09)" fill="#231f20"/><path d="M419.61,19.37V9.78h-3.53V8.17h5.34l.12,2.05a3.74,3.74,0,0,1,3.37-2.37h2.37v2h-2.42c-1.24,0-2.32.73-3.1,2.36v7.13h4.76V21H416.08V19.37Z" transform="translate(0 -3.09)" fill="#231f20"/><path d="M431.1,17.78c0-2.36,1.81-4.27,5.88-4.27a21.33,21.33,0,0,1,2.93.17V12.44c0-2-1-2.86-3.24-2.88a7.36,7.36,0,0,0-4.25,1.56l-.73-1.44a8.17,8.17,0,0,1,5.17-1.83c3.27,0,5.2,1.64,5.2,4.52V21h-1.81l-.17-2.22a5,5,0,0,1-4.71,2.53C432.66,21.29,431.1,19.78,431.1,17.78Zm8.81-1.9v-.59a20.9,20.9,0,0,0-2.81-.17c-2.75,0-3.87,1-3.87,2.49,0,1.27,1,2.15,2.65,2.15A3.88,3.88,0,0,0,439.91,15.88Z" transform="translate(0 -3.09)" fill="#231f20"/><path d="M448.15,8.17l3.66,10.56h.08l3.73-10.56h2.17L453.06,21h-2.44L445.91,8.17Z" transform="translate(0 -3.09)" fill="#231f20"/><path d="M466.4,19.27V9.88h-4.29V8.17h6.41v11.1h4.27V21H462.11V19.27Zm-.49-14.76a1.4,1.4,0,0,1,1.54-1.37A1.36,1.36,0,0,1,469,4.51a1.35,1.35,0,0,1-1.51,1.37A1.4,1.4,0,0,1,465.91,4.51Z" transform="translate(0 -3.09)" fill="#231f20"/><path d="M476.08,14.61c0-4.25,2.25-6.76,6.05-6.76s6.1,2.47,6.1,6.73-2.31,6.71-6.12,6.71S476.08,18.81,476.08,14.61Zm9.88,0c0-3.34-1.58-4.92-3.83-4.92s-3.78,1.63-3.78,4.92,1.54,4.91,3.78,4.91S486,17.88,486,14.58Z" transform="translate(0 -3.09)" fill="#231f20"/><path d="M496.21,19.37V5h-4V3.41h6.2v16h4.26V21H491.94V19.37Z" transform="translate(0 -3.09)" fill="#231f20"/><path d="M506.62,14.66c0-4.05,2.54-6.81,6.15-6.81s5.52,2.15,5.52,6.25a8.16,8.16,0,0,1-.08,1.14h-9.29c0,2.59,1.48,4.25,4.22,4.25a6.84,6.84,0,0,0,4.05-1.39l.75,1.44a8.11,8.11,0,0,1-5.07,1.75C509.16,21.29,506.62,19,506.62,14.66Zm6.1-5.1a3.94,3.94,0,0,0-3.83,3.93h7.3C516.14,11.19,515.11,9.56,512.72,9.56Z" transform="translate(0 -3.09)" fill="#231f20"/><path d="M525.14,17.73V9.85h-3.59V8.56l3.68-.39.3-3.52h1.73V8.17h5.27V9.85h-5.27v7.76a1.47,1.47,0,0,0,1.64,1.61h3.41V21h-3.9C526.24,21,525.14,19.93,525.14,17.73Z" transform="translate(0 -3.09)" fill="#231f20"/><path d="M467.92,114.43l4.24,15.13h.1l4.22-15.13h2.34L473.53,132h-2.66l-5.32-17.57Z" transform="translate(0 -3.09)" fill="#231f20"/><path d="M486.68,130.29V120.9h-4.3v-1.71h6.42v11.1h4.27V132H482.38v-1.71Zm-.49-14.76a1.39,1.39,0,0,1,1.54-1.37,1.38,1.38,0,1,1,0,2.74A1.4,1.4,0,0,1,486.19,115.53Z" transform="translate(0 -3.09)" fill="#231f20"/><path d="M497,130.34l1-1.42a6.73,6.73,0,0,0,4.42,1.71c2.07,0,3.17-.78,3.17-2,0-1.07-.54-1.71-3-2.19l-.64-.15c-3.17-.63-4.34-1.85-4.34-3.61,0-2.32,2-3.76,5-3.76a7.46,7.46,0,0,1,5.12,1.83L506.68,122a5.72,5.72,0,0,0-3.9-1.49c-2,0-3,.73-3,1.83s.64,1.64,2.91,2.1l.63.12c3.25.68,4.47,1.88,4.47,3.78,0,2.42-2.08,4-5.25,4A8.45,8.45,0,0,1,497,130.34Z" transform="translate(0 -3.09)" fill="#231f20"/><path d="M516.92,130.29V120.9h-4.29v-1.71h6.42v11.1h4.27V132H512.63v-1.71Zm-.48-14.76a1.39,1.39,0,0,1,1.53-1.37,1.38,1.38,0,1,1,0,2.74A1.4,1.4,0,0,1,516.44,115.53Z" transform="translate(0 -3.09)" fill="#231f20"/><path d="M529.27,130.51l-.18,1.49h-1.78V114.43h2.15v6.27a4.83,4.83,0,0,1,3.81-1.83c3.12,0,5.24,2.37,5.24,6.54,0,4.34-2.24,6.91-5.39,6.91A5.06,5.06,0,0,1,529.27,130.51Zm7-5c0-3.29-1.39-4.78-3.34-4.78a4.22,4.22,0,0,0-3.47,2v6a4.25,4.25,0,0,0,3.39,1.83C534.8,130.51,536.27,128.78,536.27,125.48Z" transform="translate(0 -3.09)" fill="#231f20"/><path d="M546.73,130.39V116h-4.05v-1.61h6.2v16h4.27V132H542.46v-1.61Z" transform="translate(0 -3.09)" fill="#231f20"/><path d="M557.15,125.68c0-4.05,2.53-6.81,6.14-6.81s5.52,2.15,5.52,6.25a10.11,10.11,0,0,1-.07,1.14h-9.3c0,2.59,1.49,4.25,4.22,4.25a6.84,6.84,0,0,0,4.05-1.39l.76,1.44a8.15,8.15,0,0,1-5.08,1.76C559.68,132.32,557.15,130.05,557.15,125.68Zm6.1-5.1a3.93,3.93,0,0,0-3.83,3.93h7.29C566.66,122.21,565.64,120.58,563.25,120.58Z" transform="translate(0 -3.09)" fill="#231f20"/><path d="M602.54,19.1V5.29h-3.71V3.41h9.68V5.29h-3.73V19.1h3.73V21h-9.68V19.1Z" transform="translate(0 -3.09)" fill="#c67a2a"/><path d="M615.37,8.17l.09,1.85a5.81,5.81,0,0,1,4.44-2.17c3.1,0,4.23,2,4.23,4.76V21H622V13c0-2.22-.85-3.32-2.76-3.32a5.06,5.06,0,0,0-3.61,2.07V21h-2.15V8.17Z" transform="translate(0 -3.09)" fill="#c67a2a"/><path d="M632.39,19.37V9.85h-3.66V8.51l3.66-.34V6.8c0-2.19,1.25-3.39,3.54-3.39h3.32V5.17h-3a1.52,1.52,0,0,0-1.73,1.73V8.17h4.27V9.85h-4.27v9.52h4.56V21H628.61V19.37Z" transform="translate(0 -3.09)" fill="#c67a2a"/><path d="M647,19.37V9.78h-3.54V8.17h5.35l.12,2.05a3.71,3.71,0,0,1,3.36-2.37h2.37v2h-2.41c-1.25,0-2.32.73-3.1,2.36v7.13h4.75V21H643.44V19.37Z" transform="translate(0 -3.09)" fill="#c67a2a"/><path d="M658.47,17.78c0-2.36,1.8-4.27,5.88-4.27a21.42,21.42,0,0,1,2.93.17V12.44c0-2-1-2.86-3.25-2.88a7.33,7.33,0,0,0-4.24,1.56l-.74-1.44a8.2,8.2,0,0,1,5.18-1.83c3.27,0,5.19,1.64,5.19,4.52V21h-1.8l-.17-2.22a5,5,0,0,1-4.71,2.53C660,21.29,658.47,19.78,658.47,17.78Zm8.81-1.9v-.59a21.11,21.11,0,0,0-2.81-.17c-2.76,0-3.88,1-3.88,2.49,0,1.27,1,2.15,2.66,2.15A3.88,3.88,0,0,0,667.28,15.88Z" transform="translate(0 -3.09)" fill="#c67a2a"/><path d="M677.23,19.37V9.78h-3.54V8.17H679l.12,2.05a3.74,3.74,0,0,1,3.37-2.37h2.37v2h-2.42c-1.24,0-2.32.73-3.1,2.36v7.13h4.76V21H673.69V19.37Z" transform="translate(0 -3.09)" fill="#c67a2a"/><path d="M688.62,14.66c0-4.05,2.53-6.81,6.15-6.81s5.51,2.15,5.51,6.25a8.21,8.21,0,0,1-.07,1.14h-9.3c.05,2.59,1.49,4.25,4.22,4.25a6.84,6.84,0,0,0,4-1.39l.76,1.44a8.14,8.14,0,0,1-5.08,1.75C691.15,21.29,688.62,19,688.62,14.66Zm6.1-5.1a3.93,3.93,0,0,0-3.83,3.93h7.29C698.13,11.19,697.11,9.56,694.72,9.56Z" transform="translate(0 -3.09)" fill="#c67a2a"/><path d="M703.59,14.73c0-4.22,2.18-6.88,5.42-6.88a4.94,4.94,0,0,1,3.64,1.59v-6h2.14V21h-1.95l-.07-1.69a4.81,4.81,0,0,1-3.88,2C705.45,21.29,703.59,18.64,703.59,14.73Zm9.06,2.71v-6a4.21,4.21,0,0,0-3.39-1.83c-2,0-3.42,1.73-3.42,5,0,3.08,1.22,4.76,3.39,4.76A4.18,4.18,0,0,0,712.65,17.44Z" transform="translate(0 -3.09)" fill="#c67a2a"/><path d="M973.52,3.41c4.17,0,6.07,2.07,6.07,5.22a4.89,4.89,0,0,1-2.88,4.81L980.57,21H978.1l-3.53-7a8.88,8.88,0,0,1-1.71.13h-2.59V21H968V3.41Zm3.78,5.37c0-2.22-1.15-3.37-3.86-3.37h-3.17v6.93h3C976,12.34,977.3,11.07,977.3,8.78Z" transform="translate(0 -3.09)" fill="#231f20"/><path d="M983.1,17.78c0-2.36,1.81-4.27,5.88-4.27a21.33,21.33,0,0,1,2.93.17V12.44c0-2-1-2.86-3.25-2.88a7.35,7.35,0,0,0-4.24,1.56l-.73-1.44a8.17,8.17,0,0,1,5.17-1.83c3.27,0,5.2,1.64,5.2,4.52V21h-1.81l-.17-2.22a5,5,0,0,1-4.71,2.53C984.66,21.29,983.1,19.78,983.1,17.78Zm8.81-1.9v-.59a20.9,20.9,0,0,0-2.81-.17c-2.75,0-3.88,1-3.88,2.49,0,1.27,1,2.15,2.66,2.15A3.88,3.88,0,0,0,991.91,15.88Z" transform="translate(0 -3.09)" fill="#231f20"/><path d="M998,14.73c0-4.22,2.17-6.88,5.42-6.88A4.93,4.93,0,0,1,1007,9.44v-6h2.15V21h-1.95l-.07-1.69a4.81,4.81,0,0,1-3.88,2C999.84,21.29,998,18.64,998,14.73Zm9,2.71v-6a4.2,4.2,0,0,0-3.39-1.83c-1.95,0-3.41,1.73-3.41,5,0,3.08,1.22,4.76,3.39,4.76A4.16,4.16,0,0,0,1007,17.44Z" transform="translate(0 -3.09)" fill="#231f20"/><path d="M1018.4,19.27V9.88h-4.29V8.17h6.41v11.1h4.27V21h-10.68V19.27Zm-.49-14.76a1.39,1.39,0,0,1,1.54-1.37A1.36,1.36,0,0,1,1021,4.51a1.35,1.35,0,0,1-1.51,1.37A1.4,1.4,0,0,1,1017.91,4.51Z" transform="translate(0 -3.09)" fill="#231f20"/><path d="M1028.08,14.61c0-4.25,2.25-6.76,6.05-6.76s6.1,2.47,6.1,6.73-2.32,6.71-6.12,6.71S1028.08,18.81,1028.08,14.61Zm9.88,0c0-3.34-1.58-4.92-3.83-4.92s-3.78,1.63-3.78,4.92,1.54,4.91,3.78,4.91S1038,17.88,1038,14.58Z" transform="translate(0 -3.09)" fill="#231f20"/><path d="M785.75,114.75l3.32,11.34h.09l3.3-11.34h2.46l.42,17.57h-2l-.22-13.79H793l-3,10.35h-1.7l-3.08-10.35h-.07l-.22,13.79h-2l.39-17.57Z" transform="translate(0 -3.09)" fill="#231f20"/><path d="M803.48,130.61v-9.4h-4.29v-1.7h6.41v11.1h4.27v1.71H799.19v-1.71ZM803,115.85a1.4,1.4,0,0,1,1.54-1.37,1.37,1.37,0,1,1,0,2.73A1.4,1.4,0,0,1,803,115.85Z" transform="translate(0 -3.09)" fill="#231f20"/><path d="M813.51,126c0-4.19,2.56-6.78,6.17-6.78,3.24,0,5.12,1.78,5.27,4.76h-1.88a3.06,3.06,0,0,0-3.32-3c-2.49,0-4,1.88-4,5,0,2.78,1.46,4.91,4.22,4.91a6.46,6.46,0,0,0,4.07-1.56l.73,1.39a7.45,7.45,0,0,1-5.17,2C816,132.63,813.51,130.09,813.51,126Z" transform="translate(0 -3.09)" fill="#231f20"/><path d="M832.31,130.71v-9.59h-3.53v-1.61h5.34l.12,2a3.74,3.74,0,0,1,3.37-2.37H840v2h-2.41c-1.25,0-2.32.74-3.1,2.37v7.13h4.76v1.61H828.78v-1.61Z" transform="translate(0 -3.09)" fill="#231f20"/><path d="M843.41,126c0-4.25,2.25-6.76,6.05-6.76s6.1,2.46,6.1,6.73-2.32,6.71-6.12,6.71S843.41,130.14,843.41,126Zm9.88,0c0-3.34-1.58-4.93-3.83-4.93s-3.78,1.64-3.78,4.93,1.54,4.91,3.78,4.91S853.29,129.22,853.29,125.92Z" transform="translate(0 -3.09)" fill="#231f20"/><path d="M860,119.51l1.59,10.24h.07l2.08-10.1h1.73l2.1,10h.05l1.58-10.15h2.08l-2.52,12.81h-2.1l-2-9.84h-.07l-2.1,9.84h-2.12l-2.44-12.81Z" transform="translate(0 -3.09)" fill="#231f20"/><path d="M874.05,129.12c0-2.37,1.8-4.27,5.88-4.27a21.42,21.42,0,0,1,2.93.17v-1.24c0-2-1-2.86-3.25-2.88a7.33,7.33,0,0,0-4.24,1.56l-.74-1.44a8.2,8.2,0,0,1,5.18-1.83c3.27,0,5.19,1.63,5.19,4.51v8.62h-1.8l-.17-2.23a5,5,0,0,1-4.71,2.54C875.61,132.63,874.05,131.12,874.05,129.12Zm8.81-1.9v-.59a21.11,21.11,0,0,0-2.81-.17c-2.76,0-3.88,1-3.88,2.49,0,1.27,1,2.15,2.66,2.15A3.88,3.88,0,0,0,882.86,127.22Z" transform="translate(0 -3.09)" fill="#231f20"/><path d="M891.1,119.51l3.66,10.56h.07l3.74-10.56h2.17L896,132.32h-2.44l-4.7-12.81Z" transform="translate(0 -3.09)" fill="#231f20"/><path d="M904.2,126c0-4,2.54-6.81,6.15-6.81s5.51,2.15,5.51,6.24a8.26,8.26,0,0,1-.07,1.15h-9.3c0,2.59,1.49,4.25,4.22,4.25a6.84,6.84,0,0,0,4-1.39l.76,1.44a8.2,8.2,0,0,1-5.08,1.75C906.74,132.63,904.2,130.36,904.2,126Zm6.1-5.1a3.93,3.93,0,0,0-3.83,3.93h7.29C913.71,122.53,912.69,120.9,910.3,120.9Z" transform="translate(0 -3.09)" fill="#231f20"/><line x1="167.36" y1="43.58" x2="167.36" y2="83.62" fill="none" stroke="#231f20" stroke-miterlimit="10" stroke-width="4"/><line x1="395.69" y1="43.58" x2="395.69" y2="83.62" fill="none" stroke="#231f20" stroke-miterlimit="10" stroke-width="4"/><line x1="501.92" y1="43.58" x2="501.92" y2="83.62" fill="none" stroke="#231f20" stroke-miterlimit="10" stroke-width="4"/><line x1="528.78" y1="43.58" x2="528.78" y2="83.62" fill="none" stroke="#231f20" stroke-miterlimit="10" stroke-width="4"/><line x1="771.15" y1="43.58" x2="771.15" y2="83.62" fill="none" stroke="#231f20" stroke-miterlimit="10" stroke-width="4"/><line x1="920.72" y1="43.58" x2="920.72" y2="83.62" fill="none" stroke="#231f20" stroke-miterlimit="10" stroke-width="4"/><line x1="85.32" y1="52.87" x2="85.32" y2="26.7" fill="none" stroke="#231f20" stroke-linecap="round" stroke-miterlimit="10" stroke-width="2" stroke-dasharray="7"/><line x1="281.53" y1="100.5" x2="281.53" y2="74.32" fill="none" stroke="#231f20" stroke-linecap="round" stroke-miterlimit="10" stroke-width="2" stroke-dasharray="7"/><line x1="845.93" y1="100.5" x2="845.93" y2="74.32" fill="none" stroke="#231f20" stroke-linecap="round" stroke-miterlimit="10" stroke-width="2" stroke-dasharray="7"/><line x1="475.82" y1="99.92" x2="501.92" y2="83.62" fill="none" stroke="#231f20" stroke-linecap="round" stroke-miterlimit="10" stroke-width="2" stroke-dasharray="7"/><line x1="557.3" y1="99.92" x2="528.78" y2="83.62" fill="none" stroke="#c67a2a" stroke-linecap="round" stroke-miterlimit="10" stroke-width="2" stroke-dasharray="7"/><line x1="451.91" y1="56.67" x2="451.91" y2="30.49" fill="none" stroke="#231f20" stroke-linecap="round" stroke-miterlimit="10" stroke-width="2" stroke-dasharray="7"/><line x1="649.96" y1="56.67" x2="649.96" y2="30.49" fill="none" stroke="#c67a2a" stroke-linecap="round" stroke-miterlimit="10" stroke-width="2" stroke-dasharray="7"/><line x1="1003.75" y1="56.67" x2="1003.75" y2="30.49" fill="none" stroke="#231f20" stroke-linecap="round" stroke-miterlimit="10" stroke-width="2" stroke-dasharray="7"/><line x1="528.78" y1="63.6" x2="771.15" y2="63.6" fill="none" stroke="#c67a2a" stroke-miterlimit="10" stroke-width="4"/><line x1="771.15" y1="43.58" x2="771.15" y2="83.62" fill="none" stroke="#c67a2a" stroke-miterlimit="10" stroke-width="4"/><line x1="528.78" y1="43.58" x2="528.78" y2="83.62" fill="none" stroke="#c67a2a" stroke-miterlimit="10" stroke-width="4"/></svg>