<svg id="Layer_2" data-name="Layer 2" xmlns="http://www.w3.org/2000/svg" xmlns:xlink="http://www.w3.org/1999/xlink" viewBox="0 0 95.76 95.76"><defs><style>.cls-1,.cls-2,.cls-3{fill:#fff;}.cls-1{clip-rule:evenodd;}.cls-3{fill-rule:evenodd;}.cls-4{clip-path:url(#clip-path);}.cls-5{clip-path:url(#clip-path-2);}.cls-6{fill:#c67a2a;}</style><clipPath id="clip-path"><path class="cls-1" d="M17.37-722a30.23,30.23,0,0,1-8-20.47A30.16,30.16,0,0,1,18.32-764l.26-.26,2,1.94-.27.27a27.45,27.45,0,0,0-8.09,19.53A27.49,27.49,0,0,0,19.32-724l3.76-3.75a22.24,22.24,0,0,1-5.62-14.77A22.19,22.19,0,0,1,24-758.28l.26-.26,1.95,1.94-.27.27a19.5,19.5,0,0,0-5.73,13.85A19.49,19.49,0,0,0,25-729.66l4.65-4.65a13,13,0,0,1-2.89-8.17,12.93,12.93,0,0,1,3.81-9.21l.26-.26L32.8-750l-.27.27a10.18,10.18,0,0,0-3,7.26,10.06,10.06,0,0,0,2.1,6.21l3.46-3.46a5.41,5.41,0,0,1-.75-2.75,5.45,5.45,0,0,1,5.45-5.45,5.38,5.38,0,0,1,2.76.75l30.1-30.11a47.7,47.7,0,0,0-32.86-13.07A47.88,47.88,0,0,0-8.09-742.48,47.72,47.72,0,0,0,5-709.62Z"/></clipPath><clipPath id="clip-path-2"><path class="cls-1" d="M74.59-775.34,62.21-763a30.23,30.23,0,0,1,7.95,20.48A30.16,30.16,0,0,1,61.26-721l-.26.26-2-1.94.27-.27a27.45,27.45,0,0,0,8.09-19.52A27.5,27.5,0,0,0,60.26-761l-3.75,3.75a22.29,22.29,0,0,1,5.61,14.78,22.19,22.19,0,0,1-6.54,15.79l-.26.26-2-1.94.27-.27a19.43,19.43,0,0,0,5.73-13.84,19.5,19.5,0,0,0-4.81-12.83l-4.65,4.65a13,13,0,0,1,2.89,8.18,12.93,12.93,0,0,1-3.81,9.2l-.26.26L46.78-735l.27-.27a10.17,10.17,0,0,0,3-7.25A10.06,10.06,0,0,0,48-748.7l-3.46,3.46a5.45,5.45,0,0,1,.75,2.76,5.47,5.47,0,0,1-4.07,5.27v31.89H38.42v-31.89a5.81,5.81,0,0,1-1.39-.57l-30.1,30.1a47.7,47.7,0,0,0,32.86,13.07,47.88,47.88,0,0,0,47.88-47.87,47.69,47.69,0,0,0-13.08-32.86"/></clipPath></defs><circle class="cls-2" cx="47.88" cy="47.88" r="47.88"/><path class="cls-3" d="M17.37-722a30.23,30.23,0,0,1-8-20.47A30.16,30.16,0,0,1,18.32-764l.26-.26,2,1.94-.27.27a27.45,27.45,0,0,0-8.09,19.53A27.49,27.49,0,0,0,19.32-724l3.76-3.75a22.24,22.24,0,0,1-5.62-14.77A22.19,22.19,0,0,1,24-758.28l.26-.26,1.95,1.94-.27.27a19.5,19.5,0,0,0-5.73,13.85A19.49,19.49,0,0,0,25-729.66l4.65-4.65a13,13,0,0,1-2.89-8.17,12.93,12.93,0,0,1,3.81-9.21l.26-.26L32.8-750l-.27.27a10.18,10.18,0,0,0-3,7.26,10.06,10.06,0,0,0,2.1,6.21l3.46-3.46a5.41,5.41,0,0,1-.75-2.75,5.45,5.45,0,0,1,5.45-5.45,5.38,5.38,0,0,1,2.76.75l30.1-30.11a47.7,47.7,0,0,0-32.86-13.07A47.88,47.88,0,0,0-8.09-742.48,47.72,47.72,0,0,0,5-709.62Z"/><g class="cls-4"><rect class="cls-2" x="-160.09" y="-2732.36" width="1400" height="6482"/></g><path class="cls-3" d="M74.59-775.34,62.21-763a30.23,30.23,0,0,1,7.95,20.48A30.16,30.16,0,0,1,61.26-721l-.26.26-2-1.94.27-.27a27.45,27.45,0,0,0,8.09-19.52A27.5,27.5,0,0,0,60.26-761l-3.75,3.75a22.29,22.29,0,0,1,5.61,14.78,22.19,22.19,0,0,1-6.54,15.79l-.26.26-2-1.94.27-.27a19.43,19.43,0,0,0,5.73-13.84,19.5,19.5,0,0,0-4.81-12.83l-4.65,4.65a13,13,0,0,1,2.89,8.18,12.93,12.93,0,0,1-3.81,9.2l-.26.26L46.78-735l.27-.27a10.17,10.17,0,0,0,3-7.25A10.06,10.06,0,0,0,48-748.7l-3.46,3.46a5.45,5.45,0,0,1,.75,2.76,5.47,5.47,0,0,1-4.07,5.27v31.89H38.42v-31.89a5.81,5.81,0,0,1-1.39-.57l-30.1,30.1a47.7,47.7,0,0,0,32.86,13.07,47.88,47.88,0,0,0,47.88-47.87,47.69,47.69,0,0,0-13.08-32.86"/><g class="cls-5"><rect class="cls-2" x="-160.09" y="-2732.36" width="1400" height="6482"/></g><path class="cls-6" d="M47.88,17c-2,4.81-8,15.83-22.66,23,0,3.95,1.2,26.74,22.66,38.77C69.34,66.8,70.5,44,70.53,40.06,55.91,32.86,49.9,21.84,47.88,17ZM61.83,54.89h-9v9h-10v-9h-9v-10h9V36h10v9h9Z"/><path class="cls-6" d="M47.88,0A47.88,47.88,0,1,0,95.76,47.88,47.88,47.88,0,0,0,47.88,0Zm.48,80.85-.48.26-.48-.26c-25-13.65-24.18-41.18-24.17-41.46l0-.6.55-.26c14.78-7.07,20.57-18.16,22.37-22.6a1.84,1.84,0,0,1,3.41,0c1.81,4.44,7.6,15.53,22.38,22.6l.54.26,0,.6C72.54,39.67,73.39,67.2,48.36,80.85Z"/><polygon class="cls-6" points="50.86 37.95 44.89 37.95 44.89 46.91 35.93 46.91 35.93 52.88 44.89 52.88 44.89 61.85 50.86 61.85 50.86 52.88 59.83 52.88 59.83 46.91 50.86 46.91 50.86 37.95"/></svg>