<svg id="Layer_2" data-name="Layer 2" xmlns="http://www.w3.org/2000/svg" viewBox="0 0 95.76 95.76"><defs><style>.cls-1{fill:#fff;}</style></defs><path class="cls-1" d="M47.88,17c-2,4.81-8,15.83-22.66,23,0,3.95,1.2,26.74,22.66,38.77C69.34,66.8,70.5,44,70.53,40.06,55.91,32.86,49.9,21.84,47.88,17ZM61.83,54.89h-9v9h-10v-9h-9v-10h9V36h10v9h9Z"/><path class="cls-1" d="M47.88,0A47.88,47.88,0,1,0,95.76,47.88,47.88,47.88,0,0,0,47.88,0Zm.48,80.85-.48.26-.48-.26c-25-13.65-24.18-41.18-24.17-41.46l0-.6.55-.26c14.78-7.07,20.57-18.16,22.37-22.6a1.84,1.84,0,0,1,3.41,0c1.81,4.44,7.6,15.53,22.38,22.6l.54.26,0,.6C72.54,39.67,73.39,67.2,48.36,80.85Z"/><polygon class="cls-1" points="50.86 37.95 44.89 37.95 44.89 46.91 35.93 46.91 35.93 52.88 44.89 52.88 44.89 61.85 50.86 61.85 50.86 52.88 59.83 52.88 59.83 46.91 50.86 46.91 50.86 37.95"/></svg>