<svg id="Layer_1" data-name="Layer 1" xmlns="http://www.w3.org/2000/svg" viewBox="0 0 40 40"><defs><style>.cls-1{fill:#fff;}</style></defs><path class="cls-1" d="M18.56.08h2.85Q26,.08,31.82,3.86a20.54,20.54,0,0,1,6.38,7.93A19.48,19.48,0,0,1,40,19v1.65q0,6.63-5.45,13.14A20.39,20.39,0,0,1,19.86,40q-10.44,0-17-9.71A21.65,21.65,0,0,1,0,20q0-8.34,6.87-15Q13.24.08,18.56.08ZM9.33,17.35v6.17c0,3.36,1.06,5.6,3.2,6.73q1.43.81,9.23.6c4,0,6.27-.44,6.86-1.3,1.34-1.08,2-2.85,2-5.33V16.29q0-4.69-3.32-6.15l-1.47-.49-1.5-.11H15.73A6,6,0,0,0,9.56,14,20.74,20.74,0,0,0,9.33,17.35Zm6.75-5.91h8.27c3,0,4.5,1.57,4.5,4.73v8.39Q28.25,29,25.19,29H21.76c-1.61,0-3.3,0-5.08.11q-4.47,0-5.22-2.83a36.14,36.14,0,0,1-.23-4.73V18.88c0-3.94.31-5.91.95-5.91Q13.13,11.44,16.08,11.44Zm-1.54,8.88c0,2.54,1.46,4.32,4.39,5.31h2.36q4.25-1.53,4.25-5.43V20a5.53,5.53,0,0,0-5.43-5.2H20q-3.66,0-5.1,3.78A5.4,5.4,0,0,0,14.54,20.32ZM20,16.63h.12a3.42,3.42,0,0,1,3.43,2.74,1.68,1.68,0,0,1,.12.83c-.38,2.44-1.56,3.67-3.55,3.67a3.56,3.56,0,0,1-3.43-2.37,2.9,2.9,0,0,1-.26-1.18Q16.86,16.63,20,16.63Zm4.48-2c.35.79.79,1.18,1.32,1.18s1-.39,1.3-1.18q-.27-1.44-1.44-1.44A1.46,1.46,0,0,0,24.47,14.64Z"/></svg>