<svg id="Layer_2" data-name="Layer 2" xmlns="http://www.w3.org/2000/svg" xmlns:xlink="http://www.w3.org/1999/xlink" viewBox="0 0 16.2 11.94"><defs><style>.cls-1,.cls-2,.cls-4{fill:#fff;}.cls-1{clip-rule:evenodd;}.cls-2{fill-rule:evenodd;}.cls-3{clip-path:url(#clip-path);}.cls-5{clip-path:url(#clip-path-2);}.cls-6{fill:none;stroke:#231f20;stroke-miterlimit:10;}</style><clipPath id="clip-path"><path class="cls-1" d="M-16-1187.35A30.23,30.23,0,0,1-24-1207.83a30.16,30.16,0,0,1,8.9-21.47l.26-.26,2,1.94-.27.27a27.4,27.4,0,0,0-8.09,19.52,27.5,27.5,0,0,0,7.15,18.53l3.75-3.76a22.24,22.24,0,0,1-5.61-14.77,22.19,22.19,0,0,1,6.54-15.79l.26-.26,2,1.94-.27.27a19.43,19.43,0,0,0-5.73,13.84A19.5,19.5,0,0,0-8.37-1195l4.65-4.66a13,13,0,0,1-2.89-8.17A12.93,12.93,0,0,1-2.8-1217l.26-.26,2,1.94-.27.27a10.17,10.17,0,0,0-3,7.25,10.12,10.12,0,0,0,2.09,6.22l3.47-3.46a5.45,5.45,0,0,1-.75-2.76,5.46,5.46,0,0,1,5.45-5.45,5.41,5.41,0,0,1,2.75.75l30.11-30.1A47.72,47.72,0,0,0,6.4-1255.71a47.88,47.88,0,0,0-47.88,47.88A47.68,47.68,0,0,0-28.41-1175Z"/></clipPath><clipPath id="clip-path-2"><path class="cls-1" d="M41.2-1240.69,28.82-1228.3a30.23,30.23,0,0,1,8,20.47,30.16,30.16,0,0,1-8.9,21.48l-.26.26L25.66-1188l.27-.27A27.45,27.45,0,0,0,34-1207.83a27.47,27.47,0,0,0-7.15-18.52l-3.76,3.75a22.24,22.24,0,0,1,5.62,14.77A22.15,22.15,0,0,1,22.19-1192l-.27.27L20-1193.71l.26-.27A19.45,19.45,0,0,0,26-1207.83a19.54,19.54,0,0,0-4.81-12.82L16.51-1216a13,13,0,0,1,2.9,8.17,12.93,12.93,0,0,1-3.81,9.21l-.27.26-1.94-1.94.27-.27a10.22,10.22,0,0,0,3-7.26,10.11,10.11,0,0,0-2.1-6.22l-3.46,3.47a5.41,5.41,0,0,1,.75,2.75,5.47,5.47,0,0,1-4.08,5.28v31.89H5v-31.89a5.54,5.54,0,0,1-1.38-.58L-26.46-1173A47.68,47.68,0,0,0,6.4-1159.95a47.88,47.88,0,0,0,47.88-47.88,47.72,47.72,0,0,0-13.08-32.86"/></clipPath></defs><path class="cls-2" d="M-16-1187.35A30.23,30.23,0,0,1-24-1207.83a30.16,30.16,0,0,1,8.9-21.47l.26-.26,2,1.94-.27.27a27.4,27.4,0,0,0-8.09,19.52,27.5,27.5,0,0,0,7.15,18.53l3.75-3.76a22.24,22.24,0,0,1-5.61-14.77,22.19,22.19,0,0,1,6.54-15.79l.26-.26,2,1.94-.27.27a19.43,19.43,0,0,0-5.73,13.84A19.5,19.5,0,0,0-8.37-1195l4.65-4.66a13,13,0,0,1-2.89-8.17A12.93,12.93,0,0,1-2.8-1217l.26-.26,2,1.94-.27.27a10.17,10.17,0,0,0-3,7.25,10.12,10.12,0,0,0,2.09,6.22l3.47-3.46a5.45,5.45,0,0,1-.75-2.76,5.46,5.46,0,0,1,5.45-5.45,5.41,5.41,0,0,1,2.75.75l30.11-30.1A47.72,47.72,0,0,0,6.4-1255.71a47.88,47.88,0,0,0-47.88,47.88A47.68,47.68,0,0,0-28.41-1175Z"/><g class="cls-3"><rect class="cls-4" x="-193.48" y="-3197.71" width="1400" height="6482"/></g><path class="cls-2" d="M41.2-1240.69,28.82-1228.3a30.23,30.23,0,0,1,8,20.47,30.16,30.16,0,0,1-8.9,21.48l-.26.26L25.66-1188l.27-.27A27.45,27.45,0,0,0,34-1207.83a27.47,27.47,0,0,0-7.15-18.52l-3.76,3.75a22.24,22.24,0,0,1,5.62,14.77A22.15,22.15,0,0,1,22.19-1192l-.27.27L20-1193.71l.26-.27A19.45,19.45,0,0,0,26-1207.83a19.54,19.54,0,0,0-4.81-12.82L16.51-1216a13,13,0,0,1,2.9,8.17,12.93,12.93,0,0,1-3.81,9.21l-.27.26-1.94-1.94.27-.27a10.22,10.22,0,0,0,3-7.26,10.11,10.11,0,0,0-2.1-6.22l-3.46,3.47a5.41,5.41,0,0,1,.75,2.75,5.47,5.47,0,0,1-4.08,5.28v31.89H5v-31.89a5.54,5.54,0,0,1-1.38-.58L-26.46-1173A47.68,47.68,0,0,0,6.4-1159.95a47.88,47.88,0,0,0,47.88-47.88,47.72,47.72,0,0,0-13.08-32.86"/><g class="cls-5"><rect class="cls-4" x="-193.48" y="-3197.71" width="1400" height="6482"/></g><polyline class="cls-6" points="8.1 2.03 8.1 11.44 0.5 11.44 0.5 2.03 2.56 2.03"/><path class="cls-6" d="M8.1,10.25l-.08,0a6.86,6.86,0,0,0-5.55-.44h0V1h0A5.5,5.5,0,0,1,8,1.49l.08,0Z"/><path class="cls-6" d="M8.1,10.25l.09,0a6.84,6.84,0,0,1,5.54-.44h0V1h0a5.48,5.48,0,0,0-5.54.45l-.09,0Z"/><polyline class="cls-6" points="13.65 2.03 15.7 2.03 15.7 11.44 8.1 11.44 8.1 2.03"/></svg>