<svg id="Layer_2" data-name="Layer 2" xmlns="http://www.w3.org/2000/svg" xmlns:xlink="http://www.w3.org/1999/xlink" viewBox="0 0 9.45 9.45"><defs><style>.cls-1,.cls-2,.cls-4{fill:#fff;}.cls-1{clip-rule:evenodd;}.cls-2{fill-rule:evenodd;}.cls-3{clip-path:url(#clip-path);}.cls-5{clip-path:url(#clip-path-2);}.cls-6{fill:none;stroke:#231f20;stroke-miterlimit:10;}</style><clipPath id="clip-path"><path class="cls-1" d="M-69.42-1189.37a30.21,30.21,0,0,1-8-20.47,30.17,30.17,0,0,1,8.89-21.47l.27-.27,1.94,1.95-.26.26a27.43,27.43,0,0,0-8.09,19.53,27.51,27.51,0,0,0,7.14,18.53l3.76-3.76a22.25,22.25,0,0,1-5.62-14.77,22.23,22.23,0,0,1,6.54-15.79l.27-.26,1.94,1.94-.26.26a19.46,19.46,0,0,0-5.74,13.85A19.51,19.51,0,0,0-61.77-1197l4.65-4.66a13,13,0,0,1-2.9-8.17,13,13,0,0,1,3.81-9.2l.27-.26,1.94,1.94-.26.26a10.2,10.2,0,0,0-3,7.26,10.13,10.13,0,0,0,2.1,6.22l3.47-3.46a5.35,5.35,0,0,1-.75-2.76,5.46,5.46,0,0,1,5.45-5.45,5.41,5.41,0,0,1,2.75.75l30.11-30.1A47.72,47.72,0,0,0-47-1257.72a47.88,47.88,0,0,0-47.88,47.88A47.68,47.68,0,0,0-81.81-1177Z"/></clipPath><clipPath id="clip-path-2"><path class="cls-1" d="M-12.2-1242.7l-12.39,12.39a30.21,30.21,0,0,1,8,20.47,30.17,30.17,0,0,1-8.89,21.47l-.27.27-1.94-2,.26-.26a27.43,27.43,0,0,0,8.09-19.53,27.51,27.51,0,0,0-7.14-18.53l-3.76,3.76a22.2,22.2,0,0,1,5.62,14.77A22.19,22.19,0,0,1-31.21-1194l-.27.27-1.94-2,.26-.26a19.46,19.46,0,0,0,5.74-13.85,19.5,19.5,0,0,0-4.82-12.82l-4.65,4.65a13,13,0,0,1,2.9,8.17,12.93,12.93,0,0,1-3.81,9.2l-.27.27-1.94-2,.26-.26a10.2,10.2,0,0,0,3-7.26,10.17,10.17,0,0,0-2.1-6.22l-3.46,3.47a5.41,5.41,0,0,1,.75,2.75,5.47,5.47,0,0,1-4.08,5.28v31.89h-2.75v-31.89a5.39,5.39,0,0,1-1.38-.58L-79.86-1175A47.68,47.68,0,0,0-47-1162,47.88,47.88,0,0,0,.87-1209.84,47.71,47.71,0,0,0-12.2-1242.7"/></clipPath></defs><path class="cls-2" d="M-69.42-1189.37a30.21,30.21,0,0,1-8-20.47,30.17,30.17,0,0,1,8.89-21.47l.27-.27,1.94,1.95-.26.26a27.43,27.43,0,0,0-8.09,19.53,27.51,27.51,0,0,0,7.14,18.53l3.76-3.76a22.25,22.25,0,0,1-5.62-14.77,22.23,22.23,0,0,1,6.54-15.79l.27-.26,1.94,1.94-.26.26a19.46,19.46,0,0,0-5.74,13.85A19.51,19.51,0,0,0-61.77-1197l4.65-4.66a13,13,0,0,1-2.9-8.17,13,13,0,0,1,3.81-9.2l.27-.26,1.94,1.94-.26.26a10.2,10.2,0,0,0-3,7.26,10.13,10.13,0,0,0,2.1,6.22l3.47-3.46a5.35,5.35,0,0,1-.75-2.76,5.46,5.46,0,0,1,5.45-5.45,5.41,5.41,0,0,1,2.75.75l30.11-30.1A47.72,47.72,0,0,0-47-1257.72a47.88,47.88,0,0,0-47.88,47.88A47.68,47.68,0,0,0-81.81-1177Z"/><g class="cls-3"><rect class="cls-4" x="-246.88" y="-3199.72" width="1400" height="6482"/></g><path class="cls-2" d="M-12.2-1242.7l-12.39,12.39a30.21,30.21,0,0,1,8,20.47,30.17,30.17,0,0,1-8.89,21.47l-.27.27-1.94-2,.26-.26a27.43,27.43,0,0,0,8.09-19.53,27.51,27.51,0,0,0-7.14-18.53l-3.76,3.76a22.2,22.2,0,0,1,5.62,14.77A22.19,22.19,0,0,1-31.21-1194l-.27.27-1.94-2,.26-.26a19.46,19.46,0,0,0,5.74-13.85,19.5,19.5,0,0,0-4.82-12.82l-4.65,4.65a13,13,0,0,1,2.9,8.17,12.93,12.93,0,0,1-3.81,9.2l-.27.27-1.94-2,.26-.26a10.2,10.2,0,0,0,3-7.26,10.17,10.17,0,0,0-2.1-6.22l-3.46,3.47a5.41,5.41,0,0,1,.75,2.75,5.47,5.47,0,0,1-4.08,5.28v31.89h-2.75v-31.89a5.39,5.39,0,0,1-1.38-.58L-79.86-1175A47.68,47.68,0,0,0-47-1162,47.88,47.88,0,0,0,.87-1209.84,47.71,47.71,0,0,0-12.2-1242.7"/><g class="cls-5"><rect class="cls-4" x="-246.88" y="-3199.72" width="1400" height="6482"/></g><polyline class="cls-6" points="6.29 0.5 8.95 0.5 8.95 3.12"/><polyline class="cls-6" points="8.95 4.43 8.95 8.95 0.5 8.95 0.5 0.5 4.98 0.5"/><line class="cls-6" x1="8.95" y1="0.5" x2="4.72" y2="4.72"/></svg>