<svg id="Layer_2" data-name="Layer 2" xmlns="http://www.w3.org/2000/svg" xmlns:xlink="http://www.w3.org/1999/xlink" viewBox="0 0 9.37 10.98"><defs><style>.cls-1,.cls-2,.cls-4{fill:#fff;}.cls-1{clip-rule:evenodd;}.cls-2{fill-rule:evenodd;}.cls-3{clip-path:url(#clip-path);}.cls-5{clip-path:url(#clip-path-2);}.cls-6{fill:none;stroke:#231f20;stroke-miterlimit:10;}</style><clipPath id="clip-path"><path class="cls-1" d="M-45.5-1187.84a30.21,30.21,0,0,1-8-20.47,30.14,30.14,0,0,1,8.9-21.47l.26-.27,1.95,2-.27.26a27.43,27.43,0,0,0-8.09,19.53,27.52,27.52,0,0,0,7.15,18.53l3.75-3.76a22.24,22.24,0,0,1-5.61-14.77,22.19,22.19,0,0,1,6.54-15.79l.26-.26,2,1.94-.27.26a19.45,19.45,0,0,0-5.73,13.85,19.5,19.5,0,0,0,4.81,12.83l4.65-4.66a13,13,0,0,1-2.89-8.17,12.93,12.93,0,0,1,3.81-9.2l.26-.26,2,1.94-.27.26a10.2,10.2,0,0,0-3,7.26,10.06,10.06,0,0,0,2.1,6.22l3.46-3.46a5.45,5.45,0,0,1-.75-2.76,5.46,5.46,0,0,1,5.45-5.45,5.41,5.41,0,0,1,2.75.75l30.11-30.1a47.7,47.7,0,0,0-32.86-13.08A47.88,47.88,0,0,0-71-1208.31a47.72,47.72,0,0,0,13.07,32.86Z"/></clipPath><clipPath id="clip-path-2"><path class="cls-1" d="M11.72-1241.17-.66-1228.78a30.21,30.21,0,0,1,8,20.47,30.14,30.14,0,0,1-8.9,21.47l-.26.27-1.95-2,.27-.26a27.47,27.47,0,0,0,8.09-19.53,27.52,27.52,0,0,0-7.15-18.53l-3.76,3.76a22.2,22.2,0,0,1,5.62,14.77,22.15,22.15,0,0,1-6.54,15.79l-.27.27-1.94-2,.26-.26a19.46,19.46,0,0,0,5.74-13.85,19.54,19.54,0,0,0-4.81-12.82l-4.66,4.65a13,13,0,0,1,2.9,8.17,12.89,12.89,0,0,1-3.81,9.2l-.27.27-1.94-2,.27-.26a10.24,10.24,0,0,0,3-7.26,10.11,10.11,0,0,0-2.1-6.22l-3.46,3.47a5.41,5.41,0,0,1,.75,2.75,5.47,5.47,0,0,1-4.08,5.28v31.89h-2.75V-1203a5.54,5.54,0,0,1-1.38-.58l-30.1,30.11a47.68,47.68,0,0,0,32.86,13.07,47.88,47.88,0,0,0,47.88-47.88,47.72,47.72,0,0,0-13.08-32.86"/></clipPath></defs><path class="cls-2" d="M-45.5-1187.84a30.21,30.21,0,0,1-8-20.47,30.14,30.14,0,0,1,8.9-21.47l.26-.27,1.95,2-.27.26a27.43,27.43,0,0,0-8.09,19.53,27.52,27.52,0,0,0,7.15,18.53l3.75-3.76a22.24,22.24,0,0,1-5.61-14.77,22.19,22.19,0,0,1,6.54-15.79l.26-.26,2,1.94-.27.26a19.45,19.45,0,0,0-5.73,13.85,19.5,19.5,0,0,0,4.81,12.83l4.65-4.66a13,13,0,0,1-2.89-8.17,12.93,12.93,0,0,1,3.81-9.2l.26-.26,2,1.94-.27.26a10.2,10.2,0,0,0-3,7.26,10.06,10.06,0,0,0,2.1,6.22l3.46-3.46a5.45,5.45,0,0,1-.75-2.76,5.46,5.46,0,0,1,5.45-5.45,5.41,5.41,0,0,1,2.75.75l30.11-30.1a47.7,47.7,0,0,0-32.86-13.08A47.88,47.88,0,0,0-71-1208.31a47.72,47.72,0,0,0,13.07,32.86Z"/><g class="cls-3"><rect class="cls-4" x="-222.96" y="-3198.19" width="1400" height="6482"/></g><path class="cls-2" d="M11.72-1241.17-.66-1228.78a30.21,30.21,0,0,1,8,20.47,30.14,30.14,0,0,1-8.9,21.47l-.26.27-1.95-2,.27-.26a27.47,27.47,0,0,0,8.09-19.53,27.52,27.52,0,0,0-7.15-18.53l-3.76,3.76a22.2,22.2,0,0,1,5.62,14.77,22.15,22.15,0,0,1-6.54,15.79l-.27.27-1.94-2,.26-.26a19.46,19.46,0,0,0,5.74-13.85,19.54,19.54,0,0,0-4.81-12.82l-4.66,4.65a13,13,0,0,1,2.9,8.17,12.89,12.89,0,0,1-3.81,9.2l-.27.27-1.94-2,.27-.26a10.24,10.24,0,0,0,3-7.26,10.11,10.11,0,0,0-2.1-6.22l-3.46,3.47a5.41,5.41,0,0,1,.75,2.75,5.47,5.47,0,0,1-4.08,5.28v31.89h-2.75V-1203a5.54,5.54,0,0,1-1.38-.58l-30.1,30.11a47.68,47.68,0,0,0,32.86,13.07,47.88,47.88,0,0,0,47.88-47.88,47.72,47.72,0,0,0-13.08-32.86"/><g class="cls-5"><rect class="cls-4" x="-222.96" y="-3198.19" width="1400" height="6482"/></g><polygon class="cls-6" points="8.87 3.44 8.87 10.48 0.5 10.48 0.5 0.5 5.93 0.5 8.87 3.44"/><polyline class="cls-6" points="8.87 3.48 5.92 3.48 5.92 0.5"/><line class="cls-6" x1="2.03" y1="5.49" x2="7.34" y2="5.49"/><line class="cls-6" x1="2.03" y1="7.27" x2="7.34" y2="7.27"/></svg>