<svg width="476" height="226" xmlns="http://www.w3.org/2000/svg"><path opacity=".2" d="M441.68 29.564C420.642 9.964 393.206-.27 364.43.75c-28.769 1.034-55.405 13.186-75 34.238l-31.165 33.468-33.62-31.298C197.592 11.943 162.309-1.23 125.31.09 88.334 1.417 54.092 17.06 28.891 44.136 9.282 65.194-.962 92.638.071 121.407c1.019 28.778 13.183 55.422 34.243 75.036 21.045 19.6 48.473 29.833 77.25 28.807 28.776-1.026 55.405-13.187 75.006-34.23l31.158-33.469 33.62 31.299c27.054 25.215 62.337 38.379 99.335 37.06 36.976-1.327 71.22-16.97 96.42-44.046 19.608-21.051 29.853-48.502 28.827-77.271-1.026-28.77-13.19-55.414-34.25-75.03zM164.576 170.465c-14.023 15.058-33.099 23.75-53.702 24.485-20.597.734-40.238-6.586-55.311-20.608-15.073-14.03-23.785-33.096-24.512-53.675-.742-20.579 6.59-40.21 20.633-55.283 19.65-21.085 46.35-33.28 75.173-34.315 28.845-1.02 56.354 9.229 77.457 28.883L238 91.293l-21.022 22.568-33.701-31.349c-15.073-14.03-34.714-21.356-55.303-20.622h-.008c-20.596.741-39.665 9.441-53.702 24.513-8.432 9.038-12.825 20.821-12.384 33.163.44 12.348 5.663 23.794 14.713 32.215 9.336 8.685 21.338 12.774 33.186 12.348 11.84-.418 23.527-5.352 32.217-14.683l10.518-11.277-22.58-21.019-10.51 11.284c-5.803 6.226-15.58 6.571-21.809.779a15.358 15.358 0 01-4.9-10.741c-.154-4.119 1.316-8.04 4.121-11.057 8.433-9.045 19.877-14.265 32.232-14.705 12.348-.44 24.137 3.95 33.186 12.378l33.694 31.341-.323.345.19.17-31.24 33.521zm259.734-9.843c-19.648 21.085-46.34 33.272-75.17 34.308-28.845 1.027-56.345-9.229-77.455-28.875L238 134.713l21.022-22.568 33.7 31.342c15.072 14.037 34.713 21.357 55.301 20.63.007 0 .007-.008.007-.008 20.596-.734 39.664-9.434 53.708-24.513 8.418-9.03 12.817-20.814 12.384-33.163-.448-12.348-5.67-23.78-14.712-32.207-9.343-8.693-21.345-12.775-33.193-12.356-11.84.425-23.527 5.352-32.216 14.683l-10.518 11.284 22.579 21.012 10.51-11.284c5.796-6.219 15.58-6.564 21.809-.771a15.309 15.309 0 014.906 10.74 15.335 15.335 0 01-4.128 11.057c-8.432 9.038-19.868 14.265-32.223 14.705-12.362.441-24.15-3.957-33.193-12.378l-33.692-31.341.323-.352-.183-.17 31.224-33.521c14.03-15.058 33.104-23.75 53.708-24.485 20.595-.726 40.244 6.586 55.309 20.608 15.072 14.03 23.783 33.097 24.518 53.675.734 20.586-6.596 40.225-20.64 55.29z" fill="#D9661F" fill-rule="evenodd" /></svg>