<svg id="Layer_1" data-name="Layer 1" xmlns="http://www.w3.org/2000/svg" width="699.85" height="250.13" viewBox="0 0 699.85 250.13"><path d="M442.33,15.51a56.56,56.56,0,0,0-79.92,2.85L346.06,35.92,328.41,19.5A72.18,72.18,0,0,0,276.27.05h0a72.22,72.22,0,0,0-50.61,23.11,56.55,56.55,0,0,0,82.77,77.07l16.35-17.56,17.65,16.42a72.22,72.22,0,0,0,52.13,19.45h0a72.22,72.22,0,0,0,50.6-23.11,56.55,56.55,0,0,0-2.84-79.92m-9,68.91a56.55,56.55,0,0,1-79.92,2.84L335.79,70.84,346.8,59l17.64,16.42a40.12,40.12,0,0,0,29,10.81h0a40.17,40.17,0,0,0,28.12-12.84,24.23,24.23,0,0,0-35.47-33l-5.51,5.91,11.83,11,5.5-5.91a8.08,8.08,0,0,1,11.83,11,24.25,24.25,0,0,1-34.26,1.22L357.81,47.2,358,47l-.1-.09,16.36-17.57a40.39,40.39,0,1,1,59.11,55.06M296.6,89.22a40.39,40.39,0,1,1-59.11-55,56.54,56.54,0,0,1,79.92-2.85l17.64,16.42L324,59.57,306.39,43.14a40.08,40.08,0,0,0-29-10.8h0a40.09,40.09,0,0,0-28.12,12.84,24.23,24.23,0,0,0,35.47,33l5.51-5.91-11.83-11L273,67.2A8.08,8.08,0,0,1,259,62a8,8,0,0,1,2.16-5.79A24.23,24.23,0,0,1,295.39,55L313,71.39l-.17.18.1.09Z" fill="#D8661F"/></svg>