<svg id="Layer_2" data-name="Layer 2" xmlns="http://www.w3.org/2000/svg" xmlns:xlink="http://www.w3.org/1999/xlink" viewBox="0 0 95.76 95.76"><defs><style>.cls-1{fill:none;clip-rule:evenodd;}.cls-2{fill:#fff;}.cls-3{clip-path:url(#clip-path);}.cls-4{clip-path:url(#clip-path-2);}.cls-5{fill:#c67a2a;}</style><clipPath id="clip-path"><path class="cls-1" d="M33.15-558.39a30.21,30.21,0,0,1-7.95-20.47,30.14,30.14,0,0,1,8.9-21.47l.26-.27,2,1.94-.27.27A27.43,27.43,0,0,0,28-578.86a27.47,27.47,0,0,0,7.15,18.52l3.75-3.75a22.24,22.24,0,0,1-5.61-14.77,22.15,22.15,0,0,1,6.54-15.79l.26-.27L42-593l-.27.26A19.45,19.45,0,0,0,36-578.86,19.49,19.49,0,0,0,40.8-566l4.65-4.65a13,13,0,0,1-2.89-8.17,12.89,12.89,0,0,1,3.81-9.2l.26-.27,1.95,2-.27.26a10.2,10.2,0,0,0-3,7.26,10.11,10.11,0,0,0,2.1,6.22l3.46-3.47a5.41,5.41,0,0,1-.75-2.75,5.45,5.45,0,0,1,5.45-5.45,5.41,5.41,0,0,1,2.75.75l30.11-30.11a47.7,47.7,0,0,0-32.86-13.07A47.88,47.88,0,0,0,7.69-578.86,47.76,47.76,0,0,0,20.76-546Z"/></clipPath><clipPath id="clip-path-2"><path class="cls-1" d="M90.37-611.72,78-599.34a30.25,30.25,0,0,1,8,20.48A30.14,30.14,0,0,1,77-557.39l-.26.27-2-2,.27-.26a27.49,27.49,0,0,0,8.09-19.53A27.5,27.5,0,0,0,76-597.39l-3.76,3.76a22.2,22.2,0,0,1,5.62,14.77,22.19,22.19,0,0,1-6.54,15.79l-.27.26-1.94-1.94.26-.27a19.42,19.42,0,0,0,5.74-13.84,19.55,19.55,0,0,0-4.81-12.83L65.68-587a13,13,0,0,1,2.9,8.17,12.93,12.93,0,0,1-3.81,9.2l-.27.26-1.94-1.94.27-.27a10.2,10.2,0,0,0,3-7.25,10.06,10.06,0,0,0-2.1-6.22l-3.46,3.46a5.47,5.47,0,0,1,.75,2.76,5.47,5.47,0,0,1-4.08,5.27v31.89H54.19v-31.89a5.51,5.51,0,0,1-1.38-.57l-30.1,30.1A47.69,47.69,0,0,0,55.57-531a47.88,47.88,0,0,0,47.88-47.88,47.69,47.69,0,0,0-13.08-32.86"/></clipPath></defs><circle class="cls-2" cx="47.88" cy="47.88" r="47.88"/><path class="cls-5" d="M67.52,31.11c-9.72-4.2-19.11,7.2-19.2,7.32l-.78,1-.78-1c-.07-.1-6.79-8.25-14.72-8.25a11.25,11.25,0,0,0-4.48.93A12.11,12.11,0,0,0,21.1,45.88,26.71,26.71,0,0,0,24.67,53h10L40.74,40.8l6.67,16.09,5.91-13,5.58,9.79H70a27.3,27.3,0,0,0,4-7.76A12.1,12.1,0,0,0,67.52,31.11Z"/><path class="cls-5" d="M53.53,48.25l-6.2,13.67L40.57,45.61,35.89,55H26.13c4.33,5.49,11.29,11.3,21.41,15.94,9.71-4.45,16.5-10,20.86-15.26H57.74Z"/><path class="cls-5" d="M47.88,0A47.88,47.88,0,1,0,95.76,47.88,47.88,47.88,0,0,0,47.88,0ZM70.93,55.64c-4.55,6-12,12.31-23,17.27l-.41.19-.41-.19C35.74,67.77,28.14,61.12,23.65,55H9.73V53H22.28a27.39,27.39,0,0,1-3.09-6.5,14.1,14.1,0,0,1,7.58-17.19c9.48-4.1,18.17,4.17,20.77,7,2.61-2.84,11.29-11.11,20.78-7a14.09,14.09,0,0,1,7.57,17.19,28.19,28.19,0,0,1-3.53,7.18H86v2Z"/></svg>