<svg id="Layer_2" data-name="Layer 2" xmlns="http://www.w3.org/2000/svg" xmlns:xlink="http://www.w3.org/1999/xlink" viewBox="0 0 95.76 95.76"><defs><style>.cls-1{fill:none;clip-rule:evenodd;}.cls-2{fill:#fff;}.cls-3{clip-path:url(#clip-path);}.cls-4{clip-path:url(#clip-path-2);}.cls-5{fill:#c67a2a;}</style><clipPath id="clip-path"><path class="cls-1" d="M-182.08-879.75A30.23,30.23,0,0,1-190-900.23a30.15,30.15,0,0,1,8.89-21.47l.27-.26,1.94,1.94-.26.27a27.4,27.4,0,0,0-8.09,19.52,27.49,27.49,0,0,0,7.14,18.53l3.76-3.76A22.2,22.2,0,0,1-182-900.23,22.19,22.19,0,0,1-175.46-916l.27-.26,1.94,1.94-.26.27a19.44,19.44,0,0,0-5.74,13.84,19.55,19.55,0,0,0,4.81,12.83l4.66-4.66a13,13,0,0,1-2.9-8.17,12.93,12.93,0,0,1,3.81-9.2l.27-.26,1.94,1.94-.26.27a10.18,10.18,0,0,0-3,7.25,10.06,10.06,0,0,0,2.1,6.22l3.46-3.46a5.45,5.45,0,0,1-.75-2.76,5.46,5.46,0,0,1,5.45-5.45,5.45,5.45,0,0,1,2.76.75l30.1-30.1a47.69,47.69,0,0,0-32.86-13.08,47.88,47.88,0,0,0-47.88,47.88,47.69,47.69,0,0,0,13.08,32.86Z"/></clipPath><clipPath id="clip-path-2"><path class="cls-1" d="M-124.86-933.09l-12.39,12.39a30.23,30.23,0,0,1,7.95,20.47,30.2,30.2,0,0,1-8.89,21.48l-.27.26-1.94-1.94.26-.27A27.41,27.41,0,0,0-132-900.23a27.46,27.46,0,0,0-7.14-18.52l-3.76,3.75a22.29,22.29,0,0,1,5.62,14.77,22.16,22.16,0,0,1-6.55,15.79l-.26.27-2-1.94.27-.27a19.45,19.45,0,0,0,5.74-13.85A19.5,19.5,0,0,0-144.9-913l-4.65,4.65a13,13,0,0,1,2.9,8.17,12.94,12.94,0,0,1-3.82,9.21l-.26.26-1.94-1.94.26-.27a10.19,10.19,0,0,0,3-7.26,10.17,10.17,0,0,0-2.1-6.22L-155-903a5.31,5.31,0,0,1,.75,2.75,5.46,5.46,0,0,1-4.07,5.28v31.89H-161v-31.89a5.25,5.25,0,0,1-1.38-.58l-30.11,30.11a47.71,47.71,0,0,0,32.86,13.07,47.87,47.87,0,0,0,47.88-47.88,47.71,47.71,0,0,0-13.07-32.86"/></clipPath></defs><circle class="cls-2" cx="47.8" cy="47.88" r="47.88"/><path class="cls-5" d="M46.2,63.29c2.44,2.3,5.95,5.86,6.21,7.53s.91,4.49,2.33,4.49h0c.73-.41,1.64-4.6,2-9.11a22.24,22.24,0,0,1-7.6-4.06A7.09,7.09,0,0,1,46.2,63.29Z"/><path class="cls-5" d="M63.93,57.57A11.23,11.23,0,0,1,60.11,60a8.8,8.8,0,0,1-3.37.73,6.23,6.23,0,0,1-2.8-.65,6.64,6.64,0,0,1-1.65-1.21,14.55,14.55,0,0,1-1.58,1.95c1.9,1.46,6.71,4.67,11.46,3.76,2.84-.54,5.26-2.49,7.2-5.79A16.1,16.1,0,0,1,63.93,57.57Z"/><path class="cls-5" d="M53.58,31.6a7.42,7.42,0,0,1,2.88.26A6.52,6.52,0,0,1,60,34.53c.13.06.25.13.37.2a15.58,15.58,0,0,1,2.94-1.42c-1.19-1.65-3.53-4.18-5.89-4.13C56.08,29.2,54.8,30,53.58,31.6Z"/><path class="cls-5" d="M69.23,41.63a1,1,0,0,1,.07-2,16.52,16.52,0,0,1,2.57.37c-.62-2.63-1.71-4.31-3.28-5-2.15-.93-4.81.13-6.35.94a4.86,4.86,0,0,1,2,3.5c.16,3-2.93,5.36-4.06,6.12a5.49,5.49,0,0,1-2.92,3.87c-2.3,1.08-5.15.26-6.64-.32-1.06,2.46-2.57,4-4.49,4.47a5.68,5.68,0,0,1-1.46.19A10,10,0,0,1,39,51.48,1,1,0,0,1,40.25,50s2.84,2.38,5.37,1.71c1.48-.4,2.66-1.82,3.5-4.21l.38-1.09,1,.53c1,.51,4,1.64,5.87.74a3.76,3.76,0,0,0,1.91-2.88l.09-.42.37-.23c1-.61,3.57-2.63,3.47-4.54-.07-1.17-1.17-2.13-2.36-2.83h0c-.34-.2-.68-.38-1-.54l-.31-.15-.16-.31a4.38,4.38,0,0,0-2.55-2c-1.72-.51-3.84-.07-6.29,1.3a1,1,0,0,1-1-1.75,15.59,15.59,0,0,1,2.17-1,13.76,13.76,0,0,1,2.4-3.19,8.3,8.3,0,0,0-4.86-3c-2.1-.36-4.37.29-6.75,1.91a13.3,13.3,0,0,1,1.83,1.35A1,1,0,1,1,42,30.81a14.4,14.4,0,0,0-2.44-1.65,1,1,0,0,1-.76-.35v0a6.73,6.73,0,0,0-4.43-.54c-2.24.62-4,2.9-5.16,6.78a1,1,0,0,1-.95.71.92.92,0,0,1-.29,0,1,1,0,0,1-.67-1.25c.18-.59.37-1.14.58-1.67-1.54.39-3.63,1.22-4.47,2.88-.74,1.47-.35,3.46,1.14,5.89a1,1,0,0,1-.33,1.38,1,1,0,0,1-.52.15,1,1,0,0,1-.85-.48A16.1,16.1,0,0,1,22,40.93a5.47,5.47,0,0,0-2.27,3.67c0,1.33.82,2.68,2.55,4a11.45,11.45,0,0,1,1-1.88,1,1,0,0,1,1.38-.29,1,1,0,0,1,.29,1.39c-.61.93-2,3.69-1,5.29.7,1.17,2.67,1.7,5.7,1.55h0a5.7,5.7,0,0,1,.38-1.5,6.46,6.46,0,0,1-3.18-4.52c-.33-2.54,1.29-4.75,2.07-5.65-.47-2.25-.16-4,.93-5.17a5.56,5.56,0,0,1,4.31-1.49,5.25,5.25,0,0,1,3.24-3,6,6,0,0,1,4.78,1.08A1,1,0,0,1,40.91,36a4.11,4.11,0,0,0-3-.74,3.78,3.78,0,0,0-2.2,2.53l-.3.76-.8-.14c-.62-.1-2.43-.15-3.31.81-.68.74-.8,2-.34,3.85l.15.57-.42.4s-2.17,2.14-1.88,4.39a4.47,4.47,0,0,0,2.17,3,11.48,11.48,0,0,1,2.2-2.25c-.2-3.13.56-5.38,2.25-6.69,2.29-1.76,5.55-1.19,7-.79,1.65-2.44,3.62-3.79,5.85-4,4-.44,7.17,2.82,7.3,3A1,1,0,1,1,54.13,42s-2.68-2.7-5.66-2.36c-1.78.2-3.38,1.46-4.78,3.74l-.42.7-.78-.28s-3.79-1.35-5.89.27c-1.21.94-1.7,2.78-1.44,5.48l.06.6-.5.33a9.06,9.06,0,0,0-2.59,2.76s0,0,0,.05l0,0a4.19,4.19,0,0,0-.51,1.58,4.25,4.25,0,0,0,1.53,3.47,4.35,4.35,0,0,0,3.46,1.5c2.86-.19,5.32-3.36,5.34-3.39a1,1,0,1,1,1.59,1.2,13.33,13.33,0,0,1-2.24,2.23,6.69,6.69,0,0,0,4.5,1.44c1.92-.22,3.68-1.6,5.24-4.12a10.13,10.13,0,0,1-1.12-2.58,1,1,0,0,1,1.94-.48c0,.07.81,3,3,4.14a5.32,5.32,0,0,0,4.5-.15c2.24-.93,3.63-2.1,4.14-3.51a3.59,3.59,0,0,0,.11-2.07,10.2,10.2,0,0,1-3.66-1,1,1,0,0,1,.92-1.78,8.06,8.06,0,0,0,3.1.77,1,1,0,0,1,.63,0,3.47,3.47,0,0,0,1.21-.37c1.22-.64,2-2.11,2.28-4.36A1,1,0,0,1,69.2,45a1,1,0,0,1,.86,1.12C69.69,49,68.56,51,66.72,52a4.35,4.35,0,0,1-1.12.42,5.54,5.54,0,0,1-.23,3c-.07.18-.15.37-.24.55,2,.74,6.29,1.94,7.94-.78,2.08-3.42-.57-5.28-.87-5.49a1,1,0,1,1,1.08-1.68,5.88,5.88,0,0,1,1.6,1.57c1.17-2,1.47-3.71.86-4.95C74.64,42.33,70.66,41.69,69.23,41.63Z"/><path class="cls-5" d="M47.88,0A47.88,47.88,0,1,0,95.76,47.88,47.88,47.88,0,0,0,47.88,0Zm26.9,56.15a5.2,5.2,0,0,1-3,2.32c-2.35,4.64-5.47,7.37-9.28,8.09a11.44,11.44,0,0,1-2.09.19,12.36,12.36,0,0,1-1.73-.13c-.35,5-1.3,10.57-3.83,10.69h-.17c-2.21,0-3.65-2.08-4.29-6.18-.16-1-3.94-4.94-7.37-8A.61.61,0,0,1,43,63a10.44,10.44,0,0,1-3.53-2,7.09,7.09,0,0,1-2.75.81h-.42a6.43,6.43,0,0,1-4.61-2.09,7.21,7.21,0,0,1-1.93-3.1l-1.08,0c-3.31,0-5.49-.86-6.51-2.56a5.1,5.1,0,0,1-.5-3.52.76.76,0,0,1-.18-.09c-2.58-1.86-3.84-3.89-3.77-6,.11-2.93,2.74-5,3.58-5.57a6,6,0,0,1,.36-4.19c1.57-3.14,5.84-4,7.33-4.24a8.3,8.3,0,0,1,4.88-4.2,8.58,8.58,0,0,1,5.72.62c3.13-2.37,6.17-3.34,9.07-2.84a10.33,10.33,0,0,1,6.11,3.8,5.52,5.52,0,0,1,2.62-.72h.08c3.94,0,7,4.28,7.9,5.6a7.21,7.21,0,0,1,4,.4c2.43,1,4,3.57,4.67,7.51a6.62,6.62,0,0,1,3.49,3c1.06,2.16.47,4.9-1.73,8.13A6.36,6.36,0,0,1,74.78,56.15Z"/></svg>