<?xml version="1.0" encoding="UTF-8"?>
<svg width="41px" height="40px" viewBox="0 0 41 40" version="1.1" xmlns="http://www.w3.org/2000/svg" xmlns:xlink="http://www.w3.org/1999/xlink">
    <!-- Generator: Sketch 61 (89581) - https://sketch.com -->
    <title>Group 15</title>
    <desc>Created with Sketch.</desc>
    <g id="Product-Details-Page" stroke="none" stroke-width="1" fill="none" fill-rule="evenodd">
        <g id="1_Faraday" transform="translate(-1137.000000, -736.000000)" stroke="#231F20" stroke-width="1.5">
            <g id="Group-13" transform="translate(887.000000, 191.000000)">
                <g id="Group-15" transform="translate(251.000000, 546.000000)">
                    <polyline id="Stroke-1" points="34.3817496 3 39 3 39 38 0 38 0 3 4.61825044 3"></polyline>
                    <line x1="7" y1="3" x2="32" y2="3" id="Stroke-3"></line>
                    <line x1="0" y1="11" x2="39" y2="11" id="Stroke-4"></line>
                    <polygon id="Stroke-6" points="5 22 12 22 12 15 5 15"></polygon>
                    <polygon id="Stroke-7" points="16 22 23 22 23 15 16 15"></polygon>
                    <polygon id="Stroke-8" points="27 22 34 22 34 15 27 15"></polygon>
                    <polygon id="Stroke-9" points="5 33 12 33 12 26 5 26"></polygon>
                    <polygon id="Stroke-10" points="16 33 23 33 23 26 16 26"></polygon>
                    <g id="Group-14" transform="translate(5.000000, 0.000000)">
                        <polygon id="Stroke-11" points="0.0624418605 5.98376471 2.38918605 5.98376471 2.38918605 0.219882353 0.0624418605 0.219882353"></polygon>
                        <polygon id="Stroke-13" points="26.362093 5.98376471 28.6888372 5.98376471 28.6888372 0.219882353 26.362093 0.219882353"></polygon>
                    </g>
                </g>
            </g>
        </g>
    </g>
</svg>