<svg id="Layer_2" data-name="Layer 2" xmlns="http://www.w3.org/2000/svg" xmlns:xlink="http://www.w3.org/1999/xlink" viewBox="0 0 95.76 95.76"><defs><style>.cls-1{fill:none;clip-rule:evenodd;}.cls-2{fill:#fff;}.cls-3{clip-path:url(#clip-path);}.cls-4{clip-path:url(#clip-path-2);}.cls-5{fill:#c67a2a;}</style><clipPath id="clip-path"><path class="cls-1" d="M-684-802.91a30.23,30.23,0,0,1-7.95-20.48A30.19,30.19,0,0,1-683-844.86l.27-.26,1.94,1.94-.26.27a27.4,27.4,0,0,0-8.09,19.52A27.49,27.49,0,0,0-682-804.86l3.76-3.76a22.25,22.25,0,0,1-5.62-14.77,22.23,22.23,0,0,1,6.54-15.79l.27-.26,1.94,1.94-.26.27a19.44,19.44,0,0,0-5.74,13.84,19.51,19.51,0,0,0,4.82,12.83l4.65-4.66a13,13,0,0,1-2.9-8.17,13,13,0,0,1,3.81-9.2l.27-.26,1.94,1.94-.26.27a10.18,10.18,0,0,0-3,7.25,10.13,10.13,0,0,0,2.1,6.22l3.47-3.46a5.35,5.35,0,0,1-.75-2.76,5.46,5.46,0,0,1,5.45-5.45,5.41,5.41,0,0,1,2.75.75l30.11-30.1a47.72,47.72,0,0,0-32.86-13.08,47.88,47.88,0,0,0-47.88,47.88,47.68,47.68,0,0,0,13.07,32.86Z"/></clipPath><clipPath id="clip-path-2"><path class="cls-1" d="M-626.75-856.25l-12.39,12.39a30.23,30.23,0,0,1,7.95,20.47,30.2,30.2,0,0,1-8.89,21.48l-.27.26-1.94-1.94.26-.27a27.41,27.41,0,0,0,8.09-19.53,27.46,27.46,0,0,0-7.14-18.52l-3.76,3.75a22.24,22.24,0,0,1,5.62,14.77,22.15,22.15,0,0,1-6.54,15.79l-.27.27-1.94-1.94.26-.27A19.45,19.45,0,0,0-642-823.39a19.5,19.5,0,0,0-4.82-12.82l-4.65,4.65a13,13,0,0,1,2.9,8.17,12.93,12.93,0,0,1-3.81,9.21l-.27.26-1.94-1.94.26-.27a10.19,10.19,0,0,0,3-7.26,10.17,10.17,0,0,0-2.1-6.22l-3.46,3.47a5.41,5.41,0,0,1,.75,2.75,5.47,5.47,0,0,1-4.08,5.28v31.89h-2.75v-31.89a5.39,5.39,0,0,1-1.38-.58l-30.1,30.11a47.68,47.68,0,0,0,32.86,13.07,47.87,47.87,0,0,0,47.87-47.88,47.71,47.71,0,0,0-13.07-32.86"/></clipPath></defs><circle class="cls-2" cx="47.88" cy="47.88" r="47.88"/><path class="cls-5" d="M63.47,49,48.6,67l3.76,4.54a6.31,6.31,0,0,0,8.88.84l7.93-6.56A6.32,6.32,0,0,0,70,56.92Z"/><path class="cls-5" d="M57.46,40.49,53,36.8A3.5,3.5,0,0,0,50.87,36a1.5,1.5,0,0,0-1.2.49L39,49.27a1.59,1.59,0,0,0-.22,1.42,3.55,3.55,0,0,0,1.2,1.8l4.45,3.68a3.57,3.57,0,0,0,2,.85,1.64,1.64,0,0,0,1.35-.48L58.44,43.7a1.62,1.62,0,0,0,.22-1.42A3.53,3.53,0,0,0,57.46,40.49Zm-8.08-1.22a1.09,1.09,0,0,1,1.53-.14,1.09,1.09,0,0,1-1.39,1.67A1.09,1.09,0,0,1,49.38,39.27Zm-2.54,3.07a1.08,1.08,0,1,1,1.67,1.38,1.08,1.08,0,0,1-1.67-1.38ZM44.31,45.4A1.08,1.08,0,0,1,46,46.78a1.08,1.08,0,1,1-1.67-1.38Zm-.87,4.44a1.07,1.07,0,0,1-1.52.15,1.08,1.08,0,1,1,1.52-.15Zm2.33,1.93a1.08,1.08,0,1,1-1.67-1.38,1.08,1.08,0,0,1,1.67,1.38ZM48.1,53.7a1.09,1.09,0,0,1-1.53.14A1.08,1.08,0,0,1,48,52.17,1.09,1.09,0,0,1,48.1,53.7Zm.2-5a1.08,1.08,0,1,1-.14-1.53A1.08,1.08,0,0,1,48.3,48.71Zm2.33,1.93a1.08,1.08,0,0,1-1.52.14,1.08,1.08,0,1,1,1.52-.14Zm.21-5a1.08,1.08,0,0,1-1.52.14,1.08,1.08,0,1,1,1.52-.14Zm2.33,1.92A1.08,1.08,0,1,1,53,46.05,1.08,1.08,0,0,1,53.17,47.57Zm.21-5a1.08,1.08,0,1,1-1.67-1.38,1.08,1.08,0,0,1,1.67,1.38Zm2.33,1.93a1.09,1.09,0,0,1-1.53.14A1.08,1.08,0,0,1,55.56,43,1.09,1.09,0,0,1,55.71,44.51Z"/><path class="cls-5" d="M71.37,34.22A6.28,6.28,0,0,0,69.11,30l-7.93-6.56a6.31,6.31,0,0,0-8.88.83L25.23,56.92a6.33,6.33,0,0,0,.83,8.89L34,72.37a6.31,6.31,0,0,0,8.88-.84L70,38.83A6.25,6.25,0,0,0,71.37,34.22ZM59.6,44.67,49,57.5a3,3,0,0,1-2.38,1h-.23a5.07,5.07,0,0,1-2.87-1.19l-4.45-3.69a5,5,0,0,1-1.7-2.59,3,3,0,0,1,.52-2.75L48.5,35.47c1.18-1.43,3.64-1.36,5.47.16l4.45,3.69a5.08,5.08,0,0,1,1.71,2.59A3,3,0,0,1,59.6,44.67Z"/><path class="cls-5" d="M47.88,0A47.88,47.88,0,1,0,95.76,47.88,47.88,47.88,0,0,0,47.88,0ZM72.93,61.68A7.76,7.76,0,0,1,70.14,67l-7.93,6.57a7.78,7.78,0,0,1-5,1.79c-.25,0-.49,0-.74,0a7.8,7.8,0,0,1-5.3-2.8l-3.57-4.32L44,72.5a7.83,7.83,0,0,1-11,1L25.1,67a7.82,7.82,0,0,1-1-11L46.63,28.69l-3.7-4.47a6.31,6.31,0,0,0-8.88-.83L26.12,30a6.29,6.29,0,0,0-.83,8.88l6.46,7.81-1.17,1L24.12,39.8a7.82,7.82,0,0,1,1-11l7.93-6.57a7.82,7.82,0,0,1,11,1l3.52,4.25,3.51-4.25a7.83,7.83,0,0,1,11-1l7.93,6.57a7.81,7.81,0,0,1,1,11l-6.66,8L71.17,56A7.76,7.76,0,0,1,72.93,61.68Z"/></svg>