<svg xmlns="http://www.w3.org/2000/svg" xmlns:xlink="http://www.w3.org/1999/xlink" viewBox="0 0 95.76 95.76"><defs><style>.cls-1{fill:none;clip-rule:evenodd;}.cls-2{clip-path:url(#clip-path);}.cls-3{clip-path:url(#clip-path-2);}.cls-4{fill:#fff;}.cls-5{fill:#c67a2a;}</style><clipPath id="clip-path"><path class="cls-1" d="M167.05-329.18a30.21,30.21,0,0,1-8-20.47,30.14,30.14,0,0,1,8.9-21.47l.26-.27,2,1.94-.27.27a27.43,27.43,0,0,0-8.09,19.53A27.47,27.47,0,0,0,169-331.13l3.75-3.75a22.24,22.24,0,0,1-5.61-14.77,22.15,22.15,0,0,1,6.54-15.79l.26-.27,1.95,1.95-.27.26a19.45,19.45,0,0,0-5.73,13.85,19.49,19.49,0,0,0,4.81,12.82l4.65-4.65a13,13,0,0,1-2.89-8.17,12.89,12.89,0,0,1,3.81-9.2l.26-.27,1.95,1.95-.27.26a10.2,10.2,0,0,0-3,7.26,10.16,10.16,0,0,0,2.09,6.22l3.47-3.47a5.41,5.41,0,0,1-.75-2.75,5.45,5.45,0,0,1,5.45-5.45,5.41,5.41,0,0,1,2.75.75l30.11-30.11a47.71,47.71,0,0,0-32.86-13.07,47.88,47.88,0,0,0-47.88,47.88,47.71,47.71,0,0,0,13.07,32.86Z"/></clipPath><clipPath id="clip-path-2"><path class="cls-1" d="M224.27-382.51l-12.38,12.38a30.25,30.25,0,0,1,8,20.48,30.14,30.14,0,0,1-8.9,21.47l-.26.27-2-1.95.27-.26a27.49,27.49,0,0,0,8.09-19.53,27.5,27.5,0,0,0-7.15-18.53l-3.76,3.76a22.2,22.2,0,0,1,5.62,14.77,22.19,22.19,0,0,1-6.54,15.79l-.27.26-1.94-1.94.26-.27a19.42,19.42,0,0,0,5.74-13.84,19.55,19.55,0,0,0-4.81-12.83l-4.66,4.66a13,13,0,0,1,2.9,8.17,12.93,12.93,0,0,1-3.81,9.2l-.27.26-1.94-1.94.27-.27a10.2,10.2,0,0,0,3-7.25,10.06,10.06,0,0,0-2.1-6.22l-3.46,3.46a5.47,5.47,0,0,1,.75,2.76,5.47,5.47,0,0,1-4.08,5.27v31.89h-2.75v-31.89a5.51,5.51,0,0,1-1.38-.57l-30.1,30.1a47.69,47.69,0,0,0,32.86,13.08,47.88,47.88,0,0,0,47.88-47.88,47.69,47.69,0,0,0-13.08-32.86"/></clipPath></defs><g id="Layer_1" data-name="Layer 1"><circle class="cls-4" cx="47.88" cy="47.88" r="47.88"/><path class="cls-5" d="M47.88,0A47.88,47.88,0,1,0,95.76,47.88,47.88,47.88,0,0,0,47.88,0ZM67.24,56.59c.6,4,0,7-1.84,8.8a6.67,6.67,0,0,1-4.94,1.72c-6.78,6.33-14.9,2.63-17.13,1.41A20.28,20.28,0,0,1,32,72a26.63,26.63,0,0,1-13.85-4.23l1.15-1.63c.49.34,12.11,8.36,23.45.42l.55-.39.57.38c.35.23,8.76,5.59,15.55-1.15l.36-.36.51.08A4.8,4.8,0,0,0,64,64c1.31-1.3,1.74-3.75,1.25-7.07a19.11,19.11,0,0,1,.18-5.37A14.91,14.91,0,0,0,65.6,47a63.43,63.43,0,0,0-1.67-6.72c-1.13-4-2.21-7.72-1.87-11.59v-.17l.07-.15c0-.07,3-6.82,1.1-10.56a4.23,4.23,0,0,0-3.08-2.23c-5.2-1.16-6.9-.53-7.4-.2-.23.16-.25.28-.25.28s0,.2,0,.39c-.18,1.61.06,2,.22,2.14s.59.33,2.46-.71l1,1.75a5.43,5.43,0,0,1-3.79.94c-.09,0-.89.25-2.08,1.88a.25.25,0,0,0,0,.25c.33,1.34,3.92,3.6,6.37,4.78l.65.31L55.83,38.65l-.3.26c-3.65,3-3.56,9.06-3.35,11.52A1.59,1.59,0,0,1,51.37,52a1.64,1.64,0,0,1-.82.23,1.58,1.58,0,0,1-.92-.3C33.78,41,20.59,50.26,20,50.66L18.86,49c.15-.1,14.5-10.28,31.28.8-.17-3,.08-8.83,3.8-12.21l1.14-9.05c-1.87-.95-6.21-3.41-6.8-5.77a2.22,2.22,0,0,1,.36-1.92,8,8,0,0,1,2.09-2.1,6.1,6.1,0,0,1-.24-2.94c0-.09,0-.16,0-.21a2.27,2.27,0,0,1,.92-1.74c1.5-1.2,4.58-1.28,9.17-.25A6.2,6.2,0,0,1,65,16.94c2.15,4.27-.51,11-1,12.1-.26,3.45.75,7,1.82,10.71a69.26,69.26,0,0,1,1.71,6.92,17.07,17.07,0,0,1-.14,5.1A17.29,17.29,0,0,0,67.24,56.59Zm-40.57.58,1-1.75a19.92,19.92,0,0,0,16.44,0l.8,1.83a22.56,22.56,0,0,1-9.17,2A20.17,20.17,0,0,1,26.67,57.17ZM61.14,45.82l1.91-.62a12,12,0,0,1-.17,7.06L61,51.59A10.06,10.06,0,0,0,61.14,45.82Z"/></g></svg>