<svg xmlns="http://www.w3.org/2000/svg" width="15.325" height="15.325" overflow="visible">
  <g fill="none" stroke="#000" stroke-linecap="round" stroke-linejoin="round">
    <path d="M1.65.5h12.025c.635 0 1.15.515 1.15 1.15v12.025a1.15 1.15 0 01-1.15 1.15H1.65a1.15 1.15 0 01-1.15-1.15V1.65C.5 1.015 1.015.5 1.65.5z"/><circle cx="7.665" cy="7.665" r="5.19"/><path d="M7.11 12.75v-1.625a.57.57 0 01.565-.565h0a.57.57 0 01.575.565s0 0 0 0v1.625M8.25 2.57v1.61a.57.57 0 01-.57.57h-.005 0a.57.57 0 01-.565-.565V2.57"/><circle cx="4.855" cy="7.665" r=".88"/><circle cx="10.47" cy="7.665" r=".88"/>
  </g>
</svg>