<svg id="Layer_2" data-name="Layer 2" xmlns="http://www.w3.org/2000/svg" xmlns:xlink="http://www.w3.org/1999/xlink" viewBox="0 0 95.76 95.76"><defs><style>.cls-1{fill:none;clip-rule:evenodd;}.cls-2{fill:#fff;}.cls-3{clip-path:url(#clip-path);}.cls-4{clip-path:url(#clip-path-2);}</style><clipPath id="clip-path"><path class="cls-1" d="M-434.56,190.32a30.23,30.23,0,0,1-7.95-20.47,30.2,30.2,0,0,1,8.89-21.48l.27-.26,1.94,1.94-.26.27a27.41,27.41,0,0,0-8.09,19.53,27.48,27.48,0,0,0,7.14,18.52l3.76-3.75a22.29,22.29,0,0,1-5.62-14.77,22.23,22.23,0,0,1,6.54-15.8l.27-.26,1.94,1.94-.26.27a19.46,19.46,0,0,0-5.74,13.85,19.5,19.5,0,0,0,4.82,12.82l4.65-4.65a13,13,0,0,1-2.9-8.17,13,13,0,0,1,3.81-9.21l.27-.26,1.94,1.94-.26.27a10.19,10.19,0,0,0-3,7.26,10.12,10.12,0,0,0,2.1,6.21l3.47-3.46a5.31,5.31,0,0,1-.75-2.75,5.45,5.45,0,0,1,5.45-5.45,5.31,5.31,0,0,1,2.75.75L-379.28,135A47.71,47.71,0,0,0-412.14,122,47.87,47.87,0,0,0-460,169.85a47.71,47.71,0,0,0,13.07,32.86Z"/></clipPath><clipPath id="clip-path-2"><path class="cls-1" d="M-377.34,137l-12.39,12.38a30.23,30.23,0,0,1,8,20.48,30.19,30.19,0,0,1-8.89,21.47l-.27.26-1.94-1.94.26-.27a27.4,27.4,0,0,0,8.09-19.52,27.49,27.49,0,0,0-7.14-18.53l-3.76,3.75a22.25,22.25,0,0,1,5.62,14.78,22.19,22.19,0,0,1-6.54,15.79l-.27.26-1.94-1.94.26-.27a19.44,19.44,0,0,0,5.74-13.84A19.51,19.51,0,0,0-397.38,157l-4.65,4.65a13,13,0,0,1,2.9,8.18,12.93,12.93,0,0,1-3.81,9.2l-.27.26-1.94-1.94.26-.27a10.18,10.18,0,0,0,3-7.25,10.13,10.13,0,0,0-2.1-6.22l-3.46,3.46a5.45,5.45,0,0,1,.75,2.76,5.47,5.47,0,0,1-4.08,5.27V207h-2.75V175.12a5.74,5.74,0,0,1-1.38-.57l-30.1,30.1a47.68,47.68,0,0,0,32.86,13.07,47.87,47.87,0,0,0,47.87-47.87A47.68,47.68,0,0,0-377.34,137"/></clipPath></defs><polygon class="cls-2" points="57.27 36.24 64.79 28.17 38.49 28.17 30.97 36.24 57.27 36.24"/><polygon class="cls-2" points="58.7 63.73 66.08 55.81 66.08 29.71 58.7 37.63 58.7 63.73"/><rect class="cls-2" x="29.67" y="38.24" width="27.03" height="27.03"/><path class="cls-2" d="M47.88,0A47.88,47.88,0,1,0,95.76,47.88,47.88,47.88,0,0,0,47.88,0Zm20.2,56.6L58.7,66.67v.6h-31v-31h.57l9.38-10.07H68.08Z"/></svg>