<?xml version="1.0" encoding="utf-8"?>
<!-- Generator: Adobe Illustrator 25.2.3, SVG Export Plug-In . SVG Version: 6.00 Build 0)  -->
<svg version="1.1" id="Layer_1" xmlns="http://www.w3.org/2000/svg" xmlns:xlink="http://www.w3.org/1999/xlink" x="0px" y="0px"
	 viewBox="0 0 422.2 107.5" style="enable-background:new 0 0 422.2 107.5;" xml:space="preserve">
<style type="text/css">
	.st0{fill:#101820;}
	.st1{fill-rule:evenodd;clip-rule:evenodd;fill:#101820;}
</style>
<g>
	<g>
		<path class="st0" d="M147.8,19.2c-2-4.3-5.9-7-11.7-7c-1.8,0-3.5,0.5-5.1,1.3s-3,2-4,3.4l-0.2,0.3V0.4c0-0.1,0-0.2-0.1-0.3
			C126.5,0,126.4,0,126.3,0h-8.2c-0.1,0-0.2,0-0.3,0.1c-0.1,0.1-0.1,0.2-0.1,0.3v48.1c0,0.1,0,0.2,0.1,0.3s0.2,0.1,0.3,0.1h8.8
			c0.1,0,0.2,0,0.3-0.1c0.1-0.1,0.1-0.2,0.1-0.3V28c0-4,2.7-6.8,6.9-6.8c4.7,0,5.8,3.8,5.8,7.7v19.6c0,0.1,0,0.2,0.1,0.3
			s0.2,0.1,0.3,0.1h8.8c0.1,0,0.2,0,0.3-0.1s0.1-0.2,0.1-0.3V27.7c0-0.7,0-1.4-0.1-2.1C149.3,23.4,148.7,21.2,147.8,19.2z"/>
		<path class="st0" d="M103.7,26.3c0,0-4.5-1.1-6.1-1.5c-1.7-0.4-4.5-1.3-4.5-3.5s2.3-2.9,4.7-2.9s5,0.6,5.2,3.2
			c0,0.1,0.1,0.2,0.1,0.2c0.1,0.1,0.2,0.1,0.3,0.1h8.7c0.1,0,0.1,0,0.1,0l0.1-0.1l0.1-0.1c0,0,0-0.1,0-0.2
			c-0.5-8.4-7.9-11.4-14.7-11.4c-8.1,0-14,5.3-14,11.2c0,4.3,1.2,8.3,10.7,11.1c1.7,0.5,3.9,1.1,5.9,1.7c2.4,0.7,3.7,1.7,3.7,3.3
			c0,1.8-2.7,3.1-5.3,3.1c-3.8,0-6.5-1.4-6.7-3.9c0-0.1-0.1-0.2-0.1-0.2c-0.1-0.1-0.2-0.1-0.3-0.1h-8.7c-0.1,0-0.1,0-0.1,0
			s-0.1,0-0.1,0.1l-0.1,0.1v0.1c0.4,7.9,8.1,12.2,15.2,12.2c10.6,0,15.4-6,15.4-11.6C113.3,34.6,112.7,28.6,103.7,26.3z"/>
		<path class="st0" d="M215.7,12.1c-4.4,0-8.1,2.4-10.5,5.4v-5.1c0-0.1,0-0.2-0.1-0.3s-0.2-0.1-0.2-0.1h-8.3c-0.1,0-0.2,0-0.3,0.1
			s-0.1,0.2-0.1,0.3v47.2c0,0.1,0,0.2,0.1,0.2c0.1,0.1,0.2,0.1,0.3,0.1h8.8c0.1,0,0.2,0,0.2-0.1s0.1-0.2,0.1-0.2V44.2h0.1
			c1.4,2.1,5.2,4.7,10.2,4.7c9.4,0,17.3-7.8,17.3-18.4C233.4,20.4,225.6,12.1,215.7,12.1z M214.9,39.9c-1.9,0-3.7-0.5-5.3-1.5
			s-2.8-2.4-3.6-4.2c-0.7-1.7-1-3.6-0.6-5.4c0.3-1.8,1.2-3.5,2.5-4.9c1.3-1.3,3-2.3,4.8-2.6c1.8-0.4,3.7-0.2,5.4,0.5
			s3.2,1.9,4.2,3.4s1.6,3.4,1.6,5.2c0,1.2-0.2,2.4-0.7,3.6c-0.4,1.1-1.1,2.2-2,3c-0.8,0.9-1.9,1.6-3,2
			C217.3,39.6,216.1,39.9,214.9,39.9z"/>
		<path class="st0" d="M170,10.1c-8.2,0-12.3,2.8-15.6,5l-0.1,0.1c-0.2,0.1-0.3,0.3-0.3,0.5s0,0.4,0.1,0.6l3.3,5.6
			c0.1,0.1,0.1,0.2,0.2,0.3c0.1,0.1,0.2,0.1,0.3,0.1s0.2,0,0.4,0c0.1,0,0.2-0.1,0.3-0.2l0.3-0.2c1.7-1.4,4.4-3.3,11-3.8
			c3.7-0.3,6.8,0.7,9.2,2.8c2.6,2.4,4.1,6.2,4.1,10.2c0,7.4-4.4,12.1-11.4,12.2c-5.8,0-9.7-3.1-9.7-7.5c0-2.4,1.1-3.9,3.2-5.5
			c0.2-0.1,0.3-0.3,0.3-0.5s0-0.4-0.1-0.6l-2.9-5.5c-0.1-0.1-0.1-0.2-0.2-0.3c-0.1-0.1-0.2-0.1-0.3-0.2c-0.1,0-0.2,0-0.3,0
			s-0.2,0.1-0.3,0.1c-3.3,1.9-7.3,5.5-7.1,12.4c0.3,8.7,7.5,15.4,16.9,15.6h0.5h0.6c11.2-0.4,19.3-8.7,19.3-19.9
			C191.5,21.2,184,10.1,170,10.1z"/>
		<path class="st0" d="M268.2,15.4h-5.6c-0.1,0-0.3,0.1-0.4,0.1c-0.1,0.1-0.1,0.2-0.1,0.4v11.8c0,0.1,0.1,0.3,0.1,0.3
			c0.1,0.1,0.2,0.1,0.4,0.1h5.6c3.4,0,5.9-2.7,5.9-6.4C274.1,18.1,271.6,15.4,268.2,15.4z"/>
		<path class="st0" d="M285.4,36.2c0,1.7,1.4,2.7,4,2.7c3.4,0,5.4-1.8,5.4-5.1v-0.9l-5.1,0.3C287,33.2,285.4,34.3,285.4,36.2z"/>
		<path class="st0" d="M327,0.1h-75.4c-1.2,0-2.5,0.2-3.6,0.7s-2.2,1.2-3.1,2c-0.9,0.9-1.6,1.9-2,3.1c-0.5,1.1-0.7,2.4-0.7,3.6v41.3
			c0,2.5,1,4.9,2.8,6.7s4.2,2.8,6.7,2.8H327c1.2,0,2.5-0.2,3.6-0.7s2.2-1.2,3.1-2c0.9-0.9,1.6-1.9,2-3.1c0.5-1.1,0.7-2.4,0.7-3.6
			V9.5c0-1.2-0.2-2.5-0.7-3.6s-1.2-2.2-2-3.1c-0.9-0.9-1.9-1.6-3.1-2S328.2,0.1,327,0.1z M268.5,32.8h-5.9c-0.1,0-0.3,0.1-0.4,0.1
			c-0.1,0.1-0.1,0.2-0.1,0.4v8.4c0,0.1-0.1,0.3-0.1,0.4c-0.1,0.1-0.2,0.1-0.4,0.1h-4.2c-0.1,0-0.3-0.1-0.4-0.1
			c-0.1-0.1-0.1-0.2-0.1-0.4V11.3c0-0.1,0.1-0.3,0.1-0.4c0.1-0.1,0.2-0.1,0.4-0.1h11.1c6.3,0,10.8,4.6,10.8,11
			S274.8,32.8,268.5,32.8L268.5,32.8z M299.7,41.7c0,0.1,0,0.1,0,0.2c0,0.1-0.1,0.1-0.1,0.2c0,0-0.1,0.1-0.2,0.1s-0.1,0-0.2,0h-3.9
			c-0.1,0-0.1,0-0.2,0s-0.1-0.1-0.2-0.1c0,0-0.1-0.1-0.1-0.2c0-0.1,0-0.1,0-0.2v-0.9c0-0.1,0-0.2-0.1-0.2c0-0.1-0.1-0.1-0.2-0.1
			s-0.2,0-0.2,0c-0.1,0-0.1,0.1-0.2,0.1c-1.2,1.3-3.1,2.2-6.1,2.2c-4.5,0-7.5-2.3-7.5-6.4c0-1,0.2-2,0.6-2.9s1.1-1.7,1.9-2.2
			c1.6-1.2,4.1-1.8,7.9-2l4-0.1V28c0-2.3-1.6-3.3-4.1-3.3s-4.1,0.9-4.5,2.3c0,0.1-0.1,0.2-0.2,0.3s-0.2,0.1-0.3,0.1h-3.9
			c-0.1,0-0.1,0-0.2,0s-0.1-0.1-0.2-0.1c0-0.1-0.1-0.1-0.1-0.2s0-0.1,0-0.2c0.6-3.5,3.4-6.1,9.5-6.1c6.5,0,8.8,3,8.8,8.8L299.7,41.7
			z M324.3,22l-8.8,23.4c-2,5.4-5.5,6.8-9.3,6.8c-0.7,0-1.4-0.1-2.1-0.3c-0.1,0-0.2-0.1-0.3-0.2c-0.1-0.1-0.1-0.2-0.1-0.3v-3.6
			c0-0.1,0-0.1,0-0.2c0-0.1,0.1-0.1,0.1-0.2c0.1,0,0.1-0.1,0.2-0.1s0.1,0,0.2,0c0.6,0.1,1.2,0.2,1.8,0.2c1.1,0.1,2.1-0.3,3-0.9
			c0.9-0.6,1.5-1.5,1.8-2.5l0.3-0.8c0-0.1,0-0.2,0-0.3l-8.2-21c0-0.1,0-0.2,0-0.2c0-0.1,0-0.2,0.1-0.2c0-0.1,0.1-0.1,0.2-0.2
			c0.1,0,0.1-0.1,0.2-0.1h4c0.1,0,0.2,0,0.3,0.1c0.1,0.1,0.1,0.1,0.2,0.2l5.6,14.9c0,0.1,0.1,0.2,0.2,0.2c0.1,0.1,0.2,0.1,0.3,0.1
			s0.2,0,0.3-0.1c0.1-0.1,0.2-0.1,0.2-0.2l4.8-14.8c0-0.1,0.1-0.2,0.2-0.3c0.1-0.1,0.2-0.1,0.3-0.1h4.1c0.1,0,0.2,0,0.2,0.1
			c0.1,0,0.1,0.1,0.2,0.2c0,0.1,0.1,0.1,0.1,0.2C324.3,21.8,324.3,21.9,324.3,22L324.3,22z"/>
	</g>
	<g>
		<path class="st0" d="M1.3,87.9c-0.7,0-1.3-0.6-1.3-1.3c0-0.8,0.6-1.3,1.3-1.3c0.8,0,1.4,0.6,1.4,1.3C2.7,87.2,2.1,87.9,1.3,87.9z
			 M2.4,102.7H0.3V90.3h2.1C2.4,90.3,2.4,102.7,2.4,102.7z"/>
		<path class="st0" d="M6,90.3h2.1v1.6c0.7-1,2.1-1.8,3.7-1.8c2.8,0,4.4,1.8,4.4,4.5v8.1h-2.1v-7.8c0-1.7-0.9-2.9-2.7-2.9
			c-1.5,0-2.7,1-3.2,2.3v8.4H6V90.3z"/>
		<path class="st0" d="M20.8,99.3c0.4,1.3,1.5,1.9,2.9,1.9c1.5,0,2.5-0.6,2.5-1.8c0-0.9-0.6-1.4-1.8-1.7L22,97c-1.8-0.4-3-1.3-3-3.3
			c0-2.2,1.9-3.7,4.5-3.7c2.7,0,4.4,1.3,4.8,3.5h-2.1c-0.4-1.1-1.2-1.8-2.7-1.8c-1.2,0-2.4,0.6-2.4,1.8c0,0.8,0.6,1.2,1.7,1.6
			l2.4,0.6c2.1,0.6,3.2,1.7,3.2,3.5c0,2.4-2,3.8-4.6,3.8c-2.7,0-4.7-1.4-5.1-3.7H20.8z"/>
		<path class="st0" d="M31.7,92.1h-2v-1.8h2V87h2.1v3.3h3v1.8h-3v7.3c0,1.2,0.6,1.7,1.7,1.7c0.6,0,1.2-0.2,1.6-0.5v2
			c-0.5,0.3-1.2,0.4-2,0.4c-2,0-3.4-1.1-3.4-3.4C31.7,99.6,31.7,92.1,31.7,92.1z"/>
		<path class="st0" d="M46.7,102.7v-0.9c-0.5,0.5-1.8,1.1-3.3,1.1c-2.5,0-4.6-1.5-4.6-4c0-2.3,2.1-3.9,4.8-3.9c1.3,0,2.6,0.5,3.1,1
			v-1.6c0-1.5-1-2.7-2.7-2.7c-1.3,0-2.2,0.6-2.5,1.7h-2.1c0.4-2.1,2.3-3.5,4.6-3.5c3,0,4.7,1.7,4.7,4.4v8.3L46.7,102.7L46.7,102.7z
			 M46.7,98.3c-0.4-0.9-1.6-1.5-2.9-1.5c-1.5,0-3,0.7-3,2.2s1.5,2.2,3,2.2c1.3,0,2.5-0.6,2.9-1.5V98.3z"/>
		<path class="st0" d="M54.3,102.7h-2.1V84.5h2.1V102.7z"/>
		<path class="st0" d="M60,102.7h-2.1V84.5H60V102.7z"/>
		<path class="st0" d="M76.2,90c2.5,0,3.9,1.8,3.9,4.5v8.2H78v-7.9c0-1.7-0.8-2.9-2.4-2.9c-1.3,0-2.4,0.9-2.7,2.2v8.6h-2.1v-7.9
			c0-1.7-0.8-2.9-2.4-2.9c-1.3,0-2.4,0.9-2.7,2.2v8.6h-2.1V90.3h2.1v1.5c0.6-1,1.8-1.7,3.4-1.7s2.8,0.8,3.4,2
			C73.2,90.9,74.5,90,76.2,90z"/>
		<path class="st0" d="M93.4,99c-0.4,2.4-2.2,4-5,4c-3.4,0-5.7-2.6-5.7-6.4c0-3.7,2.3-6.5,5.7-6.5c3.4,0,5.2,2.5,5.2,6.1V97h-8.8
			c0,2.7,1.5,4.3,3.6,4.3c1.5,0,2.7-0.8,3-2.2h2V99z M84.9,95.3h6.6c0-1.8-1-3.5-3.1-3.5C86.5,91.8,85.2,93.1,84.9,95.3z"/>
		<path class="st0" d="M96.3,90.3h2.1v1.6c0.7-1,2.1-1.8,3.7-1.8c2.8,0,4.4,1.8,4.4,4.5v8.1h-2.1v-7.8c0-1.7-0.9-2.9-2.7-2.9
			c-1.5,0-2.7,1-3.2,2.3v8.4h-2.1V90.3H96.3z"/>
		<path class="st0" d="M110.5,92.1h-2v-1.8h2V87h2.1v3.3h3v1.8h-3v7.3c0,1.2,0.6,1.7,1.7,1.7c0.6,0,1.2-0.2,1.6-0.5v2
			c-0.5,0.3-1.2,0.4-2,0.4c-2,0-3.4-1.1-3.4-3.4C110.5,99.6,110.5,92.1,110.5,92.1z"/>
		<path class="st0" d="M119.7,99.3c0.4,1.3,1.5,1.9,2.9,1.9c1.5,0,2.5-0.6,2.5-1.8c0-0.9-0.6-1.4-1.8-1.7l-2.5-0.6
			c-1.8-0.4-3-1.3-3-3.3c0-2.2,1.9-3.7,4.5-3.7c2.7,0,4.4,1.3,4.8,3.5H125c-0.4-1.1-1.2-1.8-2.7-1.8c-1.2,0-2.4,0.6-2.4,1.8
			c0,0.8,0.6,1.2,1.7,1.6l2.4,0.6c2.1,0.6,3.2,1.7,3.2,3.5c0,2.4-2,3.8-4.6,3.8c-2.7,0-4.7-1.4-5.1-3.7h2.2V99.3z"/>
		<path class="st0" d="M137.1,87.9c-0.7,0-1.3-0.6-1.3-1.3c0-0.8,0.6-1.3,1.3-1.3c0.8,0,1.4,0.6,1.4,1.3
			C138.5,87.2,137.9,87.9,137.1,87.9z M138.2,102.7h-2.1V90.3h2.1V102.7z"/>
		<path class="st0" d="M141.8,90.3h2.1v1.6c0.7-1,2.1-1.8,3.7-1.8c2.8,0,4.4,1.8,4.4,4.5v8.1h-2.1v-7.8c0-1.7-0.9-2.9-2.7-2.9
			c-1.5,0-2.7,1-3.2,2.3v8.4h-2.1L141.8,90.3L141.8,90.3z"/>
		<path class="st0" d="M163.6,107.5h-2.1V90.3h2.1v1.5c0.6-0.9,2-1.7,3.5-1.7c3.7,0,5.6,3,5.6,6.5c0,3.4-1.9,6.5-5.6,6.5
			c-1.5,0-2.9-0.8-3.5-1.7V107.5z M163.6,99c0.6,1.3,1.9,2,3.2,2c2.4,0,3.8-1.9,3.8-4.6s-1.4-4.6-3.8-4.6c-1.3,0-2.5,0.8-3.2,2V99z"
			/>
		<path class="st0" d="M182.4,102.7v-0.9c-0.5,0.5-1.8,1.1-3.3,1.1c-2.5,0-4.6-1.5-4.6-4c0-2.3,2.1-3.9,4.8-3.9c1.3,0,2.6,0.5,3.1,1
			v-1.6c0-1.5-1-2.7-2.7-2.7c-1.3,0-2.2,0.6-2.5,1.7h-2.1c0.4-2.1,2.3-3.5,4.6-3.5c3,0,4.7,1.7,4.7,4.4v8.3L182.4,102.7L182.4,102.7
			z M182.4,98.3c-0.4-0.9-1.6-1.5-2.9-1.5c-1.5,0-3,0.7-3,2.2s1.5,2.2,3,2.2c1.3,0,2.5-0.6,2.9-1.5V98.3z"/>
		<path class="st0" d="M194.3,92.4c-0.3-0.2-0.9-0.3-1.4-0.3c-1.3,0-2.5,0.9-2.9,2.3v8.3h-2.1V90.3h2.1v1.6c0.5-1.1,1.7-1.9,3.1-1.9
			c0.5,0,1,0.1,1.2,0.2L194.3,92.4L194.3,92.4z"/>
		<path class="st0" d="M197.4,92.1h-2v-1.8h2V87h2.1v3.3h3v1.8h-3v7.3c0,1.2,0.6,1.7,1.7,1.7c0.6,0,1.2-0.2,1.6-0.5v2
			c-0.5,0.3-1.2,0.4-2,0.4c-2,0-3.4-1.1-3.4-3.4L197.4,92.1L197.4,92.1z"/>
		<path class="st0" d="M205.6,90.3h2.1v1.6c0.7-1,2.1-1.8,3.7-1.8c2.8,0,4.4,1.8,4.4,4.5v8.1h-2.1v-7.8c0-1.7-0.9-2.9-2.7-2.9
			c-1.5,0-2.7,1-3.2,2.3v8.4h-2.1L205.6,90.3L205.6,90.3z"/>
		<path class="st0" d="M229,99c-0.4,2.4-2.2,4-5,4c-3.4,0-5.7-2.6-5.7-6.4c0-3.7,2.3-6.5,5.7-6.5s5.2,2.5,5.2,6.1V97h-8.8
			c0,2.7,1.5,4.3,3.6,4.3c1.5,0,2.7-0.8,3-2.2h2V99z M220.4,95.3h6.6c0-1.8-1-3.5-3.1-3.5C222.1,91.8,220.7,93.1,220.4,95.3z"/>
		<path class="st0" d="M238.2,92.4c-0.3-0.2-0.9-0.3-1.4-0.3c-1.3,0-2.5,0.9-2.9,2.3v8.3h-2.1V90.3h2.1v1.6c0.5-1.1,1.7-1.9,3.1-1.9
			c0.5,0,1,0.1,1.2,0.2L238.2,92.4L238.2,92.4z"/>
		<path class="st0" d="M241.8,99.3c0.4,1.3,1.5,1.9,2.9,1.9c1.5,0,2.5-0.6,2.5-1.8c0-0.9-0.6-1.4-1.8-1.7L243,97
			c-1.8-0.4-3-1.3-3-3.3c0-2.2,1.9-3.7,4.5-3.7c2.7,0,4.4,1.3,4.8,3.5h-2.1c-0.4-1.1-1.2-1.8-2.7-1.8c-1.2,0-2.4,0.6-2.4,1.8
			c0,0.8,0.6,1.2,1.7,1.6l2.4,0.6c2.1,0.6,3.2,1.7,3.2,3.5c0,2.4-2,3.8-4.6,3.8c-2.7,0-4.7-1.4-5.1-3.7H241.8z"/>
		<path class="st0" d="M252.1,84.5h2.1v7.3c0.7-1,2.1-1.8,3.7-1.8c2.8,0,4.4,1.8,4.4,4.5v8.1h-2.1v-7.8c0-1.7-0.9-2.9-2.7-2.9
			c-1.5,0-2.7,1-3.2,2.3v8.4h-2.1L252.1,84.5L252.1,84.5z"/>
		<path class="st0" d="M266.7,87.9c-0.7,0-1.3-0.6-1.3-1.3c0-0.8,0.6-1.3,1.3-1.3c0.8,0,1.4,0.6,1.4,1.3
			C268.1,87.2,267.5,87.9,266.7,87.9z M267.8,102.7h-2.1V90.3h2.1V102.7z"/>
		<path class="st0" d="M273.5,107.5h-2.1V90.3h2.1v1.5c0.6-0.9,2-1.7,3.5-1.7c3.7,0,5.6,3,5.6,6.5c0,3.4-1.9,6.5-5.6,6.5
			c-1.5,0-2.9-0.8-3.5-1.7V107.5z M273.5,99c0.6,1.3,1.9,2,3.2,2c2.4,0,3.8-1.9,3.8-4.6s-1.4-4.6-3.8-4.6c-1.3,0-2.5,0.8-3.2,2V99z"
			/>
		<path class="st0" d="M301.9,99.8l2.7-9.5h2l-3.7,12.4h-2l-2.6-9.4l-2.6,9.4h-2L290,90.3h2.1l2.7,9.5l2.5-9.5h1.9L301.9,99.8z"/>
		<path class="st0" d="M310,87.9c-0.7,0-1.3-0.6-1.3-1.3c0-0.8,0.6-1.3,1.3-1.3c0.8,0,1.4,0.6,1.4,1.3
			C311.4,87.2,310.7,87.9,310,87.9z M311,102.7h-2V90.3h2.1v12.4H311z"/>
		<path class="st0" d="M315.3,92.1h-2v-1.8h2V87h2.1v3.3h3v1.8h-3v7.3c0,1.2,0.6,1.7,1.7,1.7c0.6,0,1.2-0.2,1.6-0.5v2
			c-0.5,0.3-1.2,0.4-2,0.4c-2,0-3.4-1.1-3.4-3.4L315.3,92.1L315.3,92.1z"/>
		<path class="st0" d="M323.5,84.5h2.1v7.3c0.7-1,2.1-1.8,3.7-1.8c2.8,0,4.4,1.8,4.4,4.5v8.1h-2.1v-7.8c0-1.7-0.9-2.9-2.7-2.9
			c-1.5,0-2.7,1-3.2,2.3v8.4h-2.1L323.5,84.5L323.5,84.5z"/>
	</g>
	<g>
		<path class="st1" d="M346.9,100.3c-1,0-1.5-0.5-1.5-1.3c0-1.5,1.7-2,4.7-2.3C350.1,98.7,348.8,100.3,346.9,100.3L346.9,100.3z
			 M348.2,89.1c-2.2,0-4.7,1-6.1,2.1l1.2,2.6c1.1-1,2.9-1.9,4.5-1.9c1.5,0,2.4,0.5,2.4,1.5c0,0.7-0.6,1-1.6,1.2
			c-3.9,0.5-7,1.6-7,4.6c0,2.4,1.7,3.8,4.4,3.8c1.9,0,3.6-1.1,4.4-2.4v2.1h3.5V94C353.9,90.5,351.5,89.1,348.2,89.1L348.2,89.1z"/>
		<path class="st1" d="M383.8,89.4v13.3h3.8v-6.4c0-3,1.8-3.9,3.1-3.9c0.6,0,1.1,0.2,1.6,0.5l0.7-3.5c-0.5-0.2-1.1-0.3-1.7-0.3
			c-1.9,0-3.2,0.9-4,2.6v-2.2L383.8,89.4"/>
		<path class="st1" d="M410.6,89.1c-2,0-3.5,1.2-4.3,2.3c-0.7-1.5-2.3-2.3-4.1-2.3c-2,0-3.4,1.1-4,2.4v-2h-3.7v13.3h3.8V96
			c0-2.4,1.3-3.6,2.5-3.6c1.1,0,2.1,0.7,2.1,2.5v7.9h3.8V96c0-2.5,1.3-3.6,2.5-3.6c1,0,2.1,0.7,2.1,2.5v8h3.8v-9.2
			C415,90.6,413,89.1,410.6,89.1"/>
		<path class="st1" d="M374.6,89.4h-3.4v-1.3c0-1.8,1-2.3,1.9-2.3c0.6,0,1.2,0.2,1.7,0.4l1.2-2.7c0,0-1.2-0.8-3.3-0.8
			c-2.4,0-5.2,1.4-5.2,5.7v1h-5.7v-1.3c0-1.8,1-2.3,1.9-2.3c0.6,0,1.2,0.1,1.7,0.4l1.2-2.7c-0.7-0.4-1.8-0.8-3.3-0.8
			c-2.4,0-5.2,1.4-5.2,5.7v1h-2.2v2.9h2.2v10.3h3.8V92.4h5.7v10.3h3.8V92.4h3.4v-3"/>
		<rect x="376.8" y="89.4" class="st0" width="3.8" height="13.3"/>
		<path class="st1" d="M377,87.2h3.7c2.2-6.8,9.5-12.8,18.2-12.8c10.6,0,19.8,8.1,19.8,20.7c0,2.6-0.3,5.2-1.1,7.6h3.6v-0.1
			c0.6-2.5,0.9-5,0.9-7.5c0-14-10.2-24.1-23.3-24.1C388.7,71,379.6,78.1,377,87.2L377,87.2z"/>
	</g>
</g>
</svg>
