<svg xmlns="http://www.w3.org/2000/svg" xmlns:xlink="http://www.w3.org/1999/xlink" viewBox="0 0 95.76 95.76"><defs><style>.cls-1{fill:none;clip-rule:evenodd;}.cls-2{clip-path:url(#clip-path);}.cls-3{clip-path:url(#clip-path-2);}.cls-4{fill:#fff;}.cls-5{fill:#c67a2a;}</style><clipPath id="clip-path"><path class="cls-1" d="M-444-717.12A30.23,30.23,0,0,1-452-737.6a30.16,30.16,0,0,1,8.9-21.47l.26-.26,1.95,1.94-.27.27a27.4,27.4,0,0,0-8.09,19.52,27.5,27.5,0,0,0,7.15,18.53l3.75-3.76a22.24,22.24,0,0,1-5.61-14.77,22.19,22.19,0,0,1,6.54-15.79l.26-.26,1.95,1.94-.27.27a19.43,19.43,0,0,0-5.73,13.84,19.5,19.5,0,0,0,4.81,12.83l4.65-4.66a13,13,0,0,1-2.89-8.17,12.93,12.93,0,0,1,3.81-9.2l.26-.26,1.95,1.94-.27.27a10.16,10.16,0,0,0-3,7.25,10.12,10.12,0,0,0,2.09,6.22l3.47-3.46a5.45,5.45,0,0,1-.75-2.76,5.46,5.46,0,0,1,5.45-5.45,5.41,5.41,0,0,1,2.75.75l30.11-30.1a47.72,47.72,0,0,0-32.86-13.08,47.88,47.88,0,0,0-47.88,47.88,47.68,47.68,0,0,0,13.07,32.86Z"/></clipPath><clipPath id="clip-path-2"><path class="cls-1" d="M-386.79-770.46l-12.38,12.39a30.21,30.21,0,0,1,7.95,20.47,30.16,30.16,0,0,1-8.9,21.48l-.26.26-1.95-1.94.27-.27A27.47,27.47,0,0,0-394-737.6a27.47,27.47,0,0,0-7.15-18.52l-3.76,3.75a22.2,22.2,0,0,1,5.62,14.77,22.15,22.15,0,0,1-6.54,15.79l-.27.27-1.94-2,.26-.26A19.46,19.46,0,0,0-402-737.6a19.54,19.54,0,0,0-4.81-12.82l-4.66,4.65a13,13,0,0,1,2.9,8.17,12.89,12.89,0,0,1-3.81,9.2l-.27.27-1.94-2,.27-.26a10.24,10.24,0,0,0,3-7.26,10.11,10.11,0,0,0-2.1-6.22l-3.46,3.47a5.41,5.41,0,0,1,.75,2.75,5.47,5.47,0,0,1-4.08,5.28v31.89H-423v-31.89a5.54,5.54,0,0,1-1.38-.58l-30.1,30.11a47.68,47.68,0,0,0,32.86,13.07,47.88,47.88,0,0,0,47.88-47.88,47.72,47.72,0,0,0-13.08-32.86"/></clipPath></defs><g id="Layer_2" data-name="Layer 2"><circle class="cls-4" cx="48.08" cy="47.99" r="47.88"/></g><g id="Layer_1" data-name="Layer 1"><polygon class="cls-5" points="57.65 53.14 57.13 54.08 56.2 54.59 57.13 55.1 57.65 56.04 58.16 55.1 59.09 54.59 58.16 54.08 57.65 53.14"/><polygon class="cls-5" points="50.29 42.7 48.08 43.91 50.29 45.11 51.49 47.32 52.7 45.11 54.9 43.91 52.7 42.7 51.49 40.5 50.29 42.7"/><path class="cls-5" d="M47.88,0A47.88,47.88,0,1,0,95.76,47.88,47.88,47.88,0,0,0,47.88,0Zm6.49,80.65-2-.37c.68-3.6.7-4-.7-7.9-.23-.62-3-.5-5.54.22-5.6,1.2-9.13,1.1-10.85-.3a3.39,3.39,0,0,1-1.23-2.82,7.37,7.37,0,0,1,.54-2.25c.1-.31.25-.74.31-1a4.28,4.28,0,0,1-1.69-3,2.76,2.76,0,0,1,.55-1.52,3.32,3.32,0,0,1-2.09-1.23,3.24,3.24,0,0,1-.29-3,16.31,16.31,0,0,0,.49-2.06l.06-.28a5,5,0,0,1-4.2-1.72c-.92-1.21-.18-2,.74-3,.61-.66,1.53-1.66,2.84-3.35,2.6-3.36,2.49-6.68,2.37-10.19,0-.72-.05-1.44-.05-2.15,0-3.77,3.19-9.38,4.3-11.2a8.59,8.59,0,0,1-1.57-3.33,6.57,6.57,0,0,1,.78-4.85l.83.56.82.56a4.61,4.61,0,0,0-.46,3.36c.48,2.18,2.42,4.36,5.6,6.31a50.85,50.85,0,0,0,19,6.79v2a51.64,51.64,0,0,1-20-7.09,20.07,20.07,0,0,1-3.58-2.72c-1.22,2.1-3.68,6.68-3.68,9.61,0,.69,0,1.38.05,2.08.12,3.54.25,7.56-2.79,11.49-1.36,1.76-2.32,2.79-3,3.47l-.51.56a3.48,3.48,0,0,0,2.61.81c.73,0,1.42,0,1.83.61a1.27,1.27,0,0,1,.18,1.11,8.37,8.37,0,0,0-.21.92A18.63,18.63,0,0,1,33.32,58a1.52,1.52,0,0,0,0,1.22c.12.17.56.56,2.13.59a1.1,1.1,0,0,1,1,.64l.27.58-.42.58a5.42,5.42,0,0,0-1,1.59,2.39,2.39,0,0,0,.95,1.41c1.22.61.72,2.06.32,3.23a6.32,6.32,0,0,0-.43,1.6,1.43,1.43,0,0,0,.48,1.27c.69.55,2.77,1.27,9.11-.09,1.54-.45,6.89-1.75,7.9,1C55.12,75.92,55.11,76.68,54.37,80.65Zm4.7-36.74-4.9,2.68-2.68,4.89-2.68-4.89-4.9-2.68,4.9-2.68,2.68-4.9,2.68,4.9Zm.56,12.67-2,3.63-2-3.63-3.63-2,3.63-2,2-3.63,2,3.63,3.63,2Zm6.46-26.36C53.9,29.46,43.45,21.34,43,21l1.23-1.58c.11.08,10.42,8.08,22,8.8Z"/></g></svg>