<svg id="Layer_2" data-name="Layer 2" xmlns="http://www.w3.org/2000/svg" xmlns:xlink="http://www.w3.org/1999/xlink" viewBox="0 0 195.85 195.85"><defs><style>.cls-1,.cls-2,.cls-4,.cls-7{fill:#fff;}.cls-1{clip-rule:evenodd;}.cls-2{fill-rule:evenodd;}.cls-3{clip-path:url(#clip-path);}.cls-5{clip-path:url(#clip-path-2);}.cls-6{fill:none;}.cls-6,.cls-7{stroke:#000;stroke-miterlimit:10;stroke-width:4px;}</style><clipPath id="clip-path"><path class="cls-1" d="M-755-1422.49a30.21,30.21,0,0,1-8-20.47,30.17,30.17,0,0,1,8.89-21.47l.27-.27,1.94,2-.26.26a27.43,27.43,0,0,0-8.09,19.53,27.51,27.51,0,0,0,7.14,18.53l3.76-3.76a22.2,22.2,0,0,1-5.62-14.77,22.23,22.23,0,0,1,6.54-15.79l.27-.27,1.94,2-.26.26a19.46,19.46,0,0,0-5.74,13.85,19.48,19.48,0,0,0,4.82,12.82l4.65-4.65a13,13,0,0,1-2.9-8.17,12.91,12.91,0,0,1,3.81-9.2l.27-.27,1.94,2-.26.26a10.2,10.2,0,0,0-3,7.26,10.17,10.17,0,0,0,2.1,6.22l3.46-3.46A5.47,5.47,0,0,1-738-1443a5.46,5.46,0,0,1,5.45-5.45,5.45,5.45,0,0,1,2.76.75l30.1-30.1a47.69,47.69,0,0,0-32.86-13.08A47.88,47.88,0,0,0-780.45-1443a47.7,47.7,0,0,0,13.07,32.86Z"/></clipPath><clipPath id="clip-path-2"><path class="cls-1" d="M-697.77-1475.82l-12.39,12.39a30.21,30.21,0,0,1,7.95,20.47,30.17,30.17,0,0,1-8.89,21.47l-.27.27-1.94-2,.26-.26A27.43,27.43,0,0,0-705-1443a27.51,27.51,0,0,0-7.14-18.53l-3.76,3.76a22.25,22.25,0,0,1,5.62,14.77,22.23,22.23,0,0,1-6.54,15.79l-.27.27-1.94-1.95.26-.26A19.46,19.46,0,0,0-713-1443a19.46,19.46,0,0,0-4.82-12.82l-4.65,4.65a13,13,0,0,1,2.9,8.17,13,13,0,0,1-3.81,9.2l-.27.27-1.94-2,.26-.26a10.2,10.2,0,0,0,3-7.26,10.15,10.15,0,0,0-2.1-6.22l-3.47,3.46a5.38,5.38,0,0,1,.75,2.76,5.46,5.46,0,0,1-4.07,5.27v31.89h-2.75v-31.89a5.22,5.22,0,0,1-1.38-.57l-30.11,30.1a47.72,47.72,0,0,0,32.86,13.08A47.88,47.88,0,0,0-684.7-1443a47.68,47.68,0,0,0-13.07-32.86"/></clipPath></defs><path class="cls-2" d="M-755-1422.49a30.21,30.21,0,0,1-8-20.47,30.17,30.17,0,0,1,8.89-21.47l.27-.27,1.94,2-.26.26a27.43,27.43,0,0,0-8.09,19.53,27.51,27.51,0,0,0,7.14,18.53l3.76-3.76a22.2,22.2,0,0,1-5.62-14.77,22.23,22.23,0,0,1,6.54-15.79l.27-.27,1.94,2-.26.26a19.46,19.46,0,0,0-5.74,13.85,19.48,19.48,0,0,0,4.82,12.82l4.65-4.65a13,13,0,0,1-2.9-8.17,12.91,12.91,0,0,1,3.81-9.2l.27-.27,1.94,2-.26.26a10.2,10.2,0,0,0-3,7.26,10.17,10.17,0,0,0,2.1,6.22l3.46-3.46A5.47,5.47,0,0,1-738-1443a5.46,5.46,0,0,1,5.45-5.45,5.45,5.45,0,0,1,2.76.75l30.1-30.1a47.69,47.69,0,0,0-32.86-13.08A47.88,47.88,0,0,0-780.45-1443a47.7,47.7,0,0,0,13.07,32.86Z"/><g class="cls-3"><rect class="cls-4" x="-932.45" y="-3432.84" width="1400" height="6482"/></g><path class="cls-2" d="M-697.77-1475.82l-12.39,12.39a30.21,30.21,0,0,1,7.95,20.47,30.17,30.17,0,0,1-8.89,21.47l-.27.27-1.94-2,.26-.26A27.43,27.43,0,0,0-705-1443a27.51,27.51,0,0,0-7.14-18.53l-3.76,3.76a22.25,22.25,0,0,1,5.62,14.77,22.23,22.23,0,0,1-6.54,15.79l-.27.27-1.94-1.95.26-.26A19.46,19.46,0,0,0-713-1443a19.46,19.46,0,0,0-4.82-12.82l-4.65,4.65a13,13,0,0,1,2.9,8.17,13,13,0,0,1-3.81,9.2l-.27.27-1.94-2,.26-.26a10.2,10.2,0,0,0,3-7.26,10.15,10.15,0,0,0-2.1-6.22l-3.47,3.46a5.38,5.38,0,0,1,.75,2.76,5.46,5.46,0,0,1-4.07,5.27v31.89h-2.75v-31.89a5.22,5.22,0,0,1-1.38-.57l-30.11,30.1a47.72,47.72,0,0,0,32.86,13.08A47.88,47.88,0,0,0-684.7-1443a47.68,47.68,0,0,0-13.07-32.86"/><g class="cls-5"><rect class="cls-4" x="-932.45" y="-3432.84" width="1400" height="6482"/></g><circle class="cls-6" cx="97.93" cy="97.93" r="95.93"/><rect class="cls-6" x="59.84" y="40.48" width="76.17" height="114.9" rx="8.13"/><rect class="cls-6" x="68.26" y="54.48" width="59.28" height="92.34" rx="3.41"/><path class="cls-6" d="M81.31,132.89v5.52a.41.41,0,0,0,.63.34l8.66-5.86h16a5.23,5.23,0,0,0,5.23-5.23V109.53a5.23,5.23,0,0,0-5.23-5.23H81.31a5.23,5.23,0,0,0-5.23,5.23v18.13A5.23,5.23,0,0,0,81.31,132.89Z"/><line class="cls-7" x1="81.57" y1="112.12" x2="100.58" y2="112.12"/><line class="cls-7" x1="81.57" y1="123.39" x2="100.58" y2="123.39"/><line class="cls-7" x1="81.57" y1="117.76" x2="105.54" y2="117.76"/><path class="cls-6" d="M114.63,94.09v5.52a.4.4,0,0,1-.62.33l-8.66-5.85h-16a5.24,5.24,0,0,1-5.23-5.24V70.72a5.23,5.23,0,0,1,5.23-5.23h25.32a5.23,5.23,0,0,1,5.23,5.23V88.85A5.24,5.24,0,0,1,114.63,94.09Z"/><line class="cls-7" x1="89.57" y1="73.32" x2="108.58" y2="73.32"/><line class="cls-7" x1="89.57" y1="84.59" x2="108.58" y2="84.59"/><line class="cls-7" x1="89.57" y1="78.95" x2="113.54" y2="78.95"/><line class="cls-6" x1="89.29" y1="47.38" x2="106.56" y2="47.38"/></svg>