<svg xmlns="http://www.w3.org/2000/svg" width="699.846" height="250.134" overflow="visible">
  <path d="M6.598 213.077c5.157 4.364 11.428 5.933 17.242 5.933 6.161 0 9.857-1.789 9.857-5.593 0-3.928-3.14-4.256-10.184-5.269l-2.695-.448c-9.629-1.449-16.675-5.485-16.675-15.441 0-10.306 7.832-17.808 22.39-17.808 7.384 0 13.435 1.569 17.688 4.699l-5.933 9.859c-3.358-2.355-7.284-3.468-11.755-3.468-4.701 0-7.394 1.897-7.394 4.699 0 3.468 3.25 4.144 10.076 5.039l2.912.448c9.966 1.451 17.46 5.595 17.46 16.347 0 11.418-9.063 18.801-25.63 18.801-9.181 0-18.136-2.237-23.959-6.826l6.6-10.972zm94.935-1.341c-2.237 3.02-5.823 5.147-10.862 5.147-7.832 0-12.989-5.933-12.989-13.992 0-7.84 5.605-14.44 13.555-14.44 4.473 0 7.941 1.899 10.296 4.701v18.584m16.566 17.798v-53.742h-10.296l-3.02 4.929c-4.254-4.146-9.741-6.271-16.349-6.271-16.237 0-27.317 12.541-27.317 28.66 0 16.347 9.739 27.765 26.423 27.765 6.826 0 12.531-2.235 17.012-6.718l3.25 5.377h10.297zm18.126-22.28c0 15.791 9.739 23.623 27.199 23.623 17.58 0 27.209-7.832 27.209-23.623v-31.463h-16.565v30.677c0 6.948-4.036 10.754-10.644 10.754-6.826 0-10.632-3.806-10.632-10.754v-30.677h-16.567v31.463zm72.982 22.279h16.567V194.94c2.573-3.696 6.836-6.488 11.876-6.488 6.15 0 9.956 3.468 9.956 11.3v29.781h16.567V196.73c0-15.223-9.401-22.28-22.162-22.28-7.722 0-14.22 2.575-18.691 7.95l-3.816-6.608h-10.296v53.741zm110.705-17.797c-2.237 3.02-5.813 5.147-10.852 5.147-7.842 0-12.989-5.933-12.989-13.992 0-7.84 5.595-14.44 13.544-14.44 4.484 0 7.952 1.899 10.296 4.701v18.584m16.576 17.798v-53.742h-10.304l-3.02 4.929c-4.254-4.146-9.741-6.271-16.349-6.271-16.227 0-27.309 12.541-27.309 28.66 0 16.347 9.741 27.765 26.415 27.765 6.826 0 12.541-2.235 17.023-6.718l3.24 5.377h10.304zM442.327 15.511C431.284 5.227 416.884-.144 401.781.393c-15.101.54-29.081 6.918-39.367 17.963L346.059 35.92l-17.645-16.424C314.212 6.265 295.694-.645 276.276.047h-.002c-19.406.696-37.379 8.904-50.608 23.112-10.292 11.049-15.667 25.448-15.128 40.546.537 15.097 6.922 29.079 17.975 39.369 11.043 10.286 25.442 15.655 40.546 15.118 15.101-.539 29.081-6.918 39.367-17.963l16.355-17.562 17.645 16.424c14.202 13.231 32.72 20.139 52.138 19.447h.002c19.408-.696 37.379-8.902 50.608-23.112 10.292-11.047 15.667-25.448 15.128-40.546-.537-15.097-6.922-29.077-17.975-39.369m-8.978 68.907c-10.286 11.047-24.266 17.434-39.361 17.975-15.103.539-29.505-4.834-40.556-15.128l-17.641-16.42 11.011-11.823 17.643 16.42c7.893 7.353 18.179 11.19 28.959 10.805h.004c10.783-.387 20.769-4.946 28.121-12.842a24.073 24.073 0 006.484-17.375c-.232-6.468-2.965-12.46-7.703-16.874-4.891-4.551-11.177-6.692-17.379-6.472-6.199.222-12.319 2.805-16.87 7.693l-5.507 5.91 11.823 11.009 5.505-5.91c3.035-3.258 8.157-3.442 11.418-.407a8.033 8.033 0 012.568 5.627 8.026 8.026 0 01-2.161 5.792 24.073 24.073 0 01-16.874 7.703 24.066 24.066 0 01-17.379-6.484l-17.641-16.42.167-.181-.096-.09 16.353-17.562c7.345-7.886 17.332-12.441 28.121-12.826 10.787-.383 21.073 3.45 28.961 10.797 7.895 7.349 12.456 17.338 12.838 28.119.384 10.783-3.452 21.071-10.808 28.964M296.6 89.221c-7.343 7.886-17.33 12.441-28.119 12.826-10.787.385-21.073-3.45-28.961-10.797-7.895-7.349-12.456-17.338-12.838-28.119-.385-10.783 3.452-21.069 10.805-28.963 10.288-11.047 24.268-17.434 39.363-17.975 15.103-.537 29.505 4.834 40.556 15.128l17.641 16.422-11.011 11.823-17.643-16.422c-7.895-7.353-18.179-11.19-28.959-10.805h-.006c-10.781.387-20.767 4.946-28.119 12.842-4.412 4.734-6.714 10.907-6.484 17.375a24.077 24.077 0 007.703 16.874c4.889 4.553 11.175 6.694 17.377 6.472 6.201-.222 12.321-2.805 16.872-7.693l5.507-5.91-11.823-11.009-5.505 5.91c-3.037 3.26-8.159 3.442-11.418.407a8.032 8.032 0 01-2.568-5.625 8.026 8.026 0 012.159-5.792c4.414-4.74 10.406-7.475 16.876-7.705a24.08 24.08 0 0117.379 6.484l17.641 16.42-.169.181.098.09L296.6 89.221z" fill="#D8661F"/>
  <path d="M356.403 213.077c5.147 4.364 11.418 5.933 17.242 5.933 6.15 0 9.848-1.789 9.848-5.593 0-3.928-3.132-4.256-10.186-5.269l-2.684-.448c-9.629-1.449-16.685-5.485-16.685-15.441 0-10.306 7.842-17.808 22.39-17.808 7.394 0 13.437 1.569 17.688 4.699l-5.933 9.859c-3.358-2.355-7.274-3.468-11.755-3.468-4.701 0-7.384 1.897-7.384 4.699 0 3.468 3.24 4.144 10.076 5.039l2.912.448c9.958 1.451 17.46 5.595 17.46 16.347 0 11.418-9.073 18.801-25.64 18.801-9.181 0-18.136-2.237-23.959-6.826l6.61-10.972zm74.662-19.368c2.245-3.02 5.823-5.257 10.862-5.257 7.84 0 12.987 5.933 12.987 13.992 0 7.832-5.595 14.44-13.544 14.44-4.482 0-8.059-1.909-10.304-4.701v-18.474m-16.568 56.425h16.567v-22.835c3.696 2.345 8.059 3.578 13.097 3.578 16.239 0 27.319-12.543 27.319-28.66 0-16.349-9.739-27.767-26.413-27.767-6.948 0-12.771 2.247-17.133 6.498l-3.14-5.157h-10.296v74.343zm110.258-38.398c-2.237 3.02-5.813 5.147-10.852 5.147-7.842 0-12.989-5.933-12.989-13.992 0-7.84 5.595-14.44 13.544-14.44 4.484 0 7.952 1.899 10.296 4.701v18.584m16.576 17.798v-53.742h-10.304l-3.02 4.929c-4.254-4.146-9.741-6.271-16.349-6.271-16.227 0-27.309 12.541-27.309 28.66 0 16.347 9.741 27.765 26.415 27.765 6.826 0 12.541-2.235 17.023-6.718l3.24 5.377h10.304zm57.42-17.242c-2.465 2.237-5.595 4.591-11.08 4.591-7.842 0-13.884-5.933-13.884-14.22 0-8.397 6.043-14.212 13.884-14.212 5.485 0 8.615 2.345 11.08 4.581l7.394-11.745c-4.819-4.712-11.31-6.838-19.487-6.838-16.339 0-29.435 10.752-29.435 28.552 0 17.798 12.759 27.874 29.773 27.874 8.177 0 14.33-2.127 19.149-6.826l-7.394-11.757m33.352-15.901c1.679-5.365 5.605-8.953 12.093-8.953 6.161 0 9.183 3.696 10.186 8.953h-22.279m11.755-21.942c-16.009 0-29.108 10.972-29.108 28.55 0 20.493 14.56 27.876 29.893 27.876 10.632 0 18.474-2.127 24.854-7.722l-7.056-10.862c-3.806 3.358-8.955 5.595-15.333 5.595-8.397 0-14.56-3.578-15.673-12.313h39.066c.228-.666.338-2.792.338-4.026 0-17.021-11.757-27.098-26.981-27.098M690.274 174.386c.946 0 1.577.596 1.577 1.473 0 .841-.702 1.471-1.577 1.471h-1.648v-2.945h1.648zm-4.243 7.435h2.595v-2.385h1.296l1.754 2.385h2.839l-2.139-2.876c1.298-.631 2.035-1.824 2.035-3.191 0-1.964-1.402-3.472-3.997-3.472h-4.384v9.539zm-3.295-4.699c0-4.138 2.945-7.504 7.223-7.504 4.241 0 7.188 3.366 7.188 7.504s-2.947 7.504-7.188 7.504c-4.278 0-7.223-3.367-7.223-7.504m-2.701 0c0 5.505 4.243 9.993 9.924 9.993 5.644 0 9.887-4.488 9.887-9.993s-4.243-9.993-9.887-9.993c-5.681 0-9.924 4.487-9.924 9.993" fill="#fff"/>
</svg>
