<svg width="118" height="35" viewBox="0 0 118 35" fill="none" xmlns="http://www.w3.org/2000/svg">
<path d="M2.30185 31.582C2.92674 32.0951 3.59152 32.5812 4.30948 32.9998C11.3428 37.118 20.3306 34.674 24.3858 27.5313C28.4409 20.3885 26.0344 11.2609 19.0011 7.14268C18.2831 6.72411 17.5386 6.37304 16.794 6.08949L2.30185 31.582Z" fill="#642F6C"/>
<path d="M24.0668 3.41618C23.4419 2.90309 22.7771 2.417 22.0591 1.99843C15.0258 -2.1198 6.03797 0.337633 1.96953 7.46689C-2.08562 14.6097 0.320875 23.7373 7.35423 27.8555C8.07219 28.2741 8.81675 28.6251 9.5613 28.9087L24.0668 3.41618Z" fill="white"/>
<path d="M2.30185 31.582C2.92674 32.0951 3.59152 32.5812 4.30948 32.9998C11.3428 37.118 20.3306 34.674 24.3858 27.5313C28.4409 20.3885 26.0344 11.2609 19.0011 7.14268C18.2831 6.72411 17.5386 6.37304 16.794 6.08949L2.30185 31.582Z" fill="#642F6C"/>
<path d="M24.0668 3.41618C23.4419 2.90309 22.7771 2.417 22.0591 1.99843C15.0258 -2.1198 6.03797 0.337633 1.96953 7.46689C-2.08562 14.6097 0.320875 23.7373 7.35423 27.8555C8.07219 28.2741 8.81675 28.6251 9.5613 28.9087L24.0668 3.41618Z" fill="#A77BCA"/>
<path d="M11.635 34.9983C9.13543 34.9983 6.60927 34.3502 4.29584 32.9999C3.57788 32.5813 2.9131 32.1088 2.28821 31.5822L5.25312 26.3838C5.9046 26.9374 6.59597 27.4369 7.35382 27.869C8.07178 28.2876 8.81633 28.6386 9.56089 28.9222L21.1014 8.62811C24.4918 11.5176 26.3532 15.7439 26.3532 20.0916C26.3532 22.6166 25.715 25.182 24.3855 27.545C21.6599 32.3248 16.7139 34.9983 11.635 34.9983Z" fill="#642F6C"/>
<path d="M9.56106 28.9221C8.80321 28.6386 8.07196 28.2875 7.354 27.8689C6.59615 27.4234 5.90478 26.9238 5.2533 26.3837L16.7939 6.07608C17.5517 6.35963 18.283 6.71069 19.0009 7.12927C19.7588 7.57485 20.4501 8.07443 21.1016 8.61453L9.56106 28.9221Z" fill="#A77BCA"/>
<g style="mix-blend-mode:multiply">
<path d="M9.56106 28.9221C8.80321 28.6386 8.07196 28.2875 7.354 27.8689C6.59615 27.4234 5.90478 26.9238 5.2533 26.3837L16.7939 6.07608C17.5517 6.35963 18.283 6.71069 19.0009 7.12927C19.7588 7.57485 20.4501 8.07443 21.1016 8.61453L9.56106 28.9221Z" fill="#642F6C"/>
</g>
<path d="M39.45 26.7617C36.6313 26.7617 33.9988 25.9515 32.164 24.9658L32.8155 20.7531C34.9029 22.0763 37.469 22.873 39.4899 22.873C41.0056 22.873 41.7235 22.3599 41.7235 21.5227C41.7235 20.6046 41.2183 20.1995 38.732 19.5784C34.2913 18.4037 32.4166 17.202 32.4166 13.8264C32.4166 10.4913 34.8763 8.24988 39.1974 8.24988C41.5773 8.24988 43.8907 8.72246 45.7255 9.57311L45.0341 13.7859C43.1196 12.7192 40.9258 12.0981 39.224 12.0981C37.921 12.0981 37.3493 12.5706 37.3493 13.2728C37.3493 14.0019 37.8545 14.407 40.3408 15.1091C45.0341 16.3918 46.6961 17.607 46.6961 20.9421C46.6961 24.7093 44.1433 26.7617 39.45 26.7617Z" fill="#231F20"/>
<path d="M58.5822 26.6403C57 26.6403 55.8699 26.3432 54.8594 26.0191V32.4328L49.4082 33.2699V8.50655H54.2079L54.5669 10.883C55.7901 9.49222 57.3856 8.12848 59.6591 8.12848C63.3021 8.12848 66.0144 10.91 66.0144 16.9995C66.0144 23.8183 62.4778 26.6403 58.5822 26.6403ZM57.8908 13.0839C56.6942 13.0839 55.7635 13.813 54.8594 14.9202V21.7389C55.6173 22.1035 56.2289 22.2925 57.3457 22.2925C59.1805 22.2925 60.5632 20.8612 60.5632 17.3776C60.5632 14.3666 59.4464 13.0839 57.8908 13.0839Z" fill="#231F20"/>
<path d="M68.9391 26.4647V0.877655L74.4169 0V26.4647H68.9391Z" fill="#231F20"/>
<path d="M78.3926 26.4647V8.5065H83.8837V26.4647H78.3926Z" fill="#231F20"/>
<path d="M95.3576 26.7211C91.5683 26.7211 88.9358 25.3304 88.9358 20.7531V13.0162H86.5958V8.50642H88.9358V3.14597L94.3471 2.30882V8.50642H97.6976L98.389 13.0162H94.3471V19.8754C94.3471 21.3472 95.0385 21.9953 96.5143 21.9953C96.9796 21.9953 97.4184 21.9278 97.8173 21.8063L98.5086 26.3566C97.6311 26.6131 96.7935 26.7211 95.3576 26.7211Z" fill="#231F20"/>
<path d="M102.218 26.4646V9.12753H104.558V26.4646H102.218Z" fill="#A77BCA"/>
<path d="M115.633 26.7616C112.961 26.7616 111.192 25.695 111.192 22.5084V11.1799H108.56V9.12753H111.192V3.11897L113.533 2.7139V9.12753H117.468L117.787 11.1799H113.533V22.1033C113.533 23.8586 114.224 24.6283 116.059 24.6283C116.604 24.6283 117.255 24.5203 117.641 24.4392L118 26.4511C117.508 26.6131 116.644 26.7616 115.633 26.7616Z" fill="#A77BCA"/>
<path d="M81.1576 5.14433C79.9876 5.14433 79.0037 4.15865 79.0037 2.98395C79.0037 1.80924 79.9876 0.823563 81.1576 0.823563C82.3276 0.823563 83.2583 1.80924 83.2583 2.98395C83.2583 4.15865 82.3143 5.14433 81.1576 5.14433Z" fill="#231F20"/>
<path d="M103.415 4.94178C102.351 4.94178 101.46 4.03712 101.46 2.98394C101.46 1.91725 102.351 1.02609 103.415 1.02609C104.479 1.02609 105.329 1.93075 105.329 2.98394C105.329 4.05063 104.465 4.94178 103.415 4.94178Z" fill="#A77BCA"/>
</svg>
