<svg xmlns="http://www.w3.org/2000/svg" xmlns:xlink="http://www.w3.org/1999/xlink" viewBox="0 0 95.76 95.76"><defs><style>.cls-1,.cls-2,.cls-4{fill:#fff;}.cls-1{clip-rule:evenodd;}.cls-2{fill-rule:evenodd;}.cls-3{clip-path:url(#clip-path);}.cls-5{clip-path:url(#clip-path-2);}</style><clipPath id="clip-path"><path class="cls-1" d="M193.11-1252.31a30.23,30.23,0,0,1-8-20.48,30.16,30.16,0,0,1,8.9-21.47l.26-.26,2,1.94-.27.27a27.4,27.4,0,0,0-8.09,19.52,27.5,27.5,0,0,0,7.15,18.53l3.75-3.76a22.24,22.24,0,0,1-5.61-14.77,22.19,22.19,0,0,1,6.54-15.79l.26-.26,1.95,1.94-.27.27a19.43,19.43,0,0,0-5.73,13.84,19.5,19.5,0,0,0,4.81,12.83l4.65-4.66a13,13,0,0,1-2.89-8.17,12.93,12.93,0,0,1,3.81-9.2l.26-.26,1.95,1.94-.27.27a10.17,10.17,0,0,0-3,7.25,10.06,10.06,0,0,0,2.1,6.22l3.46-3.46a5.45,5.45,0,0,1-.75-2.76,5.46,5.46,0,0,1,5.45-5.45,5.41,5.41,0,0,1,2.75.75l30.11-30.1a47.7,47.7,0,0,0-32.86-13.08,47.88,47.88,0,0,0-47.88,47.88,47.72,47.72,0,0,0,13.07,32.86Z"/></clipPath><clipPath id="clip-path-2"><path class="cls-1" d="M250.33-1305.65,238-1293.26a30.23,30.23,0,0,1,8,20.47,30.16,30.16,0,0,1-8.9,21.48l-.26.26-2-1.94.27-.27a27.45,27.45,0,0,0,8.09-19.53,27.47,27.47,0,0,0-7.15-18.52l-3.76,3.75a22.24,22.24,0,0,1,5.62,14.77,22.15,22.15,0,0,1-6.54,15.79l-.27.27-1.94-1.94.26-.27a19.45,19.45,0,0,0,5.74-13.85,19.54,19.54,0,0,0-4.81-12.82l-4.66,4.65a13,13,0,0,1,2.9,8.17,12.93,12.93,0,0,1-3.81,9.21l-.27.26-1.94-1.94.27-.27a10.22,10.22,0,0,0,3-7.26,10.11,10.11,0,0,0-2.1-6.22l-3.46,3.47a5.41,5.41,0,0,1,.75,2.75,5.47,5.47,0,0,1-4.08,5.28v31.89h-2.75v-31.89a5.54,5.54,0,0,1-1.38-.58L182.67-1238a47.68,47.68,0,0,0,32.86,13.07,47.88,47.88,0,0,0,47.88-47.88,47.72,47.72,0,0,0-13.08-32.86"/></clipPath></defs><g id="Layer_2" data-name="Layer 2"><path class="cls-2" d="M193.11-1252.31a30.23,30.23,0,0,1-8-20.48,30.16,30.16,0,0,1,8.9-21.47l.26-.26,2,1.94-.27.27a27.4,27.4,0,0,0-8.09,19.52,27.5,27.5,0,0,0,7.15,18.53l3.75-3.76a22.24,22.24,0,0,1-5.61-14.77,22.19,22.19,0,0,1,6.54-15.79l.26-.26,1.95,1.94-.27.27a19.43,19.43,0,0,0-5.73,13.84,19.5,19.5,0,0,0,4.81,12.83l4.65-4.66a13,13,0,0,1-2.89-8.17,12.93,12.93,0,0,1,3.81-9.2l.26-.26,1.95,1.94-.27.27a10.17,10.17,0,0,0-3,7.25,10.06,10.06,0,0,0,2.1,6.22l3.46-3.46a5.45,5.45,0,0,1-.75-2.76,5.46,5.46,0,0,1,5.45-5.45,5.41,5.41,0,0,1,2.75.75l30.11-30.1a47.7,47.7,0,0,0-32.86-13.08,47.88,47.88,0,0,0-47.88,47.88,47.72,47.72,0,0,0,13.07,32.86Z"/><g class="cls-3"><rect class="cls-4" x="15.65" y="-3262.67" width="1400" height="6482"/></g><path class="cls-2" d="M250.33-1305.65,238-1293.26a30.23,30.23,0,0,1,8,20.47,30.16,30.16,0,0,1-8.9,21.48l-.26.26-2-1.94.27-.27a27.45,27.45,0,0,0,8.09-19.53,27.47,27.47,0,0,0-7.15-18.52l-3.76,3.75a22.24,22.24,0,0,1,5.62,14.77,22.15,22.15,0,0,1-6.54,15.79l-.27.27-1.94-1.94.26-.27a19.45,19.45,0,0,0,5.74-13.85,19.54,19.54,0,0,0-4.81-12.82l-4.66,4.65a13,13,0,0,1,2.9,8.17,12.93,12.93,0,0,1-3.81,9.21l-.27.26-1.94-1.94.27-.27a10.22,10.22,0,0,0,3-7.26,10.11,10.11,0,0,0-2.1-6.22l-3.46,3.47a5.41,5.41,0,0,1,.75,2.75,5.47,5.47,0,0,1-4.08,5.28v31.89h-2.75v-31.89a5.54,5.54,0,0,1-1.38-.58L182.67-1238a47.68,47.68,0,0,0,32.86,13.07,47.88,47.88,0,0,0,47.88-47.88,47.72,47.72,0,0,0-13.08-32.86"/><g class="cls-5"><rect class="cls-4" x="15.65" y="-3262.67" width="1400" height="6482"/></g></g><g id="Layer_1" data-name="Layer 1"><path class="cls-4" d="M74.43,63.25h0c-1-1.48-8.4-10-9.31-11s-2.74-8.91-3.77-13.54c-.62-3.2-4.41-4.63-6.93-5.58a11.26,11.26,0,0,1-2.26-1c-1.27-.88-2.06-2.79-2.47-4.05a8.25,8.25,0,0,1-3.61,0,8.27,8.27,0,0,1-2.46,4.05,11.67,11.67,0,0,1-2.27,1c-2.51.95-6.31,2.38-6.92,5.55-1,4.66-2.89,12.58-3.78,13.57s-8.32,9.52-9.31,11h0a.9.9,0,0,1-.34.33A60.51,60.51,0,0,0,15,67.25a16.46,16.46,0,0,0,1.8-.1l10.49-6.47c5.67-5.15,7-6.42,7.31-6.71.32-.46,1.27-3.69,2.61-9.79a1.2,1.2,0,0,1,1.27-.94,1.19,1.19,0,0,1,1.11,1.12l.93,14.09a2.5,2.5,0,0,1-2.29,2.64c-2.73.22-8.31,1.38-10,1.73l-.25,0a1.27,1.27,0,0,1-.34-.05L20.88,67a4.93,4.93,0,0,0,1.23,3.58c1.14,1.13,3.15,1.64,6,1.48,8.66-.26,18.26-.82,19.35-1.29l.44-.2.49.21c1.08.46,10.67,1,19.31,1.28,2.84.16,4.84-.35,6-1.48A4.84,4.84,0,0,0,74.87,67L68,62.79a1.41,1.41,0,0,1-.35.05,1.07,1.07,0,0,1-.25,0c-1.64-.34-7.21-1.5-10-1.72a2.48,2.48,0,0,1-2.28-2.64l.92-14.09a1.21,1.21,0,0,1,2.38-.18c1.34,6.1,2.29,9.33,2.65,9.83s3.07,2.85,7.27,6.67l10.49,6.47a16.46,16.46,0,0,0,1.8.1,60.51,60.51,0,0,0-5.94-3.67A1,1,0,0,1,74.43,63.25Z"/><path class="cls-4" d="M57.77,49.84l-.58,8.74a.48.48,0,0,0,.45.52c1.89.15,4.94.7,7.37,1.18-2.43-2.22-4.78-4.37-5.31-4.9C59.46,55.15,59,54.66,57.77,49.84Z"/><path class="cls-4" d="M47.88,26.26c4.72,0,5.42-4.58,5.42-7.3s-.7-7.3-5.42-7.3-5.43,4.57-5.43,7.3S43.15,26.26,47.88,26.26Z"/><path class="cls-4" d="M38.56,58.58,38,49.84c-1.22,4.82-1.7,5.31-1.94,5.54-.52.53-2.87,2.68-5.3,4.9,2.43-.48,5.47-1,7.36-1.18A.48.48,0,0,0,38.56,58.58Z"/><path class="cls-4" d="M47.88,0A47.88,47.88,0,1,0,95.76,47.88,47.88,47.88,0,0,0,47.88,0ZM81.3,69.27A12.18,12.18,0,0,1,78,68.93l-1.18-.73A6.32,6.32,0,0,1,75.05,72c-1.56,1.55-4.07,2.23-7.47,2.06-5.15-.16-16.85-.6-19.7-1.36-2.86.76-14.56,1.2-19.73,1.36l-1,0c-2.87,0-5-.7-6.44-2.09a6.32,6.32,0,0,1-1.76-3.81l-1.18.73a12.12,12.12,0,0,1-3.31.34,4.7,4.7,0,0,1-2.53-.43l-.56-.57.43-.71c1.15-1.77,6.53-4.8,8-5.63,1.5-2.07,8.66-10.27,9.34-11,.47-.73,2.05-7,3.3-12.63.82-4.24,5.42-6,8.17-7a11.5,11.5,0,0,0,1.83-.79,6.74,6.74,0,0,0,1.74-3.14C41.8,25.94,40.45,23,40.45,19c0-5.83,2.78-9.3,7.43-9.3S55.3,13.13,55.3,19c0,4.06-1.35,7-3.75,8.37a6.82,6.82,0,0,0,1.74,3.14,11.5,11.5,0,0,0,1.83.79c2.75,1,7.35,2.78,8.18,7,1.24,5.6,2.83,11.88,3.33,12.66s7.8,8.9,9.3,11c1.5.83,6.88,3.86,8,5.63l.43.67-.56.61A4.7,4.7,0,0,1,81.3,69.27Z"/></g></svg>