<svg xmlns="http://www.w3.org/2000/svg" viewBox="0 0 112.99 112.99"><defs><style>.cls-1{fill:#fff;}</style></defs><g id="Layer_1" data-name="Layer 1"><path class="cls-1" d="M87.52,61.09l8-4.6-8-4.59a5.13,5.13,0,0,1-2.37-3.08A5.06,5.06,0,0,1,85.66,45l4.6-8h-9.2A5.05,5.05,0,0,1,76,31.93v-9.2l-8,4.6a5.07,5.07,0,0,1-6.94-1.86l-4.59-8-4.6,8A5.07,5.07,0,0,1,45,27.33l-8-4.6v9.2A5.05,5.05,0,0,1,31.93,37h-9.2l4.6,8a5.06,5.06,0,0,1,.51,3.86,5.13,5.13,0,0,1-2.37,3.08l-8,4.59,8,4.6a5.13,5.13,0,0,1,2.37,3.08A5.06,5.06,0,0,1,27.33,68l-4.6,8h9.2A5.05,5.05,0,0,1,37,81.07v9.19l8-4.6A5.08,5.08,0,0,1,47.49,85a5.45,5.45,0,0,1,1.33.17,5,5,0,0,1,3.08,2.37l4.6,8,4.59-8A5.07,5.07,0,0,1,68,85.66l8,4.6V81.07A5.05,5.05,0,0,1,81.06,76h9.2l-4.6-8a5.06,5.06,0,0,1-.51-3.86A5.13,5.13,0,0,1,87.52,61.09Zm-31,21.4a26,26,0,1,1,26-26A26,26,0,0,1,56.5,82.49Z"/><path class="cls-1" d="M56.5,0A56.5,56.5,0,1,0,113,56.5,56.49,56.49,0,0,0,56.5,0ZM88.26,66.53,95.45,79H81.06a2.06,2.06,0,0,0-1.46.61A2,2,0,0,0,79,81.07V95.45L66.53,88.26a2.07,2.07,0,0,0-2.84.76L56.5,101.48,49.3,89a2.07,2.07,0,0,0-2.84-.76L34,95.45V81.07A2.07,2.07,0,0,0,31.93,79H17.54l7.19-12.46A2.08,2.08,0,0,0,24.94,65a2,2,0,0,0-1-1.26l-12.46-7.2L24,49.3a2,2,0,0,0,1-1.26,2.08,2.08,0,0,0-.21-1.58L17.54,34H31.93A2,2,0,0,0,34,31.93V17.54l12.46,7.19A2.07,2.07,0,0,0,49.3,24l7.2-12.46L63.69,24a2,2,0,0,0,1.26,1,2.08,2.08,0,0,0,1.58-.21h0L79,17.54V31.93a2.06,2.06,0,0,0,.61,1.47,2.09,2.09,0,0,0,1.46.6H95.45L88.26,46.46A2.08,2.08,0,0,0,88.05,48a2,2,0,0,0,1,1.26l12.46,7.19L89,63.69a2,2,0,0,0-1,1.26A2.08,2.08,0,0,0,88.26,66.53Z"/><path class="cls-1" d="M56.5,33.5a23,23,0,1,0,23,23A23,23,0,0,0,56.5,33.5Z"/></g></svg>