<svg id="Layer_2" data-name="Layer 2" xmlns="http://www.w3.org/2000/svg" xmlns:xlink="http://www.w3.org/1999/xlink" viewBox="0 0 72 72"><defs><style>.cls-1,.cls-4,.cls-5,.cls-6{fill:none;}.cls-1{clip-rule:evenodd;}.cls-2{clip-path:url(#clip-path);}.cls-3{clip-path:url(#clip-path-2);}.cls-4{stroke:#000;stroke-miterlimit:10;}.cls-4,.cls-5,.cls-6{stroke-width:2px;}.cls-5,.cls-6{stroke:#010101;}.cls-5{stroke-linejoin:round;}</style><clipPath id="clip-path"><path class="cls-1" d="M-631.86,315.19a30.21,30.21,0,0,1-7.95-20.47,30.14,30.14,0,0,1,8.9-21.47l.26-.27,1.95,1.94-.27.27a27.47,27.47,0,0,0-8.09,19.53,27.47,27.47,0,0,0,7.15,18.52l3.76-3.75a22.2,22.2,0,0,1-5.62-14.77,22.15,22.15,0,0,1,6.54-15.79l.27-.27,1.94,1.95-.27.26A19.5,19.5,0,0,0-629,294.72a19.54,19.54,0,0,0,4.81,12.82l4.65-4.65a13,13,0,0,1-2.89-8.17,12.89,12.89,0,0,1,3.81-9.2l.26-.27,2,1.95-.27.26a10.24,10.24,0,0,0-3,7.26,10.11,10.11,0,0,0,2.1,6.22l3.46-3.47a5.41,5.41,0,0,1-.75-2.75,5.46,5.46,0,0,1,5.45-5.45,5.45,5.45,0,0,1,2.76.75l30.1-30.11a47.68,47.68,0,0,0-32.86-13.07,47.88,47.88,0,0,0-47.88,47.88,47.72,47.72,0,0,0,13.08,32.86Z"/></clipPath><clipPath id="clip-path-2"><path class="cls-1" d="M-574.63,261.86-587,274.24a30.25,30.25,0,0,1,7.95,20.48,30.14,30.14,0,0,1-8.9,21.47l-.26.27-1.95-1.95.27-.26a27.49,27.49,0,0,0,8.09-19.53A27.5,27.5,0,0,0-589,276.19l-3.75,3.76a22.24,22.24,0,0,1,5.61,14.77,22.19,22.19,0,0,1-6.54,15.79l-.26.26-2-1.94.27-.27a19.41,19.41,0,0,0,5.73-13.84,19.5,19.5,0,0,0-4.81-12.83l-4.65,4.66a13,13,0,0,1,2.89,8.17,12.93,12.93,0,0,1-3.81,9.2l-.26.26-2-1.94.27-.27a10.16,10.16,0,0,0,3-7.25,10.06,10.06,0,0,0-2.1-6.22l-3.46,3.46a5.47,5.47,0,0,1,.75,2.76,5.46,5.46,0,0,1-4.07,5.27v31.89h-2.75V300a5.22,5.22,0,0,1-1.38-.57l-30.11,30.1a47.7,47.7,0,0,0,32.86,13.08,47.88,47.88,0,0,0,47.88-47.88,47.72,47.72,0,0,0-13.07-32.86"/></clipPath></defs><circle class="cls-4" cx="36" cy="36" r="35"/><polyline id="Path-7" class="cls-5" points="15.16 18.83 19.27 20.06 24.83 45.42 48.69 45.42"/><polyline id="Path-8" class="cls-5" points="19.6 25.47 52.84 25.47 48.91 38.77 22.51 38.77"/><circle id="Oval" class="cls-6" cx="29.57" cy="50.96" r="2.22"/><circle id="Oval-Copy" class="cls-6" cx="42.86" cy="50.96" r="2.22"/></svg>