<svg xmlns="http://www.w3.org/2000/svg" xmlns:xlink="http://www.w3.org/1999/xlink" viewBox="0 0 72 72"><defs><style>.cls-1,.cls-2,.cls-5{fill:none;}.cls-1{clip-rule:evenodd;}.cls-2{stroke:#000;}.cls-2,.cls-5{stroke-miterlimit:10;stroke-width:2px;}.cls-3{clip-path:url(#clip-path);}.cls-4{clip-path:url(#clip-path-2);}.cls-5{stroke:#231f20;}</style><clipPath id="clip-path"><path class="cls-1" d="M-717.45,315.19a30.21,30.21,0,0,1-7.95-20.47,30.17,30.17,0,0,1,8.89-21.47l.27-.27,1.94,1.94-.26.27a27.43,27.43,0,0,0-8.09,19.53,27.43,27.43,0,0,0,7.15,18.52l3.75-3.75a22.24,22.24,0,0,1-5.61-14.77,22.15,22.15,0,0,1,6.54-15.79l.26-.27,1.95,1.95-.27.26a19.45,19.45,0,0,0-5.73,13.85,19.49,19.49,0,0,0,4.81,12.82l4.65-4.65a13,13,0,0,1-2.9-8.17,12.9,12.9,0,0,1,3.82-9.2l.26-.27,2,1.95-.27.26a10.2,10.2,0,0,0-3,7.26,10.17,10.17,0,0,0,2.1,6.22l3.47-3.47a5.41,5.41,0,0,1-.75-2.75,5.45,5.45,0,0,1,5.45-5.45,5.41,5.41,0,0,1,2.75.75l30.11-30.11A47.71,47.71,0,0,0-695,246.84a47.88,47.88,0,0,0-47.88,47.88,47.71,47.71,0,0,0,13.07,32.86Z"/></clipPath><clipPath id="clip-path-2"><path class="cls-1" d="M-660.23,261.86l-12.39,12.38a30.25,30.25,0,0,1,8,20.48,30.17,30.17,0,0,1-8.89,21.47l-.27.27-1.94-1.95.26-.26a27.44,27.44,0,0,0,8.09-19.53,27.49,27.49,0,0,0-7.14-18.53l-3.76,3.76a22.2,22.2,0,0,1,5.62,14.77,22.19,22.19,0,0,1-6.54,15.79l-.27.26-1.94-1.94.26-.27a19.42,19.42,0,0,0,5.74-13.84,19.51,19.51,0,0,0-4.82-12.83l-4.65,4.66a13,13,0,0,1,2.9,8.17,12.93,12.93,0,0,1-3.81,9.2l-.27.26-1.94-1.94.26-.27a10.16,10.16,0,0,0,3-7.25,10.13,10.13,0,0,0-2.1-6.22l-3.46,3.46a5.47,5.47,0,0,1,.75,2.76,5.47,5.47,0,0,1-4.08,5.27v31.89h-2.75V300a5.36,5.36,0,0,1-1.38-.57l-30.1,30.1A47.69,47.69,0,0,0-695,342.6a47.88,47.88,0,0,0,47.87-47.88,47.68,47.68,0,0,0-13.07-32.86"/></clipPath></defs><g id="Layer_2" data-name="Layer 2"><circle class="cls-2" cx="36" cy="36" r="35"/></g><g id="Layer_1" data-name="Layer 1"><path class="cls-5" d="M38.26,25.52s.58,2.53,1.73,3.34,6.2,1.6,6.89,5.17S48.6,44.25,48.6,44.71s6.32,2.18,6.9,2.18,4.94-.8,5.28-.69.46,1.5.92,1.5,1.61-.81,2.07-.58-2.41,4.94-7.58,2.41c0,0-9-.34-10.11-2.06-1-1.46-1.94-7.89-2.22-9.87a.16.16,0,0,0-.31,0c-.56,1.37-1.93,5-1.84,6.8A25.71,25.71,0,0,0,43,50.56"/><path class="cls-5" d="M34.55,25.52s-.57,2.53-1.72,3.34-6.2,1.6-6.89,5.17-1.73,10.22-1.73,10.68-6.32,2.18-6.89,2.18-4.94-.8-5.28-.69-.46,1.5-.92,1.5-1.61-.81-2.07-.58,2.41,4.94,7.58,2.41c0,0,9-.34,10.11-2.06,1-1.46,1.94-7.89,2.22-9.87a.16.16,0,0,1,.31,0c.55,1.37,1.93,5,1.84,6.8a26,26,0,0,1-1.32,6.24"/><ellipse class="cls-5" cx="36.31" cy="20.71" rx="4.2" ry="5.43"/><path class="cls-5" d="M13.23,41.44c0-2.1,1.44-2.1,1.44-4.19s-1.44-2.1-1.44-4.2,1.44-2.1,1.44-4.19"/><path class="cls-5" d="M20,32.43c0-2.1,1.44-2.1,1.44-4.19S20,26.14,20,24s1.44-2.1,1.44-4.19"/><path class="cls-5" d="M59.47,41.44c0-2.1,1.44-2.1,1.44-4.19s-1.44-2.1-1.44-4.2,1.44-2.1,1.44-4.19"/><path class="cls-5" d="M52.71,32.43c0-2.1,1.44-2.1,1.44-4.19s-1.44-2.1-1.44-4.2,1.44-2.1,1.44-4.19"/></g></svg>