<svg id="Layer_1" data-name="Layer 1" xmlns="http://www.w3.org/2000/svg" viewBox="0 0 40 40"><defs><style>.cls-1{fill:#fff;}</style></defs><path class="cls-1" d="M19.66,0h.82q6.69,0,12.91,5.09Q40,11.81,40,19.17v1.91q0,4.28-3.31,10.05a20.75,20.75,0,0,1-11.12,8.05,23,23,0,0,1-5.44.82H20q-8.15,0-14.57-6.38A20.23,20.23,0,0,1,0,20Q0,12.12,6.16,5.56,12.58,0,19.66,0Zm1.19,16.57v.95c0,.16-.09.23-.26.23a12.87,12.87,0,0,1-6.38-2.6l-1.65-1.54h-.13a3,3,0,0,1-.47,1V16a5.1,5.1,0,0,0,1.65,2.73v.11A3.38,3.38,0,0,1,12,18.36v.11q0,2.28,2.95,3.91l-.23.12H14.1l-.6-.12v.24c.9,1.65,2.05,2.48,3.44,2.48v.35a8.84,8.84,0,0,1-4.63,1.42h-.7v.24a14.35,14.35,0,0,0,5.79,1.53,11.2,11.2,0,0,0,8.75-4.14,11.88,11.88,0,0,0,2.61-6.86v-.82a12.58,12.58,0,0,0,1.91-2v-.12a7.57,7.57,0,0,1-1.91.6L28.64,15a4.11,4.11,0,0,0,1.66-1.77v-.11h-.12a8.63,8.63,0,0,1-2.12.83h-.35a4.69,4.69,0,0,0-2.37-1.18h-.95A3.58,3.58,0,0,0,21.2,15,2.9,2.9,0,0,0,20.85,16.57Z"/></svg>