<svg id="Layer_2" data-name="Layer 2" xmlns="http://www.w3.org/2000/svg" xmlns:xlink="http://www.w3.org/1999/xlink" viewBox="0 0 95.76 95.76"><defs><style>.cls-1{fill:none;clip-rule:evenodd;}.cls-2{fill:#fff;}.cls-3{clip-path:url(#clip-path);}.cls-4{clip-path:url(#clip-path-2);}.cls-5{fill:#c67a2a;}</style><clipPath id="clip-path"><path class="cls-1" d="M-384.43-385a30.23,30.23,0,0,1-7.95-20.47A30.2,30.2,0,0,1-383.49-427l.27-.26,1.94,1.94-.26.27a27.41,27.41,0,0,0-8.09,19.53A27.48,27.48,0,0,0-382.49-387l3.76-3.75a22.29,22.29,0,0,1-5.62-14.77,22.23,22.23,0,0,1,6.54-15.8l.27-.26,1.94,1.94-.26.27a19.46,19.46,0,0,0-5.74,13.85,19.5,19.5,0,0,0,4.82,12.82l4.65-4.65a13,13,0,0,1-2.9-8.17,13,13,0,0,1,3.81-9.21l.27-.26L-369-413l-.26.27a10.19,10.19,0,0,0-3,7.26,10.12,10.12,0,0,0,2.1,6.21l3.47-3.46a5.31,5.31,0,0,1-.75-2.75,5.45,5.45,0,0,1,5.45-5.45,5.31,5.31,0,0,1,2.75.75l30.11-30.11A47.71,47.71,0,0,0-362-453.36a47.87,47.87,0,0,0-47.88,47.88,47.71,47.71,0,0,0,13.07,32.86Z"/></clipPath><clipPath id="clip-path-2"><path class="cls-1" d="M-327.21-438.34-339.6-426a30.23,30.23,0,0,1,8,20.48A30.19,30.19,0,0,1-340.54-384l-.27.26-1.94-1.94.26-.27a27.4,27.4,0,0,0,8.09-19.52A27.49,27.49,0,0,0-341.54-424l-3.76,3.75a22.25,22.25,0,0,1,5.62,14.78,22.19,22.19,0,0,1-6.54,15.79l-.27.26-1.94-1.94.26-.27a19.44,19.44,0,0,0,5.74-13.84,19.51,19.51,0,0,0-4.82-12.83l-4.65,4.65a13,13,0,0,1,2.9,8.18,12.93,12.93,0,0,1-3.81,9.2l-.27.26L-355-398l.26-.27a10.18,10.18,0,0,0,3-7.25,10.13,10.13,0,0,0-2.1-6.22l-3.46,3.46a5.45,5.45,0,0,1,.75,2.76,5.47,5.47,0,0,1-4.08,5.27v31.89h-2.75v-31.89a5.74,5.74,0,0,1-1.38-.57l-30.1,30.1A47.68,47.68,0,0,0-362-357.61a47.87,47.87,0,0,0,47.87-47.87,47.68,47.68,0,0,0-13.07-32.86"/></clipPath></defs><circle class="cls-2" cx="47.88" cy="47.88" r="47.88"/><polygon class="cls-5" points="47.19 40.47 48.58 40.47 47.88 38.07 47.19 40.47"/><path class="cls-5" d="M26.94,64.16a11.26,11.26,0,0,0,10.83,8H58a11.26,11.26,0,0,0,10.85-8.06l3.32-15.2H23.6Z"/><path class="cls-5" d="M55.82,32.42l-1.88-.68.68-1.9c-1.91-.2-3.82-.3-5.74-.33v2.65h-2V29.51c-1.93,0-3.87.14-5.8.33l.68,1.9-1.88.68L39,30.09c-1.34.18-2.69.38-4,.65L39.16,40.8H45l1.54-5.31a1.38,1.38,0,0,1,2.66,0l1.54,5.31H56.6l4.16-10.06c-1.37-.27-2.73-.48-4.1-.66Z"/><path class="cls-5" d="M47.88,0A47.88,47.88,0,1,0,95.76,47.88,47.88,47.88,0,0,0,47.88,0ZM76.4,38.81,70.78,64.58A13.28,13.28,0,0,1,58,74.14H37.77A13.27,13.27,0,0,1,25,64.66L19.34,38.74A13.33,13.33,0,0,1,32.13,21.62h31.5A13.33,13.33,0,0,1,76.4,38.81Z"/><path class="cls-5" d="M63.63,23.62H32.13A11.34,11.34,0,0,0,21.28,38.24l1.88,8.64H72.6l1.87-8.57A11.34,11.34,0,0,0,63.63,23.62Zm-.74,7.19-5,12H37.82l-5-12a1.4,1.4,0,0,1,.06-1.2,1.33,1.33,0,0,1,.89-.68,69.18,69.18,0,0,1,28.12,0,1.33,1.33,0,0,1,.89.68A1.4,1.4,0,0,1,62.89,30.81Z"/></svg>